<svg width="186" height="180" viewBox="0 0 186 180" fill="none" xmlns="http://www.w3.org/2000/svg">
<circle cx="95.5002" cy="90.5" r="70.5" fill="#54F3F3"/>
<circle cx="178.467" cy="27.5" r="7.5" fill="#54F3F3"/>
<circle cx="20.0334" cy="10" r="10" fill="#54F3F3"/>
<circle cx="10.0334" cy="133" r="5" fill="#54F3F3"/>
<circle cx="165.533" cy="160.5" r="2.5" fill="#54F3F3"/>
<path fill-rule="evenodd" clip-rule="evenodd" d="M84.8555 65.9166H106.169C114.503 65.9166 120.083 71.7674 120.083 80.4699V100.557C120.083 109.232 114.503 115.083 106.169 115.083H84.8555C76.5217 115.083 70.9167 109.232 70.9167 100.557V80.4699C70.9167 71.7674 76.5217 65.9166 84.8555 65.9166ZM94.0987 97.8503L105.776 86.1732C106.612 85.3373 106.612 83.9853 105.776 83.1248C104.94 82.289 103.563 82.289 102.727 83.1248L92.5746 93.2778L88.2725 88.9757C87.4366 88.1398 86.06 88.1398 85.2241 88.9757C84.3883 89.8115 84.3883 91.1636 85.2241 92.024L91.075 97.8503C91.4929 98.2682 92.0337 98.4648 92.5746 98.4648C93.14 98.4648 93.6808 98.2682 94.0987 97.8503Z" fill="white"/>
<circle cx="106.533" cy="4.5" r="2.5" fill="#54F3F3"/>
<circle cx="62.5334" cy="176.5" r="3.5" fill="#54F3F3"/>
<circle cx="122.033" cy="171" r="1" fill="#54F3F3"/>
<circle cx="170.533" cy="110.5" r="2.5" fill="#54F3F3"/>
<circle cx="1.03345" cy="75" r="1" fill="#54F3F3"/>
</svg>
