<svg width="39" height="40" viewBox="0 0 39 40" fill="none" xmlns="http://www.w3.org/2000/svg">
<ellipse cx="19.5442" cy="20" rx="19.0608" ry="20" fill="#C8E6C9"/>
<path d="M17.4913 24.3801L15.1388 21.9117C14.9014 21.6626 14.4955 21.839 14.4955 22.1913L14.4955 24.4551C14.4955 24.7864 14.7516 25.0551 15.0674 25.0551L17.2248 25.0551C17.5606 25.0551 17.7287 24.6292 17.4913 24.3801Z" fill="#C2CCDE" fill-opacity="0.25"/>
<path d="M16.3151 23.1459L24.1997 14.8727M15.1388 21.9117L17.4913 24.3801C17.7287 24.6292 17.5606 25.0551 17.2248 25.0551L15.0674 25.0551C14.7516 25.0551 14.4955 24.7864 14.4955 24.4551L14.4955 22.1913C14.4955 21.839 14.9014 21.6626 15.1388 21.9117Z" stroke="#388E3D" stroke-linecap="round" stroke-linejoin="round"/>
</svg>
