<?xml version="1.0" encoding="utf-8"?>
<!-- Generator: Adobe Illustrator 26.0.1, SVG Export Plug-In . SVG Version: 6.00 Build 0)  -->
<svg version="1.1" xmlns="http://www.w3.org/2000/svg" xmlns:xlink="http://www.w3.org/1999/xlink" x="0px" y="0px"
	 viewBox="0 0 2266.43481 2582.60864" style="enable-background:new 0 0 2266.43481 2582.60864;" xml:space="preserve">
<style type="text/css">
	.st0{fill:#2B3A41;}
	.st1{fill:#00C5F0;}
	.st2{fill:#A2A3A4;}
	.st3{fill:#FFFFFF;}
</style>
<g id="Layer_1">
	<rect y="0" class="st0" width="2266.43481" height="2582.60864"/>
</g>
<g id="Layer_2">
	<g>
		<g>
			<path class="st1" d="M1005.56665,1759.68213C681.6051,1701.22827,433.6265,1424.26819,419.66101,1086.896l88.6254-30.05127
				l-88.6181-30.04883c14.35477-346.67804,275.80032-629.55609,612.89624-677.11359l22.00391-77.2164
				c-398.42798,39.44495-709.62634,375.56198-709.62634,784.38367c0,413.33472,318.16959,752.39282,722.96057,785.57568
				C1036.89954,1825.0603,1013.83087,1795.19836,1005.56665,1759.68213z"/>
			<path class="st1" d="M1205.73145,271.8569l21.92786,76.9639c339.4624,44.84302,603.6936,328.07629,619.06091,675.97595
				l-94.51367,32.04797l94.52295,32.05151c-14.95471,338.6261-265.71338,616.0083-592.09778,671.87646
				c-8.54297,35.38867-31.83972,65.09827-63.02039,82.18494c408.06128-29.83716,729.88123-370.39172,729.88123-786.10803
				C1921.49255,645.92365,1607.07483,308.43759,1205.73145,271.8569z"/>
			<polygon class="st1" points="1130.24634,173.33548 1000.29938,629.64038 1118.3429,513.58063 1130.24634,481.83847 
				1142.15002,513.58063 1260.19336,629.64038 			"/>
		</g>
	</g>
	<g>
		<g>
			<path class="st2" d="M1133.21741,1246.64026h-0.00012c-32.87073,0-59.51782,26.64734-59.51782,59.51831v424.55908
				c0,32.87097,26.64709,59.51831,59.51782,59.51831h0.00012c32.87073,0,59.51758-26.64734,59.51758-59.51831v-424.55908
				C1192.73499,1273.2876,1166.08813,1246.64026,1133.21741,1246.64026z"/>
			<path class="st2" d="M1021.62158,1336.41284c-8.21765,0-14.87946,6.66187-14.87946,14.87964v189.96143
				c0,8.21643,6.6618,14.8783,14.87946,14.8783c8.21777,0,14.87939-6.66187,14.87939-14.8783v-189.96143
				C1036.50098,1343.07471,1029.83936,1336.41284,1021.62158,1336.41284z"/>
			<rect x="919.44952" y="1313.10266" class="st2" width="59.02169" height="195.41638"/>
			<path class="st2" d="M1133.21729,1060.1521c61.35864,0,111.09973-49.74103,111.09973-111.09998
				s-49.74109-111.09991-111.09973-111.09991c-61.35876,0-111.09967,49.74097-111.09967,111.09991
				S1071.85852,1060.1521,1133.21729,1060.1521z M1133.21729,885.56665c35.06213,0,63.4856,28.42358,63.4856,63.48547
				s-28.42346,63.48553-63.4856,63.48553s-63.4856-28.42365-63.4856-63.48553S1098.15515,885.56665,1133.21729,885.56665z"/>
			<path class="st2" d="M982.43903,949.05212c0-13.82495,1.86072-27.21552,5.34528-39.9339h-22.32886
				c-25.40826,0-46.00592,20.59827-46.00592,46.00531v97.58813v16.86377h-65.46954v16.36743
				c0,6.30042,5.10736,11.40759,11.40759,11.40759h54.06195v181.03308h65.96545v-189.96143h56.04584l9.48792-12.99316
				C1009.70203,1048.52417,982.43903,1001.9718,982.43903,949.05212z"/>
			<path class="st2" d="M795.84998,1261.42578c-11.86383,111.28674,20.43225,190.04919,96.81219,219.32935V1443.896
				c-68.62286-32.44897-68.69897-127.56274-63.22327-178.89673c2.05341-19.18958,18.27734-33.73999,37.59418-33.73999h35.05927
				v-33.76709h-35.05927C830.3515,1197.49219,799.75385,1224.97131,795.84998,1261.42578z"/>
			<path class="st2" d="M866.88098,1340.44189c0,20.30481,10.6217,37.7467,25.78119,45.19946v-90.39893
				C877.50269,1302.69519,866.88098,1320.11108,866.88098,1340.44189z"/>
			<path class="st2" d="M1215.49609,1171.25452v10.11523c0,14.62708-5.07007,28.79749-14.34814,40.10352l-0.05066,0.07678
				c-2.66174,3.24426-7.35168,3.72571-10.74854,1.24146c-6.97119-5.07007-22.71375-11.86426-57.13928-11.86426
				c-34.40002,0-50.14246,6.79419-57.11377,11.86426c-3.39697,2.48425-8.08667,2.00281-10.74841-1.24146l-0.05078-0.07678
				c-9.27808-11.30603-14.34802-25.47644-14.34802-40.10352v-10.11523c0,0,19.29138-15.86865,82.26099-15.86865
				C1196.20471,1155.38586,1215.49609,1171.25452,1215.49609,1171.25452z"/>
			<path class="st2" d="M827.32477,956.98767h41.40271c13.21875,0,23.93469-10.71564,23.93469-23.93408
				c0-13.21973-10.71594-23.93536-23.93469-23.93536h-41.40271c-13.21893,0-23.93488,10.71564-23.93488,23.93536
				C803.38989,946.27203,814.10583,956.98767,827.32477,956.98767z"/>
			<path class="st2" d="M803.38989,660.39105H687.82648c-18.90076,0-34.22272,15.32147-34.22272,34.22272
				c0,18.90118,15.32196,34.22266,34.22272,34.22266h115.56342V660.39105z"/>
			<path class="st2" d="M930.81409,804.1095c15.48889,17.44061,37.67029,27.4024,60.99243,27.4024h45.68103v-45.63025h-45.68103
				c-10.26678,0-20.07727-4.41028-26.89648-12.06604l-80.51202-90.60199H824.2168v45.63025h39.67285L930.81409,804.1095z"/>
			<path class="st2" d="M1208.55017,773.2066v23.55035c0,9.05078-9.78516,14.67786-17.59302,10.14008l-7.14868-4.15656
				l-50.599-4.46222l-50.57336,4.46222l-7.1488,4.15656c-7.80786,4.53778-17.59302-1.08929-17.59302-10.14008V773.2066
				c0-16.02087,12.97937-29.00043,28.97522-29.00043h92.70544C1195.57092,744.20618,1208.55017,757.18573,1208.55017,773.2066z"/>
			<path class="st2" d="M1244.81311,1336.41284c-8.21765,0-14.87952,6.66187-14.87952,14.87964v189.96143
				c0,8.21643,6.66187,14.8783,14.87952,14.8783c8.21777,0,14.87939-6.66187,14.87939-14.8783v-189.96143
				C1259.6925,1343.07471,1253.03088,1336.41284,1244.81311,1336.41284z"/>
			<rect x="1287.96338" y="1313.10266" class="st2" width="59.02185" height="195.41638"/>
			<path class="st2" d="M1346.98511,1278.38354v-181.03308h54.06201c6.30017,0,11.40747-5.10718,11.40747-11.40759v-16.36743
				h-65.46948v-16.86377v-97.58813c0-25.40704-20.59753-46.00531-46.00574-46.00531h-22.32898
				c3.4845,12.71838,5.34521,26.10895,5.34521,39.9339c0,52.91968-27.26294,99.47205-68.50977,126.37683l9.48792,12.99316h56.0459
				v189.96143H1346.98511z"/>
			<path class="st2" d="M1399.40161,1197.49219h-35.05933v33.76709h35.05933c19.31677,0,35.54077,14.55042,37.59412,33.73999
				c5.47571,51.33398,5.39954,146.44775-63.22327,178.89673v36.85913c76.38-29.28015,108.67603-108.0426,96.81213-219.32935
				C1466.68079,1224.97131,1436.08313,1197.49219,1399.40161,1197.49219z"/>
			<path class="st2" d="M1373.77246,1295.24243v90.39893c15.15942-7.45276,25.78125-24.89465,25.78125-45.19946
				C1399.55371,1320.11108,1388.93188,1302.69519,1373.77246,1295.24243z"/>
			<path class="st2" d="M1397.70728,909.11823c-13.21887,0-23.93481,10.71564-23.93481,23.93536
				c0,13.21844,10.71594,23.93408,23.93481,23.93408h41.40271c13.21875,0,23.93469-10.71564,23.93469-23.93408
				c0-13.21973-10.71594-23.93536-23.93469-23.93536H1397.70728z"/>
			<path class="st2" d="M1578.60828,660.39105h-115.5636v68.44537h115.5636c18.90063,0,34.22278-15.32147,34.22278-34.22266
				C1612.83105,675.71252,1597.50891,660.39105,1578.60828,660.39105z"/>
			<path class="st2" d="M1335.62048,804.1095l66.92444-75.26562h39.67285v-45.63025h-60.18115l-80.51208,90.60199
				c-6.81921,7.65576-16.62964,12.06604-26.89648,12.06604h-45.68091v45.63025h45.68091
				C1297.95032,831.5119,1320.13159,821.55011,1335.62048,804.1095z"/>
		</g>
	</g>
	<g>
		<path class="st3" d="M549.53174,2054.99268c0,24.47876-9.69196,40.29028-29.0697,47.42993l38.68738,54.6416h-41.96509
			l-33.87857-48.74219h-23.60608v48.74219h-34.09644v-152.77917h57.92035c23.74966,0,40.68893,4.00793,50.81784,12.01904
			C544.4679,2024.32007,549.53174,2037.21545,549.53174,2054.99268z M508.44049,2073.13379
			c4.22461-3.7876,6.33881-9.79834,6.33881-18.03223c0-8.23132-2.18597-13.88062-6.55664-16.94043
			c-4.37192-3.05994-12.02151-4.58984-22.95004-4.58984h-25.57294v45.24414h24.9169
			C496.27292,2078.81543,504.21341,2076.92407,508.44049,2073.13379z"/>
		<path class="st3" d="M646.35858,2157.06421h-34.09637v-60.32544l-52.89368-92.45374h36.93842l33.00348,56.82727l33.00464-56.82727
			h36.93719l-52.89368,92.45374V2157.06421z"/>
		<path class="st3" d="M832.36029,2024.28284c14.56891,13.33362,21.85706,31.8783,21.85706,55.62683
			c0,23.75073-7.1037,42.5481-21.30994,56.38916c-14.20746,13.84595-35.88385,20.76538-65.02533,20.76538h-52.23761v-152.77917
			h53.98663C796.8775,2004.28503,817.78766,2010.94934,832.36029,2024.28284z M807.33447,2115.09766
			c8.37738-7.86743,12.56738-19.30469,12.56738-34.31421c0-15.00708-4.19-26.55566-12.56738-34.64355
			c-8.38116-8.08777-21.23944-12.13037-38.57727-12.13037h-19.01636v92.89185h21.63922
			C786.97015,2126.90137,798.95331,2122.96777,807.33447,2115.09766z"/>
		<path class="st3" d="M993.88324,2004.28503v30.38049h-76.06281v31.47241h68.41321v29.0708h-68.41321v31.69263h78.46661v30.16284
			H883.724v-152.77917H993.88324z"/>
		<path class="st3" d="M1150.59729,2054.99268c0,24.47876-9.69446,40.29028-29.07092,47.42993l38.68616,54.6416h-41.96387
			l-33.87854-48.74219h-23.60608v48.74219h-34.09644v-152.77917h57.92041c23.74963,0,40.68884,4.00793,50.81909,12.01904
			C1145.53223,2024.32007,1150.59729,2037.21545,1150.59729,2054.99268z M1109.50488,2073.13379
			c4.22461-3.7876,6.33875-9.79834,6.33875-18.03223c0-8.23132-2.18591-13.88062-6.55664-16.94043
			c-4.37183-3.05994-12.02148-4.58984-22.95007-4.58984h-25.57288v45.24414h24.91687
			C1097.33728,2078.81543,1105.27783,2076.92407,1109.50488,2073.13379z"/>
		<path class="st3" d="M1310.14966,2157.06421h-66.88318v-152.77917h59.45154c10.34302,0,19.26758,1.23779,26.77356,3.71338
			c7.50354,2.48047,13.14795,5.82996,16.94055,10.05591c6.84741,7.86743,10.27124,16.75732,10.27124,26.66467
			c0,11.94971-3.86194,20.8396-11.58337,26.66455c-2.62415,2.04248-4.44617,3.31738-5.46362,3.82739
			c-1.02246,0.51001-2.84204,1.34668-5.46606,2.5127c9.47156,2.04248,17.01221,6.30298,22.62195,12.78638
			c5.60974,6.48608,8.41711,14.53442,8.41711,24.1521c0,10.6377-3.64417,20.03491-10.92981,28.19458
			C1345.8479,2152.33081,1331.13037,2157.06421,1310.14966,2157.06421z M1277.36292,2066.13794h16.17554
			c9.46912,0,16.49988-1.01758,21.0896-3.06006c4.59229-2.03735,6.88708-6.44629,6.88708-13.22217
			c0-6.77563-2.11414-11.25647-6.33997-13.44238c-4.22827-2.18591-11.36548-3.27771-21.41882-3.27771h-16.39343V2066.13794z
			 M1277.36292,2128.21338h23.38696c9.76123,0,17.08167-1.20312,21.96594-3.60693c4.88196-2.40381,7.32288-7.13696,7.32288-14.20728
			c0-7.06543-2.58948-11.72705-7.75854-13.9873c-5.17395-2.25757-13.4425-3.38892-24.80798-3.38892h-20.10925V2128.21338z"/>
		<path class="st3" d="M1517.78809,2054.99268c0,24.47876-9.69189,40.29028-29.06848,47.42993l38.68628,54.6416h-41.96643
			l-33.87854-48.74219h-23.60486v48.74219h-34.09644v-152.77917h57.92163c23.74841,0,40.6864,4.00793,50.81665,12.01904
			C1512.72302,2024.32007,1517.78809,2037.21545,1517.78809,2054.99268z M1476.69812,2073.13379
			c4.22339-3.7876,6.33752-9.79834,6.33752-18.03223c0-8.23132-2.18591-13.88062-6.55786-16.94043
			c-4.36938-3.05994-12.02148-4.58984-22.94873-4.58984h-25.573v45.24414h24.91687
			C1464.52808,2078.81543,1472.46985,2076.92407,1476.69812,2073.13379z"/>
		<path class="st3" d="M1679.74927,2135.97192c-15.44531,15.08154-34.46289,22.62207-57.04529,22.62207
			c-22.58984,0-41.60486-7.54053-57.04773-22.62207c-15.44763-15.0813-23.16907-33.84131-23.16907-56.28271
			c0-22.43628,7.72144-41.19885,23.16907-56.28027c15.44287-15.0813,34.45789-22.62195,57.04773-22.62195
			c22.5824,0,41.59998,7.54065,57.04529,22.62195c15.44275,15.08142,23.16907,33.84399,23.16907,56.28027
			C1702.91833,2102.13062,1695.19202,2120.89062,1679.74927,2135.97192z M1668.16589,2079.80078
			c0-13.62329-4.37183-25.24634-13.11316-34.86401c-8.7439-9.61523-19.49048-14.42529-32.23975-14.42529
			c-12.75183,0-23.49597,4.81006-32.23975,14.42529c-8.7439,9.61768-13.11328,21.24072-13.11328,34.86401
			c0,13.62549,4.36938,25.20898,13.11328,34.75244c8.74377,9.54346,19.48792,14.31641,32.23975,14.31641
			c12.74927,0,23.49585-4.77295,32.23975-14.31641C1663.79407,2105.00977,1668.16589,2093.42627,1668.16589,2079.80078z"/>
		<path class="st3" d="M1766.1897,2034.77441c-3.27759,2.69849-4.9165,6.26575-4.9165,10.70947
			c0,4.44629,2.00024,7.97876,6.01074,10.60059c4.00549,2.62402,13.25684,5.72095,27.75891,9.28833
			c14.49707,3.57227,25.75366,8.92944,33.76721,16.06665c8.01355,7.13965,12.02148,17.55957,12.02148,31.25439
			c0,13.69751-5.13684,24.80811-15.40808,33.33154c-10.2738,8.52588-23.79053,12.78662-40.54541,12.78662
			c-24.18909,0-45.97437-8.96167-65.35339-26.88257l20.32715-24.91699c16.46521,14.42529,31.69263,21.63672,45.68225,21.63672
			c6.26331,0,11.17981-1.34424,14.75208-4.04272c3.56982-2.69336,5.3573-6.3374,5.3573-10.92969
			c0-4.58984-1.89636-8.229-5.68408-10.92725c-3.79004-2.6936-11.29358-5.42651-22.51306-8.19678
			c-17.77979-4.22339-30.78406-9.72656-39.01538-16.5022c-8.23389-6.77588-12.34839-17.41113-12.34839-31.91064
			c0-14.49707,5.20874-25.68176,15.62854-33.54932c10.41479-7.86987,23.42163-11.80359,39.01538-11.80359
			c10.19702,0,20.39648,1.7478,30.59839,5.24573c10.19702,3.49561,19.08691,8.45178,26.66467,14.86353l-17.26477,24.91687
			c-13.26184-10.05579-26.95923-15.0813-41.09253-15.0813C1773.95081,2030.73181,1769.46997,2032.07849,1766.1897,2034.77441z"/>
	</g>
	<g>
		<path class="st3" d="M767.55408,2409.27319l-14.42041-20.53271c-1.78241,0.12891-3.18359,0.19067-4.20105,0.19067h-16.52216
			v20.34204h-9.54962v-66.84863h26.07178c8.65717,0,15.46997,2.06958,20.43604,6.2063
			c4.96606,4.1394,7.4491,9.83569,7.4491,17.09399c0,5.15674-1.27368,9.55103-3.81989,13.18018
			c-2.54736,3.62915-6.17657,6.27075-10.88641,7.927l15.85248,22.44116H767.55408z M762.49268,2376.8999
			c3.18365-2.61182,4.77545-6.33521,4.77545-11.17505c0-4.83716-1.5918-8.54565-4.77545-11.12524
			c-3.18359-2.57715-7.79938-3.86694-13.84723-3.86694h-16.23499v30.08105h16.23499
			C754.6933,2380.81372,759.30908,2379.50903,762.49268,2376.8999z"/>
		<path class="st3" d="M799.92749,2342.42456h9.54962v66.84863h-9.54962V2342.42456z"/>
		<path class="st3" d="M837.17163,2342.42456h28.1723c7.06659,0,13.33728,1.40112,18.81329,4.20117
			c5.47479,2.80225,9.72418,6.73364,12.74939,11.7937c3.02271,5.06274,4.5365,10.8728,4.5365,17.42822
			c0,6.55786-1.51379,12.36816-4.5365,17.42822c-3.02521,5.0625-7.2746,8.9939-12.74939,11.79614
			c-5.47601,2.80249-11.7467,4.20117-18.81329,4.20117h-28.1723V2342.42456z M864.77081,2400.96509
			c5.41046,0,10.17102-1.04956,14.27679-3.15137c4.10706-2.10181,7.27332-5.04541,9.50262-8.83301
			c2.22803-3.7876,3.34204-8.16699,3.34204-13.13306s-1.11401-9.34277-3.34204-13.13062
			c-2.22931-3.7876-5.39557-6.73364-9.50262-8.83276c-4.10577-2.10181-8.86633-3.15161-14.27679-3.15161h-18.04956v50.23242
			H864.77081z"/>
		<path class="st3" d="M972.20691,2400.96509v8.30811h-48.51312v-66.84863h47.17627v8.30811h-37.62665v20.53271h33.52087v8.11743
			h-33.52087v21.58228H972.20691z"/>
		<path class="st3" d="M1075.15466,2348.63086c4.96606,4.1394,7.4491,9.83569,7.4491,17.09399
			c0,7.25854-2.48303,12.95728-7.4491,17.09399c-4.96606,4.1394-11.77893,6.20898-20.43604,6.20898h-16.52222v20.24536h-9.54956
			v-66.84863h26.07178C1063.37573,2342.42456,1070.1886,2344.49414,1075.15466,2348.63086z M1068.27869,2376.85034
			c3.18359-2.57715,4.77551-6.28564,4.77551-11.12549c0-4.83716-1.59192-8.54565-4.77551-11.12524
			c-3.18359-2.57715-7.79932-3.86694-13.84729-3.86694h-16.23499v29.98706h16.23499
			C1060.47937,2380.71973,1065.09509,2379.42993,1068.27869,2376.85034z"/>
		<path class="st3" d="M1104.28137,2342.42456h9.54956v58.54053h36.19458v8.30811h-45.74414V2342.42456z"/>
		<path class="st3" d="M1211.52673,2392.56055h-35.52722l-7.35254,16.71265h-9.83679l30.27283-66.84863h9.45435l30.36816,66.84863
			h-10.02625L1211.52673,2392.56055z M1208.18225,2384.92065l-14.42041-32.75708l-14.42029,32.75708H1208.18225z"/>
		<path class="st3" d="M1303.96814,2342.42456v66.84863h-7.83032l-40.10962-49.85107v49.85107h-9.54846v-66.84863h7.83032
			l40.10974,49.84863v-49.84863H1303.96814z"/>
		<path class="st3" d="M1389.15356,2342.42456v66.84863h-7.83032l-40.10974-49.85107v49.85107h-9.54834v-66.84863h7.83032
			l40.10962,49.84863v-49.84863H1389.15356z"/>
		<path class="st3" d="M1465.35986,2400.96509v8.30811h-48.51184v-66.84863h47.17505v8.30811h-37.62659v20.53271h33.51953v8.11743
			h-33.51953v21.58228H1465.35986z"/>
		<path class="st3" d="M1533.16406,2409.27319l-14.42041-20.53271c-1.78235,0.12891-3.18359,0.19067-4.20105,0.19067h-16.52209
			v20.34204h-9.54846v-66.84863h26.07056c8.65723,0,15.46997,2.06958,20.43604,6.2063
			c4.96606,4.1394,7.4491,9.83569,7.4491,17.09399c0,5.15674-1.2749,9.55103-3.81982,13.18018
			c-2.54736,3.62915-6.17664,6.27075-10.8877,7.927l15.85376,22.44116H1533.16406z M1528.104,2376.8999
			c3.18103-2.61182,4.77295-6.33521,4.77295-11.17505c0-4.83716-1.59192-8.54565-4.77295-11.12524
			c-3.18616-2.57715-7.80066-3.86694-13.84851-3.86694h-16.23499v30.08105h16.23499
			C1520.30334,2380.81372,1524.91785,2379.50903,1528.104,2376.8999z"/>
	</g>
</g>
</svg>
