<svg width="307" height="306" viewBox="0 0 307 306" fill="none" xmlns="http://www.w3.org/2000/svg">
    <g clip-path="url(#clip0_19421_1100)">
        <path d="M128.999 290.738C66.1196 280.024 17.9883 229.265 15.2777 167.433L32.4794 161.925L15.2791 156.418C18.0653 92.8804 68.8105 41.0359 134.239 32.3198L138.51 18.168C61.1771 25.3972 0.775146 86.9991 0.775146 161.926C0.775146 237.68 62.5302 299.821 141.098 305.902C135.08 302.72 130.603 297.247 128.999 290.738Z" fill="#00C5F0"/>
        <path d="M167.85 18.0566L172.106 32.1622C237.994 40.3808 289.28 92.2904 292.262 156.052L273.918 161.925L292.264 167.8C289.361 229.861 240.691 280.698 177.341 290.938C175.683 297.424 171.161 302.869 165.109 306C244.312 300.532 306.775 238.117 306.775 161.926C306.775 86.6137 245.748 24.761 167.85 18.0566Z" fill="#00C5F0"/>
        <path d="M153.199 0L127.977 83.6293L150.888 62.3584L153.199 56.5409L155.509 62.3584L178.421 83.6293L153.199 0Z" fill="#00C5F0"/>
        <path d="M153.775 196.71C147.395 196.71 142.223 201.594 142.223 207.618V285.429C142.223 291.454 147.395 296.337 153.775 296.337C160.155 296.337 165.327 291.454 165.327 285.429V207.618C165.327 201.594 160.155 196.71 153.775 196.71Z" fill="#A2A3A4"/>
        <path d="M132.115 213.163C130.52 213.163 129.227 214.384 129.227 215.89V250.705C129.227 252.211 130.52 253.432 132.115 253.432C133.71 253.432 135.003 252.211 135.003 250.705V215.89C135.003 214.384 133.71 213.163 132.115 213.163Z" fill="#A2A3A4"/>
        <path d="M123.74 208.891H112.284V244.706H123.74V208.891Z" fill="#A2A3A4"/>
        <path d="M153.775 162.531C165.685 162.531 175.339 153.415 175.339 142.169C175.339 130.924 165.685 121.808 153.775 121.808C141.866 121.808 132.211 130.924 132.211 142.169C132.211 153.415 141.866 162.531 153.775 162.531ZM153.775 130.534C160.581 130.534 166.098 135.743 166.098 142.169C166.098 148.595 160.581 153.805 153.775 153.805C146.97 153.805 141.453 148.595 141.453 142.169C141.453 135.743 146.97 130.534 153.775 130.534Z" fill="#A2A3A4"/>
        <path d="M124.51 142.169C124.51 139.636 124.871 137.182 125.547 134.851H121.213C116.282 134.851 112.284 138.626 112.284 143.282V161.168V164.258H99.5767V167.258C99.5767 168.413 100.568 169.349 101.791 169.349H112.284V202.528H125.087V167.713H135.966L137.807 165.331C129.801 160.4 124.51 151.868 124.51 142.169Z" fill="#A2A3A4"/>
        <path d="M88.2941 199.42C85.9914 219.816 92.2599 234.251 107.085 239.617V232.862C93.7655 226.915 93.7507 209.483 94.8135 200.075C95.2121 196.558 98.3611 193.891 102.11 193.891H108.915V187.702H102.11C94.9906 187.702 89.0518 192.738 88.2941 199.42Z" fill="#A2A3A4"/>
        <path d="M102.081 213.901C102.081 217.622 104.142 220.819 107.085 222.185V205.617C104.142 206.983 102.081 210.175 102.081 213.901Z" fill="#A2A3A4"/>
        <path d="M169.745 182.894V184.748C169.745 187.428 168.761 190.025 166.96 192.098L166.95 192.112C166.434 192.706 165.524 192.794 164.864 192.339C163.511 191.41 160.456 190.165 153.774 190.165C147.097 190.165 144.041 191.41 142.688 192.339C142.029 192.794 141.119 192.706 140.602 192.112L140.592 192.098C138.791 190.025 137.807 187.428 137.807 184.748V182.894C137.807 182.894 141.552 179.985 153.774 179.985C166.001 179.985 169.745 182.894 169.745 182.894Z" fill="#A2A3A4"/>
        <path d="M94.4032 143.624H102.439C105.005 143.624 107.085 141.66 107.085 139.237C107.085 136.814 105.005 134.851 102.439 134.851H94.4032C91.8375 134.851 89.7576 136.814 89.7576 139.237C89.7576 141.66 91.8375 143.624 94.4032 143.624Z" fill="#A2A3A4"/>
        <path d="M89.7575 89.2651H67.3273C63.6587 89.2651 60.6848 92.0732 60.6848 95.5373C60.6848 99.0014 63.6587 101.809 67.3273 101.809H89.7575V89.2651Z" fill="#A2A3A4"/>
        <path d="M114.49 115.605C117.496 118.801 121.801 120.627 126.328 120.627H135.195V112.264H126.328C124.335 112.264 122.431 111.456 121.108 110.053L105.481 93.4478H93.7998V101.811H101.5L114.49 115.605Z" fill="#A2A3A4"/>
        <path d="M168.397 109.942V114.258C168.397 115.916 166.498 116.948 164.982 116.116L163.595 115.354L153.774 114.537L143.958 115.354L142.57 116.116C141.055 116.948 139.156 115.916 139.156 114.258V109.942C139.156 107.005 141.675 104.626 144.779 104.626H162.773C165.878 104.626 168.397 107.005 168.397 109.942Z" fill="#A2A3A4"/>
        <path d="M175.435 213.163C173.84 213.163 172.547 214.384 172.547 215.89V250.705C172.547 252.211 173.84 253.432 175.435 253.432C177.03 253.432 178.323 252.211 178.323 250.705V215.89C178.323 214.384 177.03 213.163 175.435 213.163Z" fill="#A2A3A4"/>
        <path d="M195.266 208.891H183.811V244.706H195.266V208.891Z" fill="#A2A3A4"/>
        <path d="M195.266 202.528V169.349H205.76C206.982 169.349 207.974 168.413 207.974 167.258V164.258H195.266V161.168V143.282C195.266 138.626 191.269 134.851 186.337 134.851H182.003C182.679 137.182 183.041 139.636 183.041 142.169C183.041 151.868 177.749 160.4 169.743 165.331L171.585 167.713H182.463V202.528H195.266Z" fill="#A2A3A4"/>
        <path d="M205.44 187.702H198.635V193.891H205.44C209.189 193.891 212.338 196.558 212.737 200.075C213.8 209.483 213.785 226.915 200.466 232.862V239.617C215.291 234.251 221.559 219.816 219.256 199.42C218.499 192.738 212.56 187.702 205.44 187.702Z" fill="#A2A3A4"/>
        <path d="M200.466 205.617V222.185C203.408 220.819 205.47 217.622 205.47 213.901C205.47 210.175 203.408 206.983 200.466 205.617Z" fill="#A2A3A4"/>
        <path d="M205.111 134.851C202.546 134.851 200.466 136.814 200.466 139.237C200.466 141.66 202.546 143.624 205.111 143.624H213.147C215.713 143.624 217.793 141.66 217.793 139.237C217.793 136.814 215.713 134.851 213.147 134.851H205.111Z" fill="#A2A3A4"/>
        <path d="M240.223 89.2651H217.793V101.809H240.223C243.892 101.809 246.866 99.0014 246.866 95.5373C246.866 92.0732 243.892 89.2651 240.223 89.2651Z" fill="#A2A3A4"/>
        <path d="M193.061 115.605L206.05 101.811H213.751V93.4478H202.07L186.443 110.053C185.119 111.456 183.215 112.264 181.222 112.264H172.356V120.627H181.222C185.749 120.627 190.054 118.801 193.061 115.605Z" fill="#A2A3A4"/>
    </g>
    <defs>
        <clipPath id="clip0_19421_1100">
            <rect width="306" height="306" fill="white" transform="translate(0.775146)"/>
        </clipPath>
    </defs>
</svg>
