<svg width="106" height="89" viewBox="0 0 106 89" fill="none" xmlns="http://www.w3.org/2000/svg">
<path d="M100.76 32.1602C103.314 40.1744 100.237 49.5558 97.4269 52.4865C100.822 46.5546 100.862 40.0056 100.343 35.9709C100.017 33.4489 99.2035 31.4768 98.3113 29.8581C96.826 27.1669 94.7861 25.6387 92.7977 24.7665C87.9444 23.9651 81.8962 27.1473 80.8979 27.7246C79.5383 28.5064 79.0079 29.9089 78.9448 31.5276C80.8193 30.1881 84.0418 30.6046 84.0418 30.6046C88.003 31.4727 90.2158 33.9046 91.2255 37.4521C92.2984 41.2038 91.6774 44.818 89.9405 48.2634C88.1996 51.7322 85.5587 54.2346 81.8253 55.4172C77.4672 56.8041 73.2308 54.8673 71.2224 50.7699C68.4087 45.0186 71.077 37.5937 74.5159 34.5135C75.51 36.7019 76.4927 38.8664 77.4869 41.031C78.2533 42.7124 78.257 42.7124 80.2064 43.9539C79.3536 44.3348 77.6794 43.6751 77.255 42.7676C76.7008 41.5617 76.1703 40.3475 75.5809 39.0355C74.2131 41.2042 73.6827 43.4003 74.1505 45.7807C74.9955 50.0431 79.4048 51.5831 82.9731 48.8801C85.8221 46.7274 87.178 42.5433 86.3136 39.2358C85.7672 37.1576 84.3724 35.7707 82.0379 35.6057C82.0379 35.6057 82.0338 35.6057 82.0301 35.6057C81.2715 35.5623 80.179 35.751 79.637 36.0065C80.4936 38.9098 81.8261 41.4241 81.8494 41.5339C81.9043 41.7775 79.2241 41.3848 78.9177 41.1252L73.3766 28.9076C73.0387 28.1611 73.1407 27.293 73.6478 26.6489C74.4101 25.6669 75.6206 24.0953 76.7876 23.4626C77.5069 23.0777 77.2001 23.7652 79.3892 23.6473C80.698 23.5765 81.8454 23.3959 83.1148 23.2309C82.6273 23.4311 82.0379 23.667 81.4132 23.9065C79.3069 24.7235 76.4182 24.8651 76.4182 24.8651C76.4182 24.8651 78.6384 25.0928 80.6976 24.6608C81.9474 24.3975 84.6981 23.7022 86.3722 23.278C87.3156 23.0343 88.2901 22.9164 89.2646 22.9205C90.2551 22.9283 91.2022 22.9479 91.595 23.0069C92.5183 23.1482 93.2339 23.4823 93.3204 23.5253C93.2262 23.4152 92.3221 22.4373 91.5676 22.2248C90.7934 22.0086 89.8226 21.8751 88.9345 21.7965C89.4572 21.4431 89.63 21.0971 89.571 20.5C88.5806 21.4152 86.1756 21.2269 84.4425 21.0381C80.3671 20.5864 76.9523 19.1446 75.1524 19.3723C72.2207 19.7457 64.314 28.6595 61.5707 33.8019C58.0573 40.3939 58.4268 48.793 58.4268 48.793C58.4268 48.793 55.7113 43.2341 57.397 35.1258C57.8017 36.0095 58.4661 36.3948 58.8393 35.4518C59.5979 33.5505 60.4467 31.7471 61.3307 30.0657C60.4229 30.223 58.8078 30.5805 57.1848 31.3466C57.2753 31.2639 58.7529 29.9519 60.9968 29.2644C61.5863 29.0797 62.0815 28.6792 62.3879 28.1448C62.6984 27.6026 63.0126 27.0761 63.3231 26.5654C62.5371 26.6715 60.3443 27.0408 58.1397 28.0858C58.2613 27.9757 60.2423 26.2239 63.1621 25.5401C63.7672 25.3988 64.2899 25.0216 64.636 24.5069C65.0251 23.9136 65.4102 23.3558 65.7834 22.8296C65.2058 22.8964 62.553 23.2579 59.8925 24.5228C59.8925 24.5228 62.2581 22.3542 65.7678 21.6552C66.4007 21.5295 66.9742 21.1994 67.3674 20.6888C67.8585 20.0446 68.3067 19.4906 68.6839 19.0311C69.4541 18.0922 69.4934 16.7564 68.7663 15.7863C68.1887 15.0165 67.6345 14.2462 67.6345 14.1287C67.6345 13.885 70.0435 12.7065 70.0435 12.7065C70.0435 12.7065 72.8061 15.7077 74.9874 17.0631C76.3039 17.8801 80.7406 19.6834 84.2856 20.0802C85.7672 20.2412 89.2134 20.5516 88.8087 17.9157C88.6396 18.0766 88.447 18.226 88.2311 18.3555C87.8969 18.552 87.4647 18.4222 87.2996 18.0725C86.8281 17.0353 85.8536 14.7999 85.4604 13.0125C85.4055 12.7295 85.3543 12.0657 85.6017 12.042C85.8336 12.0145 86.3956 12.5841 86.4624 12.655C85.9749 11.9163 85.2716 11.0834 85.2716 11.0834C84.0378 9.57481 82.5365 8.27466 80.6853 7.22964C81.1728 8.32954 81.5145 9.69682 80.1233 9.58297C76.8025 9.31189 74.0636 7.43397 73.7884 7.2378C74.0321 7.37909 77.2781 8.97035 79.0858 8.9544C80.3552 8.94253 80.363 7.97243 79.9935 6.88031C79.9267 7.22593 79.6986 7.44992 79.243 7.454C77.8167 7.45808 75.9144 5.86311 74.3267 4.25627C71.7681 1.65931 70.4913 1.11344 70.4913 1.11344C71.7882 0.748166 74.6843 0.975861 75.6629 1.20393C76.0676 1.29441 76.433 1.45127 76.7672 1.64781C75.8435 0.787473 74.9083 0.386599 73.8748 0.210081C71.1712 -0.253464 65.9915 -0.00203618 64.8597 1.49058C65.8461 2.06426 66.7616 2.55933 67.646 3.10928C68.5697 3.68297 69.4734 4.28001 70.3536 4.91266C71.5404 5.77707 73.3403 7.5289 72.4915 8.40111C71.7173 9.19841 68.1097 7.74881 66.8128 8.09072L65.2214 9.75652L65.2136 9.7721C65.139 9.87815 65.08 9.97642 65.0288 10.0747L58.6193 11.5792C58.4071 11.6304 58.2183 11.7283 58.0573 11.8621C57.2557 11.7835 56.3991 11.7483 55.5188 11.7995C51.0112 12.0627 46.0162 13.7363 45.1047 14.125C42.1574 15.3821 40.0351 17.7588 38.9779 20.0098C38.6871 20.6306 38.3647 20.9053 37.5319 21.0196C36.5611 21.1531 35.174 21.212 34.6473 21.5343C34.5375 21.601 34.4035 21.7542 34.27 21.9348C33.771 22.6027 32.9809 22.9757 32.1559 22.9053L26.4812 22.4102C26.2453 22.3905 26.0687 22.2022 26.045 21.9704C26.0409 21.9114 26.0294 21.8525 26.0175 21.8013C25.9586 21.597 25.7976 21.5028 25.7423 21.4675C24.0563 20.3988 22.9048 18.4463 22.9404 16.4939C22.9445 16.1442 22.9207 15.4448 22.8384 15.2994C22.7245 15.1147 22.4177 15.0992 21.954 15.0009C20.5863 14.7024 17.702 14.1446 17.5054 14.168C13.607 14.6278 6.41915 15.4763 3.07492 15.8965C2.7685 15.9358 2.62308 16.2855 2.79966 16.5328C3.18472 17.0631 3.53454 17.5623 3.60132 17.6053C7.1852 19.7346 32.8277 34.5373 32.9063 34.6159C32.985 34.6945 32.8551 34.8555 32.6667 34.8555C32.6274 34.8555 32.1677 34.7179 31.4956 34.5058C31.48 34.5017 31.4603 34.498 31.4407 34.4902C30.537 34.3055 25.9192 34.9103 25.8525 34.9419C25.3965 35.1462 24.7247 36.1716 24.4102 36.5761C20.4449 33.9517 14.8567 33.7359 12.589 34.3252C12.0036 34.604 14.8957 34.4783 18.3583 35.7355C19.5056 36.156 22.1232 37.676 22.7204 38.8783C22.858 39.1178 22.398 38.8271 22.3354 38.78C18.4369 35.7236 13.1473 35.6253 9.11532 37.6879C2.80003 40.9131 0.273027 48.1733 0.0255944 53.846C-0.162855 58.2853 0.650301 63.3609 3.77085 66.7904C-0.363544 56.0732 3.92813 48.7703 5.78295 46.3073C5.87718 46.1856 8.1957 42.976 12.1769 42.0056C15.3364 41.2394 19.3016 42.0252 20.8304 44.8732L22.7442 44.657L21.0307 45.2856L15.6231 47.521C15.1516 47.7135 14.6367 47.7569 14.1415 47.6426C13.4304 47.4776 12.2945 47.3322 11.3122 47.7135C8.94245 48.6369 7.62219 51.0762 7.72829 53.6376C7.88929 57.5306 10.7858 58.1866 12.5894 57.6956C14.7707 57.0986 16.1499 55.1658 16.7627 53.1462C16.9946 52.3919 17.3522 52.0304 18.1108 51.8539C18.2407 51.8223 18.3664 51.7912 18.4959 51.7634C18.3308 52.7298 17.9302 54.1364 16.9475 55.6724C16.1024 56.9962 13.8863 58.3754 12.8327 58.5007C12.8327 58.5007 15.4147 58.8426 17.5132 55.8607C18.3304 54.6941 18.9006 53.3112 19.2697 52.1913C19.4073 51.7749 19.7531 51.4608 20.1815 51.3543C22.0486 50.9008 27.1449 49.588 30.4361 48.7659C30.3942 48.9027 30.379 48.9506 30.3333 49.0815C28.26 49.8254 25.4077 50.8337 24.3352 51.1934C23.597 51.4411 23.3881 51.6688 23.3332 52.4071C22.9912 56.7756 21.0028 60.1895 17.1634 62.3778C16.5424 62.7312 15.9099 63.0182 15.2729 63.2226C15.4302 63.1951 15.5834 63.1755 15.7329 63.1517C15.7604 63.144 15.7919 63.1362 15.8235 63.1321C17.482 62.7865 22.4333 61.223 23.9387 54.5758C23.9034 54.9099 23.18 60.2681 18.9399 62.6448C22.693 62.0437 25.9704 61.5093 29.0005 61.0343C29.6059 59.8873 30.0929 58.6928 30.4821 57.4435L35.8188 56.4615C34.2233 54.5406 33.6297 53.0987 33.5986 53.0242C35.8347 55.9627 39.6349 59.3336 40.8335 59.1842H40.8375C40.8375 59.1842 59.1821 56.1552 66.2089 54.9689C63.9805 47.752 66.5153 42.8692 66.6255 42.6608C65.2106 48.0116 66.6295 52.663 67.6356 54.7215C69.4277 58.4495 72.595 61.8872 77.2206 63.0698C93.8037 67.3281 107.601 46.7467 100.76 32.1602ZM84.1049 46.1808C85.9167 43.5212 86.4234 38.0999 83.1226 36.387C86.695 37.8759 86.3177 43.6665 84.4117 46.3811C83.3585 47.9408 81.6921 49.182 79.7902 49.41C77.9473 49.6537 75.8209 48.7303 75.1647 46.9195C75.9311 48.6283 77.9784 49.4297 79.7546 49.1508C81.5423 48.8601 83.1263 47.6856 84.1049 46.1808ZM73.3525 11.4097C77.0937 11.6571 82.0375 15.5034 82.2772 15.6918C82.1555 15.5505 80.1356 13.2795 78.579 12.3605C78.2173 12.1443 77.8675 11.9519 77.5377 11.775C78.9055 11.9912 80.1786 12.3327 80.8979 12.8671C83.189 14.564 84.6469 16.6975 85.378 17.9583C85.6451 18.4181 85.5472 18.9128 85.0164 18.858C81.7229 18.5279 79.9349 17.7421 77.5459 16.4616C74.3508 14.7446 71.8791 11.3901 71.8791 11.3901C71.8791 11.3901 72.4685 11.3823 73.3525 11.4097ZM11.8541 54.5606C10.9304 54.5684 10.3569 53.9635 10.341 52.9812C10.3135 51.6729 11.465 50.29 12.6124 50.247C13.4968 50.2118 14.1645 50.8559 14.2001 51.7871C14.2394 53.1384 13.0486 54.5528 11.8541 54.5606ZM58.4743 12.3487C58.761 12.2348 59.1031 12.4154 59.2329 12.7495C59.3664 13.0833 59.2407 13.4526 58.9498 13.5628C58.6631 13.6766 58.3211 13.5001 58.1912 13.1619C58.0577 12.8278 58.1834 12.4625 58.4743 12.3487ZM35.1855 22.7829C35.2798 22.5274 35.4055 22.2211 35.5276 22.1306C36.0384 21.7612 37.4217 21.6515 38.4712 21.6277C39.2335 21.604 39.5596 20.9951 39.8545 20.2961C40.3182 19.1962 41.3202 17.8604 42.6998 16.7015C44.4366 15.2442 46.0559 14.521 48.6103 13.8494C50.1313 13.4489 52.8508 12.7651 55.7117 12.6553C56.3954 12.6279 57.0127 12.6476 57.5706 12.6906C57.5391 12.8871 57.5509 13.0874 57.614 13.2876C57.6181 13.2995 57.6218 13.3114 57.6259 13.3191C57.8499 13.9792 58.5729 14.3289 59.2451 14.1561L66.138 12.3806C66.7942 12.2115 67.2305 11.528 67.0617 10.872C67.0617 10.8642 67.0576 10.8523 67.0539 10.8446C67.0027 10.6521 66.9044 10.4871 66.7787 10.3495L66.7827 10.3454C66.7827 10.3454 67.8515 11.0448 67.4664 12.227C67.3173 12.6947 66.9831 12.9068 66.3465 13.1308L65.8947 13.2606C65.7218 13.3117 65.6235 13.4923 65.6784 13.6651C65.6784 13.6651 65.6784 13.6688 65.6825 13.6688C65.7259 13.822 65.6394 13.9833 65.4899 14.0222C64.2324 14.3523 59.4143 15.6131 58.9035 15.8019C58.6048 15.912 58.1923 16.1475 57.8896 16.3281C57.6263 16.4891 57.308 16.5247 57.0171 16.4342C56.0504 16.1279 54.8637 15.7978 54.2623 15.8015C52.2502 15.8093 46.5912 17.4829 46.2377 17.589C46.6149 17.53 53.3861 16.4457 54.3647 16.9604C54.6752 17.1254 55.0406 17.4555 55.5043 17.6205C56.809 18.0762 56.2196 18.6303 55.9209 19.1802C54.2627 22.2289 52.274 26.3262 49.9477 28.0391C49.5073 28.3651 47.4288 27.3872 45.9157 26.1575L44.8072 25.3758C44.6106 25.2382 44.4103 25.1088 44.2022 24.9831C44.0883 24.9122 41.982 23.6354 40.2525 22.2333C40.5159 22.7321 40.8969 23.3058 41.3884 23.8283C40.9051 23.7103 40.4098 23.6239 39.9068 23.5809L35.4541 23.196C35.2486 23.1756 35.1188 22.9713 35.1855 22.7829ZM47.266 32.3449C44.0827 30.6283 43.3597 28.7229 43.3204 28.605C44.6329 29.8425 46.6294 30.8719 48.1581 31.5476C49.3174 32.0623 49.8794 32.7929 49.6357 34.5647C49.4391 35.9554 49.2822 37.0278 49.0618 38.5208C48.4408 42.7242 46.1772 46.433 42.6601 48.3224C41.6934 48.8449 40.6324 49.2261 39.4846 49.4419C44.6447 48.2319 47.5093 43.6866 48.0398 38.2456C48.2205 36.4267 48.311 35.4132 48.3384 34.4075C48.3666 33.5546 48.0168 32.7495 47.266 32.3449ZM17.1474 15.3105C17.3125 15.295 17.4264 15.1574 17.4383 14.9924C17.462 14.6586 17.6349 14.521 17.6349 14.521C17.6349 14.521 17.5918 15.1259 17.8196 15.1574C18.425 15.2319 21.2781 15.7741 22.0519 15.9235C22.1621 15.9473 22.2445 16.0415 22.2485 16.1594C22.2604 16.4657 22.2723 17.0512 22.2997 17.2867C22.5357 19.2981 23.4946 20.4844 24.5359 21.278C24.5359 21.278 23.4315 20.8223 20.0992 20.3862C19.6789 20.3313 18.9358 18.8264 18.3583 17.4792C17.9494 16.5165 16.9827 15.9117 15.9373 15.9588L5.32259 16.4342L17.1474 15.3105ZM33.9792 33.7237C33.6924 33.6725 9.32714 19.9189 7.44079 18.8465C9.33901 19.8366 33.4606 32.4194 34.0185 32.3961C35.17 31.6418 36.1879 31.367 36.1879 31.367C36.1879 31.367 35.0442 32.1836 33.9792 33.7237ZM41.5364 58.3201C39.6186 57.9037 37.3156 55.3501 37.1743 55.1892C37.3512 55.3227 40.3612 57.6211 42.1025 57.3656L63.1195 54.0774C64.2316 54.423 65.0963 54.4898 65.0963 54.4898L41.5364 58.3201ZM91.3554 50.2708C89.4965 53.4766 86.4468 56.1359 82.7646 56.9098C79.2787 57.7939 74.9169 57.3026 72.5943 54.2973C75.0779 57.0749 79.2475 57.4008 82.647 56.45C86.1919 55.5778 89.0409 53.091 90.8134 49.9563C94.3502 44.1264 95.0695 34.3051 87.8817 30.9813C95.5562 33.9792 94.9471 44.2717 91.3554 50.2708Z" fill="#00EDED"/>
<path d="M16.7922 65.1266C17.1958 65.1047 17.5356 65.1245 17.8117 65.1861C18.0917 65.2433 18.3044 65.3532 18.4496 65.5157C18.5988 65.6737 18.6812 65.8951 18.6967 66.1797C18.7059 66.3496 18.6868 66.5062 18.6392 66.6494C18.5916 66.7926 18.5171 66.9117 18.4158 67.0067C18.3187 67.1015 18.1965 67.1656 18.0492 67.1992L18.0509 67.2311C18.2055 67.2525 18.3464 67.2981 18.4738 67.3678C18.6012 67.4376 18.7049 67.5427 18.785 67.6832C18.8651 67.8237 18.9116 68.0129 18.9245 68.2508C18.9396 68.527 18.8846 68.7686 18.7595 68.9757C18.6385 69.1783 18.4555 69.3395 18.2106 69.4593C17.9656 69.575 17.671 69.6421 17.3268 69.6609L15.6254 69.7536L15.3776 65.2037L16.7922 65.1266ZM16.9988 66.9241C17.2792 66.9088 17.47 66.8537 17.5714 66.7587C17.677 66.6635 17.7252 66.5309 17.7159 66.361C17.7064 66.1868 17.6359 66.0649 17.5042 65.9954C17.3726 65.9259 17.1688 65.8986 16.8926 65.9137L16.3828 65.9415L16.438 66.9547L16.9988 66.9241ZM16.4797 67.7193L16.5443 68.9046L17.1751 68.8702C17.464 68.8545 17.6628 68.7883 17.7715 68.6716C17.8799 68.5506 17.9291 68.3967 17.9189 68.2098C17.9126 68.0951 17.8817 67.9966 17.8261 67.9144C17.7747 67.832 17.6883 67.7707 17.5668 67.7304C17.4453 67.6902 17.2826 67.6756 17.0787 67.6867L16.4797 67.7193ZM20.5903 65.9935L20.7799 69.4728L19.8304 69.5245L19.6408 66.0452L20.5903 65.9935ZM20.0445 64.6555C20.1847 64.6478 20.3076 64.6752 20.4133 64.7376C20.5187 64.7958 20.5763 64.9141 20.586 65.0925C20.5955 65.2667 20.5511 65.3906 20.4528 65.4641C20.3546 65.5376 20.2354 65.5782 20.0952 65.5858C19.9507 65.5937 19.8257 65.5664 19.72 65.504C19.6186 65.4414 19.5631 65.3229 19.5537 65.1488C19.5439 64.9703 19.5862 64.8466 19.6804 64.7776C19.7787 64.704 19.9 64.6633 20.0445 64.6555ZM22.5756 66.6906C22.5828 66.8223 22.5836 66.9543 22.578 67.0867C22.5765 67.2146 22.5729 67.3448 22.5674 67.4772L22.5801 67.4765C22.6193 67.4147 22.6586 67.3529 22.6978 67.2911C22.7413 67.2291 22.7848 67.1671 22.8283 67.1051C22.8718 67.043 22.9175 66.983 22.9655 66.925L23.8828 65.8141L24.9534 65.7558L23.6529 67.3413L25.2258 69.2306L24.1297 69.2903L23.0526 67.9365L22.6624 68.2837L22.7214 69.367L21.772 69.4187L21.5081 64.5757L22.4576 64.524L22.5756 66.6906ZM26.9643 65.5823C27.2872 65.5647 27.5667 65.6113 27.8028 65.722C28.0432 65.8324 28.2335 66.001 28.3736 66.2277C28.5138 66.4545 28.5931 66.7377 28.6117 67.0776L28.6367 67.5364L26.3936 67.6586C26.4167 67.9258 26.5067 68.1318 26.6637 68.2766C26.825 68.4212 27.0395 68.4862 27.3071 68.4717C27.5323 68.4594 27.735 68.427 27.9154 68.3746C28.0955 68.3179 28.2807 68.2375 28.4711 68.1334L28.511 68.8662C28.3457 68.9605 28.1685 69.0319 27.9794 69.0806C27.7948 69.1332 27.5687 69.1668 27.301 69.1814C26.9527 69.2004 26.6412 69.1535 26.3666 69.0406C26.0918 68.9235 25.8708 68.7374 25.7035 68.4823C25.5362 68.2273 25.4417 67.9001 25.4199 67.5007C25.3977 67.0929 25.4473 66.7515 25.5686 66.4764C25.694 66.1969 25.8762 65.9825 26.1152 65.8331C26.3542 65.6837 26.6372 65.6001 26.9643 65.5823ZM27.0075 66.2574C26.8248 66.2674 26.6751 66.3352 26.5584 66.4608C26.446 66.5863 26.3859 66.7749 26.3783 67.0267L27.7102 66.9541C27.7025 66.814 27.6702 66.69 27.6132 66.5823C27.5605 66.4744 27.4835 66.3913 27.3823 66.3329C27.2811 66.2745 27.1562 66.2493 27.0075 66.2574ZM31.2391 65.3494C31.2858 65.3469 31.3411 65.346 31.4051 65.3468C31.469 65.3475 31.5204 65.3511 31.5591 65.3576L31.5376 66.2535C31.5074 66.2466 31.4624 66.2427 31.4027 66.2417C31.347 66.2362 31.2979 66.2346 31.2554 66.2369C31.1322 66.2436 31.0142 66.2671 30.9014 66.3073C30.7883 66.3433 30.6869 66.3978 30.5971 66.4709C30.5116 66.5437 30.4444 66.639 30.3954 66.7567C30.3504 66.87 30.3324 67.0094 30.3415 67.1751L30.438 68.9466L29.4885 68.9983L29.299 65.519L30.019 65.4798L30.1912 66.0584L30.2358 66.056C30.2973 65.9333 30.3763 65.8204 30.473 65.7171C30.5696 65.6139 30.6821 65.5289 30.8106 65.4622C30.9433 65.3954 31.0861 65.3578 31.2391 65.3494Z" fill="#00EDED"/>
<path d="M34.9775 68.8847C34.867 68.8907 34.7603 68.888 34.6574 68.8765C34.559 68.8691 34.4707 68.8505 34.3924 68.8207C34.2791 68.7757 34.1581 68.7056 34.0294 68.6104C33.9004 68.5109 33.8093 68.4029 33.7561 68.2865C33.7123 68.1866 33.6882 68.0963 33.6838 68.0156C33.6757 67.8669 33.7112 67.7372 33.7904 67.6263C33.8736 67.511 33.9749 67.4139 34.0941 67.335C34.2174 67.2516 34.331 67.1857 34.4349 67.1374C34.4599 67.1276 34.4788 67.1223 34.4915 67.1216C34.5255 67.1197 34.5432 67.1315 34.5446 67.157C34.5462 67.1868 34.5304 67.2089 34.4971 67.2235C34.3974 67.2716 34.3015 67.3492 34.2094 67.4565C34.1172 67.5638 34.0428 67.6829 33.986 67.8138C33.9332 67.9402 33.9101 68.0629 33.9166 68.1819C33.9242 68.3221 33.986 68.4402 34.102 68.5361C34.2178 68.6278 34.4116 68.6662 34.6835 68.6514C34.8917 68.6401 35.1149 68.5917 35.3531 68.5063C35.5956 68.4206 35.8102 68.3323 35.997 68.2411C36.055 68.2124 36.1378 68.1674 36.2453 68.1062C36.3569 68.0447 36.4744 67.9722 36.5977 67.8888C36.7252 67.8052 36.844 67.7178 36.9541 67.6265C37.0682 67.5309 37.1592 67.4407 37.227 67.356C37.2988 67.2669 37.3329 67.1883 37.3292 67.1204C37.3255 67.0524 37.2845 67.0035 37.2062 66.9737C37.1276 66.9396 37.0306 66.9193 36.9152 66.9128C36.7996 66.9021 36.6823 66.9 36.5634 66.9064C36.4657 66.9118 36.3746 66.921 36.2901 66.9341C36.2098 66.947 36.1487 66.9589 36.1066 66.9697C36.0396 66.9904 35.9673 67.0327 35.8899 67.0965C35.8122 67.1562 35.7372 67.1879 35.665 67.1919C35.614 67.1946 35.5705 67.1778 35.5344 67.1415C35.4983 67.1051 35.4791 67.0656 35.4768 67.0232C35.4745 66.9807 35.4872 66.9395 35.5148 66.8997C35.5467 66.8596 35.6027 66.831 35.6827 66.8138C35.7627 66.7967 35.8559 66.7852 35.9621 66.7794C36.0723 66.7692 36.1669 66.747 36.246 66.7128C36.4085 66.6443 36.5703 66.5652 36.7316 66.4755C36.8972 66.3855 37.0491 66.2813 37.1876 66.163C37.3258 66.0404 37.4374 65.9001 37.5225 65.7421C37.5691 65.6586 37.5902 65.5765 37.5858 65.4958C37.5784 65.3598 37.4923 65.2644 37.3274 65.2095C37.1622 65.1503 36.9624 65.1186 36.7278 65.1143C36.6994 65.1414 36.6732 65.1684 36.6491 65.1953C36.6248 65.2179 36.6026 65.2404 36.5825 65.2628C36.478 65.3793 36.3539 65.5246 36.21 65.6986C36.0661 65.8726 35.9166 66.0618 35.7615 66.2663C35.6063 66.4665 35.4642 66.6745 35.3354 66.8903C35.2063 67.1018 35.1025 67.3077 35.0239 67.508C34.9453 67.7083 34.9106 67.8913 34.9196 68.0569C34.924 68.1377 34.9405 68.2071 34.9693 68.2652C34.9978 68.319 35.0587 68.3434 35.1522 68.3383L35.155 68.3893C35.1302 68.4034 35.1029 68.4113 35.0732 68.4129C35.001 68.4168 34.9357 68.3927 34.8775 68.3405C34.819 68.284 34.7728 68.2183 34.7389 68.1435C34.7048 68.0644 34.6861 67.9951 34.6829 67.9356C34.6752 67.7954 34.7026 67.632 34.7648 67.4454C34.8269 67.2546 34.9118 67.0539 35.0196 66.8435C35.1275 66.6331 35.2461 66.4243 35.3754 66.217C35.5087 66.0052 35.6427 65.8062 35.7775 65.6199C35.9122 65.4336 36.0354 65.2713 36.1472 65.1332C35.884 65.1518 35.6385 65.1801 35.4104 65.218C35.1822 65.2518 35.0196 65.2777 34.9225 65.2958C34.741 65.3269 34.5561 65.3732 34.3677 65.4346C34.1793 65.496 34.0042 65.5673 33.8425 65.6486C33.6847 65.7254 33.5571 65.8069 33.4595 65.8931C33.366 65.9749 33.3213 66.0541 33.3255 66.1305C33.3266 66.1518 33.3404 66.1702 33.3668 66.1858C33.3932 66.2014 33.4213 66.2084 33.4511 66.2068C33.4645 66.2188 33.4714 66.2291 33.4719 66.2376C33.4731 66.2588 33.45 66.2665 33.4028 66.2605C33.3557 66.2546 33.2947 66.2302 33.2199 66.1874C33.1492 66.1401 33.0843 66.084 33.0254 66.0191C32.9707 65.9539 32.942 65.8958 32.9392 65.8448C32.9346 65.7598 32.9791 65.6786 33.0729 65.601C33.1707 65.519 33.3008 65.4438 33.4633 65.3753C33.6297 65.3023 33.8159 65.2389 34.0217 65.185C34.2274 65.127 34.4378 65.0793 34.6531 65.042C34.8048 65.0124 34.9782 64.9881 35.1732 64.9689C35.3679 64.9455 35.5693 64.9282 35.7775 64.9168C35.9687 64.9064 36.1559 64.9026 36.3393 64.9054L36.3574 64.8852C36.3305 64.8611 36.3161 64.8321 36.3143 64.7981C36.3113 64.7429 36.336 64.6883 36.3885 64.6343C36.4449 64.5758 36.506 64.5235 36.5716 64.4773C36.6371 64.4269 36.6881 64.3857 36.7247 64.3539C36.7629 64.3518 36.8166 64.3596 36.8857 64.3771C36.9546 64.3904 37.0155 64.4126 37.0683 64.4439C37.1254 64.4748 37.1553 64.5158 37.1581 64.5668C37.1593 64.588 37.1563 64.6116 37.1492 64.6376C37.1343 64.6767 37.1027 64.7232 37.0545 64.777C37.0106 64.8305 36.9582 64.8866 36.8975 64.9453C37.0091 64.9605 37.1126 64.9826 37.2079 65.0115C37.3072 65.0359 37.3943 65.0695 37.4691 65.1123C37.5743 65.1662 37.6367 65.2182 37.6565 65.2682C37.6805 65.3181 37.6913 65.3601 37.6889 65.3943C37.6865 65.4285 37.6961 65.4472 37.7176 65.4503C37.7963 65.5653 37.8387 65.6801 37.845 65.7948C37.8524 65.9308 37.8101 66.0545 37.7182 66.1661C37.6303 66.2731 37.516 66.3646 37.3752 66.4404C37.2387 66.516 37.0972 66.577 36.9506 66.6233C36.804 66.6696 36.6778 66.6999 36.5721 66.7142C36.5551 66.7152 36.5469 66.722 36.5476 66.7347C36.5483 66.7475 36.5678 66.7528 36.606 66.7507C36.7122 66.7449 36.8318 66.7491 36.9646 66.7632C37.0975 66.7772 37.2144 66.8113 37.3153 66.8655C37.4203 66.9152 37.4779 66.9951 37.4882 67.1053C37.4848 67.1225 37.4966 67.1432 37.5235 67.1673C37.5544 67.1869 37.5835 67.213 37.6108 67.2456C37.6424 67.278 37.6596 67.3197 37.6624 67.3707C37.6642 67.4046 37.6537 67.4457 37.6308 67.4938C37.5225 67.6957 37.3606 67.892 37.1451 68.0827C36.9295 68.2691 36.6676 68.4283 36.3595 68.5601C36.2553 68.6041 36.1257 68.6495 35.9706 68.6963C35.8155 68.7431 35.6516 68.784 35.4788 68.819C35.3102 68.8537 35.1431 68.8756 34.9775 68.8847ZM38.4762 68.5918C38.3572 68.5983 38.2744 68.5644 38.2278 68.4903C38.1851 68.4117 38.168 68.3316 38.1763 68.2502C38.1873 68.1388 38.218 68.037 38.2683 67.9448C38.323 67.8524 38.3778 67.7642 38.4329 67.6802C38.4724 67.6227 38.4995 67.5743 38.5145 67.5351C38.5336 67.4958 38.5261 67.4749 38.4919 67.4725C38.4716 67.4906 38.4385 67.5095 38.3927 67.529C38.3469 67.5485 38.3006 67.5596 38.2539 67.5621C38.2156 67.5642 38.1791 67.5577 38.1442 67.5425C38.1093 67.5274 38.0843 67.4989 38.0692 67.4571C38.0304 67.5274 37.9935 67.5934 37.9585 67.6549C37.9233 67.7122 37.8901 67.7673 37.8589 67.8201C37.8 67.9128 37.7452 68.001 37.6944 68.0847C37.6433 68.1642 37.5759 68.2574 37.4923 68.3642C37.4644 68.3998 37.4377 68.4183 37.4122 68.4197C37.3867 68.4211 37.3732 68.4069 37.3715 68.3771C37.3706 68.3602 37.3761 68.3428 37.3879 68.3251C37.4791 68.2009 37.5543 68.0945 37.6134 68.0061C37.6722 67.9134 37.7409 67.8052 37.8194 67.6817C37.8974 67.5496 37.964 67.4032 38.0192 67.2426C38.0743 67.0819 38.1177 66.9389 38.1492 66.8137C38.1805 66.6841 38.1976 66.6065 38.2004 66.5808C38.3132 66.6172 38.3922 66.6598 38.4375 66.7085C38.487 66.7569 38.5133 66.8109 38.5166 66.8703C38.521 66.9511 38.4873 67.036 38.4154 67.1251C38.3478 67.214 38.2671 67.2972 38.1734 67.3748C38.2146 67.4279 38.2607 67.4531 38.3117 67.4503C38.3669 67.4473 38.4209 67.4209 38.4736 67.3712C38.5305 67.3212 38.573 67.2806 38.6011 67.2492C38.6645 67.1605 38.7365 67.114 38.8172 67.1096C38.864 67.1071 38.9051 67.1197 38.9407 67.1476C38.9804 67.171 39.0013 67.204 39.0036 67.2465C39.0048 67.2677 38.9996 67.2893 38.988 67.3112C38.9289 67.3997 38.8623 67.5077 38.7883 67.6353C38.7143 67.7629 38.6467 67.8901 38.5854 68.017C38.5282 68.1394 38.487 68.2439 38.4619 68.3305C38.4586 68.3478 38.4552 68.3629 38.4516 68.3758C38.4521 68.3843 38.4525 68.3928 38.453 68.4013C38.4548 68.4353 38.4706 68.4515 38.5004 68.4499C38.5216 68.4487 38.5466 68.4388 38.5755 68.4202C38.6043 68.4016 38.6267 68.3833 38.6428 68.3654C38.7155 68.2933 38.8053 68.1819 38.9122 68.0312C39.019 67.8805 39.1177 67.7366 39.2082 67.5996C39.2631 67.5114 39.3011 67.4667 39.3224 67.4656C39.3436 67.4644 39.3451 67.492 39.3269 67.5484C39.3129 67.6046 39.2845 67.67 39.2417 67.7448C39.1828 67.8375 39.1144 67.9499 39.0364 68.0819C38.9624 68.2095 38.877 68.325 38.7804 68.4282C38.688 68.5313 38.5866 68.5858 38.4762 68.5918ZM39.6355 68.5414C39.4953 68.5491 39.3758 68.5066 39.277 68.414C39.1825 68.3211 39.1308 68.194 39.122 68.0325C39.1146 67.8966 39.1391 67.7589 39.1954 67.6195C39.2515 67.4758 39.315 67.3509 39.3859 67.2448C39.4925 67.0899 39.6173 66.9574 39.7605 66.8473C39.9079 66.737 40.0474 66.6783 40.1791 66.6711C40.2258 66.6686 40.2698 66.6939 40.3111 66.747C40.3563 66.7957 40.4132 66.8224 40.4816 66.8272C40.4988 66.8305 40.5162 66.836 40.5336 66.8435C40.5551 66.8466 40.5774 66.8646 40.6005 66.8974C40.6608 66.9879 40.6938 67.0862 40.6996 67.1924C40.7082 67.3496 40.6665 67.5223 40.5745 67.7105C40.4867 67.8985 40.366 68.0691 40.2125 68.2224C40.1357 68.299 40.0479 68.3698 39.9492 68.4349C39.8505 68.4999 39.7459 68.5354 39.6355 68.5414ZM39.6413 68.4133C39.7432 68.4077 39.8494 68.3615 39.9597 68.2745C40.0697 68.1833 40.1703 68.0734 40.2613 67.9449C40.3563 67.8119 40.4299 67.6779 40.4822 67.543C40.5386 67.4036 40.5639 67.2829 40.5584 67.1809C40.554 67.1002 40.5316 67.0418 40.4913 67.0056C40.4508 66.9652 40.4008 66.9467 40.3413 66.9499C40.2351 66.9557 40.1296 67.0147 40.025 67.1269C39.9203 67.2391 39.8186 67.3661 39.7198 67.5078C39.6328 67.6319 39.5567 67.7596 39.4914 67.891C39.4304 68.0221 39.4024 68.1344 39.4075 68.2279C39.4112 68.2959 39.4373 68.3456 39.4859 68.377C39.5343 68.4042 39.586 68.4163 39.6413 68.4133ZM41.2402 68.3581C41.134 68.3639 41.0372 68.3458 40.9497 68.3037C40.8619 68.2573 40.8151 68.181 40.8094 68.0748C40.8073 68.0366 40.8115 67.9959 40.8219 67.9527C40.8356 67.8923 40.8569 67.8528 40.8857 67.8342C40.9186 67.8111 40.9337 67.8145 40.931 67.8445C40.9249 67.8874 40.9354 67.9252 40.9628 67.9578C40.9901 67.9904 41.0256 68.0162 41.0692 68.0351C41.1214 68.0536 41.1644 68.0619 41.1984 68.06C41.2834 68.0554 41.3581 68.0194 41.4226 67.9519C41.4911 67.88 41.5233 67.8058 41.5191 67.7294C41.5164 67.6784 41.4992 67.6367 41.4676 67.6044C41.4127 67.5349 41.3523 67.4828 41.2865 67.448C41.2247 67.4088 41.1748 67.3519 41.1366 67.2773L41.1309 67.2903C41.1006 67.3602 41.0659 67.426 41.0266 67.4878C40.9914 67.5451 40.9582 67.6001 40.927 67.653C40.8681 67.7457 40.8112 67.834 40.7561 67.9179C40.705 67.9974 40.6377 68.0906 40.554 68.1974C40.5261 68.233 40.4994 68.2515 40.4739 68.2529C40.4484 68.2543 40.4349 68.2401 40.4333 68.2104C40.4323 68.1934 40.4378 68.176 40.4496 68.1583C40.5408 68.0341 40.616 67.9277 40.6751 67.8393C40.7382 67.7464 40.8069 67.6382 40.8811 67.5149C40.9204 67.4531 40.9593 67.3849 40.9978 67.3104C41.0404 67.2314 41.0704 67.1573 41.088 67.0882C41.0763 66.9525 41.1145 66.8332 41.2027 66.7304C41.2906 66.6233 41.4011 66.5406 41.5343 66.4822C41.6675 66.4239 41.7938 66.3957 41.9132 66.3977C41.9429 66.3961 41.9739 66.4178 42.0062 66.4629C42.0427 66.5078 42.073 66.5552 42.097 66.605C42.1251 66.6503 42.1414 66.6771 42.1461 66.6854L42.1468 66.6981C42.1475 66.7109 42.1417 66.7218 42.1295 66.731C42.1214 66.74 42.1063 66.7366 42.0842 66.7207C42.0712 66.7172 42.0498 66.7162 42.0201 66.7178C41.9564 66.7213 41.8806 66.7382 41.7928 66.7686C41.7047 66.7947 41.6172 66.8314 41.5303 66.8787C41.4477 66.9258 41.3801 66.9764 41.3277 67.0304C41.2752 67.0844 41.2549 67.1409 41.2666 67.1999C41.2781 67.2546 41.3038 67.2958 41.3436 67.3235C41.3835 67.3512 41.4321 67.3826 41.4894 67.4178C41.5465 67.4488 41.6088 67.4987 41.6765 67.5674C41.7623 67.6565 41.8079 67.7499 41.8132 67.8476C41.8178 67.9325 41.7945 68.0126 41.7432 68.0879C41.6917 68.1588 41.6288 68.2177 41.5547 68.2643C41.4682 68.3201 41.3634 68.3514 41.2402 68.3581Z" fill="#007D8D"/>
</svg>
