<svg width="24" height="25" viewBox="0 0 24 25" fill="none" xmlns="http://www.w3.org/2000/svg">
<g clip-path="url(#clip0_19218_1061)">
<path d="M17.6719 11.8438C14.1825 11.8438 11.3438 14.6825 11.3438 18.1719C11.3438 21.6613 14.1825 24.5 17.6719 24.5C21.1613 24.5 24 21.6613 24 18.1719C24 14.6825 21.1613 11.8438 17.6719 11.8438ZM20.4844 18.875H17.6719C17.2833 18.875 16.9688 18.5605 16.9688 18.1719V15.3594C16.9688 14.9708 17.2833 14.6562 17.6719 14.6562C18.0605 14.6562 18.375 14.9708 18.375 15.3594V17.4688H20.4844C20.873 17.4688 21.1875 17.7833 21.1875 18.1719C21.1875 18.5605 20.873 18.875 20.4844 18.875ZM22.5469 2.65625C22.5469 2.26241 22.2376 1.95312 21.8438 1.95312H18.3281V4.0625C18.3281 4.45616 18.0188 4.76562 17.625 4.76562C17.2312 4.76562 16.9219 4.45616 16.9219 4.0625V1.95312H14.1094V4.0625C14.1094 4.45616 13.8001 4.76562 13.4062 4.76562C13.0124 4.76562 12.7031 4.45616 12.7031 4.0625V1.95312H9.89062V4.0625C9.89062 4.45616 9.58134 4.76562 9.1875 4.76562C8.79366 4.76562 8.48438 4.45616 8.48438 4.0625V1.95312H5.67188V4.0625C5.67188 4.45616 5.36259 4.76562 4.96875 4.76562C4.57491 4.76562 4.26562 4.45616 4.26562 4.0625V1.95312H0.703125C0.309281 1.95312 0 2.26241 0 2.65625V6.17188H22.5469V2.65625Z" fill="white"/>
<path d="M10.5938 14.6094H10.7626C11.0193 14.1106 11.309 13.6318 11.6634 13.2031H10.5938C10.2052 13.2031 9.89062 12.8886 9.89062 12.5C9.89062 12.1114 10.2052 11.7969 10.5938 11.7969H12C12.288 11.7969 12.5339 11.9706 12.6427 12.2184C13.9898 11.0804 15.7275 10.3906 17.625 10.3906H16.2188C15.8302 10.3906 15.5156 10.0761 15.5156 9.6875C15.5156 9.29891 15.8302 8.98438 16.2188 8.98438H17.625C18.0136 8.98438 18.3281 9.29891 18.3281 9.6875C18.3281 10.0761 18.0136 10.3906 17.625 10.3906C19.4932 10.3906 21.2087 11.0567 22.5469 12.1634V7.57812H0V20.9375C0 21.3261 0.314531 21.6406 0.703125 21.6406H10.7445C10.2026 20.5845 9.89062 19.3914 9.89062 18.125C9.89062 17.351 10.0294 16.6135 10.242 15.908C10.0357 15.7855 9.89062 15.5701 9.89062 15.3125C9.89062 14.9239 10.2052 14.6094 10.5938 14.6094ZM10.5938 8.98438H12C12.3886 8.98438 12.7031 9.29891 12.7031 9.6875C12.7031 10.0761 12.3886 10.3906 12 10.3906H10.5938C10.2052 10.3906 9.89062 10.0761 9.89062 9.6875C9.89062 9.29891 10.2052 8.98438 10.5938 8.98438ZM6.375 18.8281H4.96875C4.58016 18.8281 4.26562 18.5136 4.26562 18.125C4.26562 17.7364 4.58016 17.4219 4.96875 17.4219H6.375C6.76359 17.4219 7.07812 17.7364 7.07812 18.125C7.07812 18.5136 6.76359 18.8281 6.375 18.8281ZM6.375 16.0156H4.96875C4.58016 16.0156 4.26562 15.7011 4.26562 15.3125C4.26562 14.9239 4.58016 14.6094 4.96875 14.6094H6.375C6.76359 14.6094 7.07812 14.9239 7.07812 15.3125C7.07812 15.7011 6.76359 16.0156 6.375 16.0156ZM6.375 13.2031H4.96875C4.58016 13.2031 4.26562 12.8886 4.26562 12.5C4.26562 12.1114 4.58016 11.7969 4.96875 11.7969H6.375C6.76359 11.7969 7.07812 12.1114 7.07812 12.5C7.07812 12.8886 6.76359 13.2031 6.375 13.2031ZM6.375 10.3906H4.96875C4.58016 10.3906 4.26562 10.0761 4.26562 9.6875C4.26562 9.29891 4.58016 8.98438 4.96875 8.98438H6.375C6.76359 8.98438 7.07812 9.29891 7.07812 9.6875C7.07812 10.0761 6.76359 10.3906 6.375 10.3906ZM5.67188 1.20312C5.67188 0.809281 5.36259 0.5 4.96875 0.5C4.57491 0.5 4.26562 0.809281 4.26562 1.20312V1.95312H5.67188V1.20312ZM9.89062 1.20312C9.89062 0.809281 9.58134 0.5 9.1875 0.5C8.79366 0.5 8.48438 0.809281 8.48438 1.20312V1.95312H9.89062V1.20312ZM14.1094 1.20312C14.1094 0.809281 13.8001 0.5 13.4062 0.5C13.0124 0.5 12.7031 0.809281 12.7031 1.20312V1.95312H14.1094V1.20312ZM18.3281 1.20312C18.3281 0.809281 18.0188 0.5 17.625 0.5C17.2312 0.5 16.9219 0.809281 16.9219 1.20312V1.95312H18.3281V1.20312Z" fill="white"/>
</g>
<defs>
<clipPath id="clip0_19218_1061">
<rect width="24" height="24" fill="white" transform="translate(0 0.5)"/>
</clipPath>
</defs>
</svg>
