<svg width="24" height="24" viewBox="0 0 24 24" fill="none" xmlns="http://www.w3.org/2000/svg">
<g clip-path="url(#clip0_19020_443)">
<path d="M12 24C18.6274 24 24 18.6274 24 12C24 5.37258 18.6274 0 12 0C5.37258 0 0 5.37258 0 12C0 18.6274 5.37258 24 12 24Z" fill="#FFB703"/>
<path d="M12 20.6133C16.757 20.6133 20.6133 16.757 20.6133 12C20.6133 7.24302 16.757 3.38672 12 3.38672C7.24302 3.38672 3.38672 7.24302 3.38672 12C3.38672 16.757 7.24302 20.6133 12 20.6133Z" fill="#FFCC29"/>
<path d="M12 20.6133C16.757 20.6133 20.6133 16.757 20.6133 12C20.6133 7.24302 16.757 3.38672 12 3.38672C7.24302 3.38672 3.38672 7.24302 3.38672 12C3.38672 16.757 7.24302 20.6133 12 20.6133Z" fill="#FFB703" stroke="#F99300" stroke-width="1.2625" stroke-miterlimit="10"/>
<path d="M15.9988 21.9629C17.9678 21.1659 19.654 19.7991 20.8411 18.0376C22.0283 16.2761 22.6624 14.2002 22.6621 12.076M6.66834 2.76571C8.28844 1.82775 10.1279 1.33514 11.9999 1.3379L6.66834 2.76571ZM3.036 6.22321C3.55529 5.41878 4.18025 4.68772 4.89412 4.04962L3.036 6.22321ZM2.63522 17.102C1.78143 15.5372 1.33523 13.7827 1.33772 12.0001L2.63522 17.102Z" fill="#FFB703"/>
<path d="M15.9988 21.9629C17.9678 21.1659 19.654 19.7991 20.8411 18.0376C22.0283 16.2761 22.6624 14.2002 22.6621 12.076M6.66834 2.76571C8.28844 1.82775 10.1279 1.33514 11.9999 1.3379M3.036 6.22321C3.55529 5.41878 4.18025 4.68772 4.89412 4.04962M2.63522 17.102C1.78143 15.5372 1.33523 13.7827 1.33772 12.0001" stroke="#FFCC29" stroke-width="0.757422" stroke-miterlimit="10" stroke-linecap="round"/>
<path d="M14.2279 11.1408L12.1256 8.09815C12.1116 8.07775 12.0928 8.06106 12.0709 8.04953C12.049 8.03801 12.0247 8.03198 11.9999 8.03198C11.9752 8.03198 11.9508 8.03801 11.9289 8.04953C11.9071 8.06106 11.8883 8.07775 11.8743 8.09815L9.77197 11.1408C9.75183 11.1702 9.72208 11.1916 9.68785 11.2013C9.65362 11.2111 9.61705 11.2086 9.58447 11.1942L6.60134 9.86908C6.57471 9.85738 6.5453 9.8535 6.51654 9.8579C6.48778 9.86229 6.46087 9.87478 6.43894 9.8939C6.41702 9.91303 6.40099 9.93799 6.39273 9.96589C6.38446 9.99378 6.38431 10.0234 6.39228 10.0514L8.12197 15.9746C8.1312 16.0063 8.1505 16.0342 8.17696 16.0541C8.20342 16.074 8.2356 16.0847 8.26869 16.0847H15.7317C15.7647 16.0847 15.7969 16.074 15.8234 16.0541C15.8498 16.0342 15.8691 16.0063 15.8784 15.9746L17.6081 10.0514C17.616 10.0234 17.6159 9.99378 17.6076 9.96589C17.5994 9.93799 17.5833 9.91303 17.5614 9.8939C17.5395 9.87478 17.5126 9.86229 17.4838 9.8579C17.4551 9.8535 17.4256 9.85738 17.399 9.86908L14.4159 11.1942C14.3832 11.2084 14.3466 11.2108 14.3123 11.2011C14.2781 11.1914 14.2482 11.17 14.2279 11.1408Z" fill="#F99300"/>
</g>
<defs>
<clipPath id="clip0_19020_443">
<rect width="24" height="24" fill="white"/>
</clipPath>
</defs>
</svg>
