<svg width="30" height="37" viewBox="0 0 30 37" fill="none" xmlns="http://www.w3.org/2000/svg">
<path d="M15 0C22.875 0 30 5.94461 30 15.1385C30 21.2677 24.9937 28.5231 15 36.9231C5.00625 28.5231 0 21.2677 0 15.1385C0 5.94461 7.125 0 15 0ZM26.25 15.1385C26.25 8.43692 21.2812 3.69231 15 3.69231C8.71875 3.69231 3.75 8.43692 3.75 15.1385C3.75 19.4585 7.40625 25.1815 15 32.0123C22.5938 25.1815 26.25 19.4585 26.25 15.1385ZM15 18.4615C12.9375 18.4615 11.25 16.8 11.25 14.7692C11.25 12.7385 12.9375 11.0769 15 11.0769C17.0625 11.0769 18.75 12.7385 18.75 14.7692C18.75 16.8 17.0625 18.4615 15 18.4615Z" fill="#4CAF50"/>
</svg>
