<svg width="24" height="25" viewBox="0 0 24 25" fill="none" xmlns="http://www.w3.org/2000/svg">
<path d="M16.1208 5.79711C14.7844 5.79847 13.5031 6.32996 12.5582 7.27494C11.6132 8.21991 11.0817 9.50118 11.0803 10.8376C11.0803 13.516 15.6741 20.1929 15.8677 20.476C15.8961 20.5169 15.934 20.5503 15.9781 20.5734C16.0222 20.5965 16.0713 20.6085 16.121 20.6085C16.1708 20.6085 16.2199 20.5965 16.264 20.5734C16.3081 20.5503 16.346 20.5169 16.3744 20.476C16.5699 20.1948 21.1603 13.516 21.1603 10.8376C21.1591 9.50131 20.6278 8.22011 19.683 7.27513C18.7382 6.33015 17.4571 5.7986 16.1208 5.79711ZM17.9958 9.72477C17.9958 10.0956 17.8858 10.4581 17.6798 10.7665C17.4738 11.0748 17.181 11.3151 16.8383 11.457C16.4957 11.599 16.1187 11.6361 15.755 11.5637C15.3913 11.4914 15.0572 11.3128 14.795 11.0506C14.5328 10.7884 14.3542 10.4543 14.2818 10.0906C14.2095 9.72685 14.2466 9.34985 14.3885 9.00723C14.5305 8.66462 14.7708 8.37179 15.0791 8.16576C15.3875 7.95973 15.75 7.84977 16.1208 7.84977C16.367 7.84989 16.6108 7.89851 16.8383 7.99285C17.0657 8.08719 17.2723 8.22541 17.4464 8.3996C17.6204 8.5738 17.7584 8.78057 17.8525 9.0081C17.9466 9.23563 17.995 9.47947 17.9949 9.7257L17.9958 9.72477ZM13.4438 21.1079C11.1938 21.1079 5.00628 20.9541 3.3291 19.3065C3.00425 18.9877 2.83972 18.6235 2.83972 18.2232C2.83972 16.7701 4.76675 16.3346 6.6305 15.9146C8.09113 15.5865 9.74675 15.2115 9.74675 14.468C9.74675 13.973 8.21722 13.4738 6.84472 13.3351C6.78436 13.3289 6.72581 13.3109 6.6724 13.2822C6.619 13.2534 6.57178 13.2143 6.53346 13.1673C6.49513 13.1203 6.46644 13.0662 6.44903 13.008C6.43162 12.9499 6.42583 12.889 6.43199 12.8286C6.43814 12.7682 6.45613 12.7097 6.48491 12.6563C6.5137 12.6029 6.55272 12.5557 6.59975 12.5173C6.64678 12.479 6.7009 12.4503 6.75902 12.4329C6.81714 12.4155 6.87811 12.4097 6.93847 12.4159C7.56144 12.4782 10.6716 12.871 10.6716 14.468C10.6716 15.9512 8.7216 16.3899 6.83488 16.8155C5.39628 17.1399 3.76457 17.5074 3.76457 18.2218C3.76457 18.3155 3.78707 18.4585 3.97738 18.6437C5.39066 20.0359 11.8125 20.2252 14.168 20.1779C14.2886 20.1785 14.4041 20.2262 14.49 20.3109C14.5759 20.3955 14.6253 20.5104 14.6277 20.6309C14.6301 20.7515 14.5853 20.8682 14.5028 20.9562C14.4203 21.0441 14.3067 21.0964 14.1863 21.1018C14.0625 21.1041 13.8024 21.1079 13.4438 21.1079ZM6.1041 3.89258C5.37995 3.89332 4.68566 4.18125 4.17352 4.69322C3.66138 5.20518 3.37321 5.89937 3.37222 6.62352C3.37222 8.01805 5.59738 11.2773 5.85097 11.6443C5.87918 11.6854 5.91697 11.719 5.96107 11.7422C6.00517 11.7654 6.05426 11.7776 6.1041 11.7776C6.15394 11.7776 6.20303 11.7654 6.24713 11.7422C6.29123 11.719 6.32901 11.6854 6.35722 11.6443C6.61128 11.2773 8.83503 8.01758 8.83503 6.62352C8.83429 5.89945 8.54633 5.20526 8.03434 4.69327C7.52235 4.18128 6.82816 3.89332 6.1041 3.89258ZM6.1041 7.11758C5.89383 7.11767 5.68826 7.05541 5.51338 6.93867C5.3385 6.82193 5.20216 6.65595 5.12161 6.46173C5.04106 6.2675 5.01991 6.05375 5.06084 5.84751C5.10177 5.64126 5.20294 5.45179 5.35155 5.30304C5.50017 5.1543 5.68955 5.05296 5.89576 5.01185C6.10197 4.97074 6.31574 4.99169 6.51003 5.07207C6.70433 5.15245 6.87043 5.28864 6.98732 5.46342C7.10422 5.6382 7.16666 5.84372 7.16675 6.05398C7.16675 6.3359 7.05482 6.60629 6.85556 6.80573C6.65631 7.00516 6.38602 7.11733 6.1041 7.11758Z" fill="white"/>
</svg>
