<svg width="24" height="24" viewBox="0 0 24 24" fill="none" xmlns="http://www.w3.org/2000/svg">
<path d="M10.009 10.75C10.8496 10.75 11.6713 10.5007 12.3702 10.0337C13.0691 9.56675 13.6138 8.90299 13.9355 8.12641C14.2572 7.34982 14.3413 6.49529 14.1773 5.67087C14.0134 4.84645 13.6086 4.08917 13.0142 3.4948C12.4198 2.90042 11.6626 2.49565 10.8381 2.33166C10.0137 2.16768 9.15918 2.25184 8.3826 2.57351C7.60601 2.89519 6.94225 3.43992 6.47525 4.13883C6.00826 4.83774 5.759 5.65943 5.759 6.5C5.76032 7.62677 6.20851 8.707 7.00526 9.50374C7.802 10.3005 8.88224 10.7487 10.009 10.75ZM10.009 3.75C10.5529 3.75 11.0846 3.91129 11.5368 4.21346C11.9891 4.51563 12.3415 4.94513 12.5497 5.44762C12.7578 5.95012 12.8123 6.50305 12.7062 7.0365C12.6 7.56995 12.3381 8.05995 11.9535 8.44455C11.5689 8.82914 11.0789 9.09105 10.5455 9.19716C10.0121 9.30327 9.45912 9.24881 8.95662 9.04067C8.45412 8.83253 8.02463 8.48005 7.72246 8.02782C7.42028 7.57558 7.259 7.0439 7.259 6.5C7.25979 5.7709 7.54978 5.07189 8.06533 4.55634C8.58089 4.04078 9.2799 3.7508 10.009 3.75ZM3.75 18.02C3.75 19.583 4.423 20.25 6 20.25H10C10.1989 20.25 10.3897 20.329 10.5303 20.4697C10.671 20.6103 10.75 20.8011 10.75 21C10.75 21.1989 10.671 21.3897 10.5303 21.5303C10.3897 21.671 10.1989 21.75 10 21.75H6C3.582 21.75 2.25 20.425 2.25 18.02C2.25 15.358 3.756 12.25 8 12.25H12C12.7706 12.2366 13.5373 12.3612 14.264 12.618C14.4364 12.6973 14.5723 12.839 14.6443 13.0146C14.7163 13.1901 14.7192 13.3864 14.6522 13.564C14.5852 13.7415 14.4535 13.8871 14.2835 13.9713C14.1135 14.0556 13.9178 14.0723 13.736 14.018C13.1779 13.826 12.59 13.7352 12 13.75H8C7.42893 13.706 6.85512 13.7864 6.31816 13.9857C5.7812 14.185 5.29388 14.4985 4.88983 14.9044C4.48578 15.3104 4.17462 15.7992 3.97783 16.3371C3.78105 16.875 3.70331 17.4492 3.75 18.02ZM22.237 13.876L21.123 12.763C20.9611 12.5998 20.7684 12.4703 20.556 12.3823C20.3437 12.2942 20.1159 12.2492 19.886 12.25C19.6558 12.2495 19.4278 12.2948 19.2153 12.3832C19.0028 12.4716 18.8099 12.6014 18.648 12.765L12.471 18.971C12.4014 19.0404 12.3462 19.1228 12.3087 19.2136C12.2711 19.3044 12.2518 19.4017 12.252 19.5V22C12.252 22.1989 12.331 22.3897 12.4717 22.5303C12.6123 22.671 12.8031 22.75 13.002 22.75H15.502C15.7001 22.7498 15.8902 22.6714 16.031 22.532L22.231 16.354C22.3942 16.1916 22.5237 15.9985 22.6121 15.7859C22.7005 15.5733 22.746 15.3453 22.746 15.115C22.746 14.8847 22.7005 14.6568 22.6121 14.4441C22.5237 14.2315 22.3942 14.0384 22.231 13.876H22.237ZM15.19 21.25H13.75V19.81L17.872 15.669L19.331 17.128L15.19 21.25ZM21.176 15.291L20.394 16.07L18.931 14.606L19.71 13.823C19.733 13.7998 19.7605 13.7814 19.7907 13.7688C19.8209 13.7563 19.8533 13.7499 19.886 13.75C19.9523 13.7501 20.0159 13.7763 20.063 13.823L21.177 14.937C21.2004 14.9599 21.2188 14.9873 21.2314 15.0176C21.2439 15.0478 21.2503 15.0803 21.25 15.113C21.2501 15.1461 21.2435 15.1789 21.2308 15.2094C21.2181 15.24 21.1995 15.2677 21.176 15.291Z" fill="white"/>
</svg>
