<svg width="24" height="25" viewBox="0 0 24 25" fill="none" xmlns="http://www.w3.org/2000/svg">
<g clip-path="url(#clip0_19218_1072)">
<path d="M22.7366 9.42908L15.0705 1.76335C13.4542 0.0788376 10.5457 0.0789313 8.92949 1.76335L1.26338 9.42908C-0.421038 11.0451 -0.421132 13.9543 1.26338 15.5705L8.92949 23.2362C10.5463 24.9212 13.4537 24.9211 15.0705 23.2362L22.7366 15.5705C24.4211 13.9544 24.4211 11.0452 22.7366 9.42908ZM7.7294 11.7963C8.66197 11.831 8.66127 13.1693 7.7294 13.2036H6.67439V14.0573H8.23173C9.16431 14.0919 9.1636 15.4302 8.23173 15.4645H5.97077C5.58219 15.4645 5.26715 15.1495 5.26715 14.7609V10.239C5.26715 9.85041 5.58219 9.53537 5.97077 9.53537H8.23173C9.16431 9.56999 9.1636 10.9083 8.23173 10.9426H6.67439V11.7963H7.7294ZM14.2109 14.761C14.2109 14.912 14.1623 15.059 14.0723 15.1802C13.9823 15.3015 13.8557 15.3906 13.7112 15.4343C13.5667 15.4781 13.4119 15.4742 13.2698 15.4232C13.1277 15.3722 13.0057 15.2769 12.9219 15.1512L11.1963 12.5629V14.7609C11.1617 15.6935 9.82336 15.6928 9.78907 14.7609V10.239C9.78909 10.088 9.83768 9.941 9.92768 9.81974C10.0177 9.69849 10.1443 9.6094 10.2888 9.56564C10.4333 9.52188 10.5881 9.52578 10.7302 9.57676C10.8724 9.62774 10.9943 9.72309 11.0781 9.84872L12.8037 12.4371V10.239C12.8383 9.30642 14.1767 9.30712 14.2109 10.239V14.761ZM16.522 15.4646H16.1451C15.7565 15.4646 15.4415 15.1495 15.4415 14.761V10.239C15.4415 9.85045 15.7565 9.53542 16.1451 9.53542H16.522C20.4504 9.68487 20.4474 15.3165 16.522 15.4646Z" fill="white"/>
<path d="M16.8487 10.9775V14.0233C18.4795 13.6511 18.4783 11.3491 16.8487 10.9775Z" fill="white"/>
</g>
<defs>
<clipPath id="clip0_19218_1072">
<rect width="24" height="24" fill="white" transform="translate(0 0.5)"/>
</clipPath>
</defs>
</svg>
