<svg width="24" height="24" viewBox="0 0 24 24" fill="none" xmlns="http://www.w3.org/2000/svg">
<path d="M20.5355 12.8121H18.6794C18.8686 13.33 18.972 13.889 18.972 14.4716V21.4865C18.972 21.7294 18.9297 21.9625 18.8527 22.1794H21.9212C23.0675 22.1794 24 21.2468 24 20.1006V16.2765C24 14.3662 22.4458 12.8121 20.5355 12.8121ZM5.02805 14.4717C5.02805 13.889 5.13141 13.3301 5.32059 12.8121H3.46453C1.55419 12.8121 0 14.3663 0 16.2766V20.1007C0 21.2469 0.932484 22.1795 2.07872 22.1795H5.14725C5.06827 21.957 5.02796 21.7226 5.02805 21.4865V14.4717ZM14.1216 11.0071H9.87839C7.96805 11.0071 6.41386 12.5613 6.41386 14.4717V21.4865C6.41386 21.8691 6.72408 22.1794 7.10677 22.1794H16.8932C17.2759 22.1794 17.5861 21.8692 17.5861 21.4865V14.4717C17.5861 12.5613 16.032 11.0071 14.1216 11.0071ZM12 1.8208C9.70256 1.8208 7.83347 3.68989 7.83347 5.98738C7.83347 7.54574 8.69358 8.90675 9.9638 9.62132C10.5663 9.96022 11.2609 10.1539 12 10.1539C12.7391 10.1539 13.4337 9.96022 14.0362 9.62132C15.3065 8.90675 16.1665 7.54569 16.1665 5.98738C16.1665 3.68994 14.2974 1.8208 12 1.8208ZM4.68366 5.70435C2.96545 5.70435 1.56764 7.10216 1.56764 8.82036C1.56764 10.5386 2.96545 11.9364 4.68366 11.9364C5.10589 11.9367 5.52374 11.8508 5.91155 11.6838C6.56339 11.4032 7.10086 10.9064 7.43344 10.2841C7.67436 9.83388 7.80018 9.33102 7.79967 8.82036C7.79967 7.10221 6.40186 5.70435 4.68366 5.70435ZM19.3163 5.70435C17.5981 5.70435 16.2003 7.10216 16.2003 8.82036C16.1998 9.33102 16.3256 9.83388 16.5666 10.2841C16.8991 10.9064 17.4366 11.4032 18.0885 11.6838C18.4763 11.8508 18.8941 11.9367 19.3163 11.9364C21.0345 11.9364 22.4324 10.5386 22.4324 8.82036C22.4324 7.10216 21.0345 5.70435 19.3163 5.70435Z" fill="#6C6C6C"/>
</svg>
