<svg width="24" height="24" viewBox="0 0 24 24" fill="none" xmlns="http://www.w3.org/2000/svg">
<path d="M2.32031 24C1.80253 24 1.38281 23.5803 1.38281 23.0625C1.38281 18.3584 5.20992 14.5312 9.91406 14.5312H11.3203C12.283 14.5312 13.2283 14.6906 14.1299 15.0049C14.6188 15.1754 14.877 15.7099 14.7065 16.1988C14.536 16.6877 14.0015 16.9459 13.5126 16.7754C12.8099 16.5305 12.0723 16.4062 11.3203 16.4062H9.91406C6.2438 16.4062 3.25781 19.3922 3.25781 23.0625C3.25781 23.5803 2.83809 24 2.32031 24ZM16.8516 6.32812C16.8516 2.8388 14.0128 0 10.5234 0C7.03411 0 4.19531 2.8388 4.19531 6.32812C4.19531 9.81745 7.03411 12.6562 10.5234 12.6562C14.0128 12.6562 16.8516 9.81745 16.8516 6.32812ZM14.9766 6.32812C14.9766 8.78358 12.9789 10.7812 10.5234 10.7812C8.06798 10.7812 6.07031 8.78358 6.07031 6.32812C6.07031 3.87267 8.06798 1.875 10.5234 1.875C12.9789 1.875 14.9766 3.87267 14.9766 6.32812ZM21.6797 18.375H18.8672V15.5625C18.8672 15.0447 18.4475 14.625 17.9297 14.625C17.4119 14.625 16.9922 15.0447 16.9922 15.5625V18.375H14.1797C13.6619 18.375 13.2422 18.7947 13.2422 19.3125C13.2422 19.8303 13.6619 20.25 14.1797 20.25H16.9922V23.0625C16.9922 23.5803 17.4119 24 17.9297 24C18.4475 24 18.8672 23.5803 18.8672 23.0625V20.25H21.6797C22.1975 20.25 22.6172 19.8303 22.6172 19.3125C22.6172 18.7947 22.1975 18.375 21.6797 18.375Z" fill="#00A8A8"/>
</svg>
