<svg width="21" height="22" viewBox="0 0 21 22" fill="none" xmlns="http://www.w3.org/2000/svg">
<g clip-path="url(#clip0_19037_3106)">
<path fill-rule="evenodd" clip-rule="evenodd" d="M10.1488 18.0176V19.0438C10.1488 19.8668 9.73864 20.5774 9.02587 20.9888C8.68295 21.1868 8.3002 21.2972 7.90338 21.2974C7.50619 21.2976 7.12357 21.187 6.7804 20.9888L2.21705 18.3542C1.50421 17.9426 1.09412 17.2323 1.09412 16.4092V2.94998C1.09412 1.71152 2.10158 0.704102 3.33999 0.704102H13.3901C14.6286 0.704102 15.6362 1.71144 15.6362 2.94998V5.78715C15.6362 6.19415 15.3057 6.5246 14.8987 6.5246C14.4916 6.5246 14.1614 6.19419 14.1614 5.78715V2.94998C14.1614 2.52472 13.8154 2.17869 13.3901 2.17869H4.58359L9.02587 4.74389C9.73839 5.15535 10.1488 5.86566 10.1488 6.68847V16.5428H13.3901C13.8153 16.5428 14.1614 16.197 14.1614 15.7717V13.2846C14.1614 12.8773 14.4914 12.5471 14.8987 12.5471C15.3059 12.5471 15.6362 12.8774 15.6362 13.2846V15.7717C15.6362 17.0102 14.6286 18.0176 13.3901 18.0176H10.1488ZM16.9817 10.0981L16.1696 10.9102C15.8817 11.1982 15.8818 11.665 16.1696 11.9529C16.3082 12.0916 16.495 12.1687 16.691 12.1687C16.8872 12.1687 17.0738 12.0918 17.2126 11.9529L19.2831 9.88204C19.571 9.59413 19.571 9.12756 19.2831 8.83966L17.2126 6.76907C16.9246 6.48108 16.4578 6.4812 16.1697 6.76903C15.8818 7.05669 15.8819 7.5237 16.1697 7.81144L16.9817 8.62335H11.5414C11.134 8.62335 10.8041 8.95349 10.8041 9.36085C10.8041 9.76821 11.134 10.0981 11.5414 10.0981H16.9817V10.0981Z" fill="#474747"/>
</g>
<defs>
<clipPath id="clip0_19037_3106">
<rect width="20.5933" height="20.5933" fill="white" transform="translate(-6.10352e-05 0.704102)"/>
</clipPath>
</defs>
</svg>
