<svg width="24" height="24" viewBox="0 0 24 24" fill="none" xmlns="http://www.w3.org/2000/svg">
<path fill-rule="evenodd" clip-rule="evenodd" d="M4.5 1.5C3.70435 1.5 2.94129 1.81607 2.37868 2.37868C1.81607 2.94129 1.5 3.70435 1.5 4.5V19.5C1.5 20.2956 1.81607 21.0587 2.37868 21.6213C2.94129 22.1839 3.70435 22.5 4.5 22.5H10.875C11.1734 22.5 11.4595 22.3815 11.6705 22.1705C11.8815 21.9595 12 21.6734 12 21.375C12 21.0766 11.8815 20.7905 11.6705 20.5795C11.4595 20.3685 11.1734 20.25 10.875 20.25H4.5C4.30109 20.25 4.11032 20.171 3.96967 20.0303C3.82902 19.8897 3.75 19.6989 3.75 19.5V4.5C3.75 4.30109 3.82902 4.11032 3.96967 3.96967C4.11032 3.82902 4.30109 3.75 4.5 3.75H19.5C19.6989 3.75 19.8897 3.82902 20.0303 3.96967C20.171 4.11032 20.25 4.30109 20.25 4.5V10.875C20.25 11.1734 20.3685 11.4595 20.5795 11.6705C20.7905 11.8815 21.0766 12 21.375 12C21.6734 12 21.9595 11.8815 22.1705 11.6705C22.3815 11.4595 22.5 11.1734 22.5 10.875V4.5C22.5 3.70435 22.1839 2.94129 21.6213 2.37868C21.0587 1.81607 20.2956 1.5 19.5 1.5H4.5ZM22.5 16.125C22.5 15.8266 22.3815 15.5405 22.1705 15.3295C21.9595 15.1185 21.6734 15 21.375 15C21.0766 15 20.7905 15.1185 20.5795 15.3295C20.3685 15.5405 20.25 15.8266 20.25 16.125V19.5C20.25 19.6989 20.171 19.8897 20.0303 20.0303C19.8897 20.171 19.6989 20.25 19.5 20.25H16.125C15.8266 20.25 15.5405 20.3685 15.3295 20.5795C15.1185 20.7905 15 21.0766 15 21.375C15 21.6734 15.1185 21.9595 15.3295 22.1705C15.5405 22.3815 15.8266 22.5 16.125 22.5H19.5C20.2956 22.5 21.0587 22.1839 21.6213 21.6213C22.1839 21.0587 22.5 20.2956 22.5 19.5V16.125ZM16.6995 14.8005L14.25 12L10.536 16.245L8.25 13.5L6 16.2V18H13.5L16.6995 14.8005ZM9.75 12C10.3467 12 10.919 11.7629 11.341 11.341C11.7629 10.919 12 10.3467 12 9.75C12 9.15326 11.7629 8.58097 11.341 8.15901C10.919 7.73705 10.3467 7.5 9.75 7.5C9.15326 7.5 8.58097 7.73705 8.15901 8.15901C7.73705 8.58097 7.5 9.15326 7.5 9.75C7.5 10.3467 7.73705 10.919 8.15901 11.341C8.58097 11.7629 9.15326 12 9.75 12Z" fill="#00A8A8"/>
</svg>
