<svg width="24" height="24" viewBox="0 0 24 24" fill="none" xmlns="http://www.w3.org/2000/svg">
<path d="M1.22029 9.74169C0.086479 8.29185 -0.250318 7.07122 0.24637 6.21191L0.818713 5.22041C1.1519 4.64315 1.48523 4.0656 1.81917 3.488C2.35082 2.56715 3.76767 2.26593 5.80846 2.64004C7.73849 2.9938 10.0424 3.90519 12.296 5.2063C13.3755 5.82979 14.382 6.50596 15.2876 7.21607L14.8833 7.7316C14.0019 7.04043 13.0212 6.38169 11.9684 5.77358C9.77812 4.50904 7.54851 3.62497 5.69034 3.28438C3.96796 2.96863 2.7637 3.16232 2.3864 3.81575C1.66424 5.06718 3.99051 8.24432 8.60465 10.9795L8.27057 11.543C6.08915 10.2499 4.21973 8.73664 3.00656 7.28197C2.31796 6.45627 1.87729 5.68672 1.69603 5.01125C1.59276 5.19013 1.48931 5.3691 1.38614 5.54793L0.813651 6.53961C0.530666 7.02927 0.712776 7.81264 1.31024 8.74114L1.80576 7.88179L2.37328 8.20902L1.72828 9.32764L1.73639 9.33814C2.17912 9.90425 2.73951 10.4896 3.39154 11.0722L3.95282 10.099L4.52029 10.4263L3.89667 11.5076C4.59656 12.0904 5.38251 12.6647 6.22898 13.2081L5.87503 13.7594C3.91589 12.5016 2.26284 11.0748 1.22029 9.74169ZM6.29268 4.95069C7.69078 5.36689 9.42248 6.1513 11.1687 7.1593C11.8949 7.57907 12.5901 8.01786 13.2351 8.46341L13.6074 7.9244C12.9481 7.46891 12.2379 7.02069 11.4963 6.59207C9.70696 5.55908 7.92529 4.75316 6.47957 4.3228C4.85179 3.83821 3.85574 3.88799 3.51928 4.4706C3.18253 5.05279 3.63745 5.93999 4.87134 7.1075C5.96709 8.14433 7.55596 9.28457 9.34593 10.3185C9.46214 10.3853 9.5796 10.452 9.69576 10.5175L10.0173 9.94677C9.90221 9.88197 9.78741 9.81668 9.67288 9.75093C7.92656 8.74213 6.38118 7.63433 5.32153 6.63168C4.14806 5.5213 4.0004 4.94708 4.08642 4.79839C4.17248 4.64957 4.74426 4.48977 6.29268 4.95069ZM22.4985 14.4576C21.2271 15.9527 19.286 17.4926 17.0329 18.7935C14.7787 20.0946 12.4743 21.006 10.5442 21.3598C9.97246 21.4646 9.44943 21.5164 8.98134 21.5164C7.77862 21.5164 6.93745 21.1746 6.55467 20.5116C6.18778 19.8755 5.82064 19.2396 5.45324 18.6038L4.98192 17.7877C4.45012 16.8666 4.89749 15.4888 6.24173 13.908C7.51331 12.4127 9.45482 10.8727 11.7086 9.57186C13.9617 8.27104 16.2659 7.35983 18.1968 7.00611C20.238 6.63233 21.6549 6.93322 22.1868 7.85366L23.7584 10.5791C24.29 11.4994 23.8427 12.8768 22.4985 14.4576ZM5.54924 17.4602L5.54929 17.4603C5.92654 18.1136 7.13085 18.3072 8.85337 17.9916C10.7116 17.651 12.9417 16.7669 15.1327 15.5023C17.3227 14.2378 19.2032 12.7486 20.4275 11.3091C21.5621 9.97504 21.9966 8.83508 21.6196 8.1816L21.6194 8.18122C21.2422 7.52844 20.0377 7.33499 18.3148 7.65055C16.4558 7.9911 14.2259 8.87493 12.0361 10.1393C9.84562 11.4037 7.96504 12.8928 6.74081 14.3325C5.6062 15.6666 5.1719 16.8066 5.54924 17.4602ZM23.1909 10.9066L22.3096 9.37813C22.1217 10.0763 21.6567 10.8748 20.9264 11.7335C19.6548 13.2286 17.7135 14.7686 15.4602 16.0696C13.2059 17.3707 10.9016 18.2821 8.97149 18.6358C8.39971 18.7407 7.87668 18.7925 7.40859 18.7925C6.96918 18.7925 6.57834 18.7467 6.24018 18.6565C6.53423 19.1656 6.82842 19.6748 7.12214 20.1842C7.40854 20.6802 8.17232 20.9109 9.27735 20.8551L8.78113 19.9941L9.34874 19.6671L9.99323 20.7853C10.1337 20.7657 10.2779 20.7425 10.4262 20.7154C11.0283 20.605 11.6696 20.4373 12.3359 20.2183L11.773 19.2439L12.3403 18.9162L12.9656 19.9988C13.662 19.7424 14.3801 19.4339 15.1049 19.0792L14.5285 18.0793L15.0961 17.7522L15.6906 18.7834C16.3747 18.4266 17.0431 18.0407 17.6942 17.6267L17.0987 16.5956L17.666 16.268L18.2432 17.2675C18.9127 16.8173 19.5387 16.3498 20.1089 15.8749L19.4843 14.792L20.0518 14.4647L20.6138 15.4393C21.1367 14.9716 21.6028 14.4998 21.9995 14.0332C22.0942 13.922 22.1864 13.8087 22.2763 13.6935L21.6314 12.5761L22.1987 12.2487L22.6949 13.1082C23.2955 12.179 23.4774 11.4024 23.1909 10.9066ZM6.68203 16.8051C6.34603 16.2227 6.80114 15.3354 8.0346 14.1679C9.13082 13.1303 10.7196 11.9902 12.5082 10.9577C14.2976 9.92469 16.0792 9.11882 17.525 8.68841C19.1528 8.20382 20.1488 8.2536 20.4854 8.83639C20.822 9.41919 20.367 10.3067 19.1332 11.4741C18.0374 12.511 16.4485 13.6509 14.6592 14.6839C12.8698 15.7168 11.0881 16.5228 9.64242 16.9531C8.9039 17.173 8.29546 17.2828 7.81959 17.2828C7.24654 17.2828 6.86587 17.1235 6.68203 16.8051ZM7.2494 16.4776C7.33528 16.6264 7.90706 16.7862 9.45548 16.3252C10.8536 15.909 12.5853 15.1246 14.3316 14.1165C16.0779 13.1084 17.6232 12.001 18.6829 10.9983C19.8564 9.88785 20.0039 9.31293 19.918 9.16405C19.832 9.01518 19.2602 8.85543 17.7118 9.3163C16.3137 9.7325 14.582 10.5169 12.8357 11.5251C11.0902 12.5328 9.54501 13.6403 8.48489 14.6437C7.31151 15.7544 7.16362 16.329 7.2494 16.4776ZM2.55496 13.9652H1.89989V14.7953H1.06973V15.4504H1.89989V16.2806H2.55496V15.4504H3.38512V14.7953H2.55496V13.9652ZM16.5283 6.38113H17.1834V5.55097H18.0122V4.8959H17.1834V4.06574H16.5284V4.8959H15.6982V5.55097H16.5284V6.38113H16.5283Z" fill="white"/>
</svg>
