<svg width="26" height="26" viewBox="0 0 26 26" fill="none" xmlns="http://www.w3.org/2000/svg">
<path d="M22.75 7.04175C22.75 9.13259 21.0492 10.8334 18.9583 10.8334C16.8675 10.8334 15.1667 9.13259 15.1667 7.04175C15.1667 4.95092 16.8675 3.25009 18.9583 3.25009C21.0492 3.25009 22.75 4.95092 22.75 7.04175ZM20.5833 12.7726C20.0417 12.9134 19.5 13.0001 18.9583 13.0001C17.379 12.9972 15.8651 12.3686 14.7483 11.2518C13.6315 10.135 13.0029 8.62112 13 7.04175C13 5.44925 13.6283 4.00842 14.625 2.93592C14.4284 2.69492 14.1805 2.50082 13.8994 2.36776C13.6183 2.2347 13.311 2.16603 13 2.16675C11.8083 2.16675 10.8333 3.14175 10.8333 4.33342V4.64759C7.61583 5.60092 5.41667 8.55842 5.41667 11.9168V18.4168L3.25 20.5834V21.6668H22.75V20.5834L20.5833 18.4168V12.7726ZM13 24.9168C14.2025 24.9168 15.1667 23.9526 15.1667 22.7501H10.8333C10.8333 23.3247 11.0616 23.8758 11.4679 24.2822C11.8743 24.6885 12.4254 24.9168 13 24.9168Z" fill="#00DDED"/>
</svg>
