<svg width="278" height="278" viewBox="0 0 278 278" fill="none" xmlns="http://www.w3.org/2000/svg">
<mask id="mask0_19009_1434" style="mask-type:luminance" maskUnits="userSpaceOnUse" x="0" y="0" width="278" height="278">
<path fill-rule="evenodd" clip-rule="evenodd" d="M0 0H278V278H0V0Z" fill="white"/>
</mask>
<g mask="url(#mask0_19009_1434)">
<path fill-rule="evenodd" clip-rule="evenodd" d="M139 0C62.2326 0 0 62.2326 0 139C0 215.767 62.2326 278 139 278C215.767 278 278 215.767 278 139C278 62.2326 215.767 0 139 0Z" fill="#E6F7F9"/>
<path fill-rule="evenodd" clip-rule="evenodd" d="M167.255 85.1527C191.382 70.23 199.387 57.8735 204.272 66.3541C207.579 72.0948 173.957 113.057 167.255 117.418C165.245 96.6833 167.255 85.1527 167.255 85.1527Z" fill="white"/>
<path fill-rule="evenodd" clip-rule="evenodd" d="M167.255 85.1527C191.382 70.23 199.387 57.8735 204.272 66.3541C207.579 72.0948 173.957 113.057 167.255 117.418C165.245 96.6833 167.255 85.1527 167.255 85.1527Z" stroke="#0A0F37" stroke-width="2"/>
<path fill-rule="evenodd" clip-rule="evenodd" d="M100.381 147.75C102.538 99.87 102.538 75.2259 103.976 66.0722C105.414 56.9194 109.729 52.6947 125.549 51.9904C141.368 51.2862 155.03 48.4691 165.097 48.4691C175.164 48.4691 183.793 47.0614 183.793 73.8183C183.793 100.574 178.453 193.858 178.453 200.196C178.453 206.534 179.887 222.448 162.63 222.448C145.372 222.448 129.727 222.2 116.629 224.086C104.508 225.831 100.381 219.571 100.381 201.967V147.75Z" fill="#535565"/>
<path fill-rule="evenodd" clip-rule="evenodd" d="M100.019 144.106C102.03 97.9832 102.03 74.2433 103.369 65.4262C104.71 56.6081 108.731 52.5389 123.475 51.8601C138.219 51.1822 150.952 48.4688 160.336 48.4688C169.718 48.4688 177.76 47.1131 177.76 72.8866C177.76 98.662 172.398 200.403 172.398 206.509C172.398 212.613 172.398 218.038 156.314 218.038C140.23 218.038 126.795 217.231 115.402 217.909C104.009 218.587 100.019 213.291 100.019 196.334V144.106Z" fill="#00D8D8"/>
<path fill-rule="evenodd" clip-rule="evenodd" d="M109.067 71.5521L173.403 67.4829L167.373 195.677L104.375 199.069L109.067 71.5521Z" fill="white"/>
<path fill-rule="evenodd" clip-rule="evenodd" d="M140.625 207.816C140.625 210.861 138.185 213.331 135.175 213.331C132.165 213.331 129.726 210.861 129.726 207.816C129.726 204.769 132.165 202.299 135.175 202.299C138.185 202.299 140.625 204.769 140.625 207.816Z" fill="white"/>
<path fill-rule="evenodd" clip-rule="evenodd" d="M109.019 71.8355L104.299 198.257L167.678 194.895L173.746 67.8013L109.019 71.8355Z" fill="white"/>
<mask id="mask1_19009_1434" style="mask-type:luminance" maskUnits="userSpaceOnUse" x="104" y="67" width="70" height="132">
<path fill-rule="evenodd" clip-rule="evenodd" d="M109.019 71.8355L104.299 198.257L167.678 194.895L173.746 67.8013L109.019 71.8355Z" fill="white"/>
</mask>
<g mask="url(#mask1_19009_1434)">
</g>
<path fill-rule="evenodd" clip-rule="evenodd" d="M73.1519 215.98C82.7502 208.513 99.6387 189.686 94.1788 160.976C88.718 132.265 84.5861 129.181 91.5145 118.524C98.4429 107.866 105.39 91.7921 110.927 102.898C116.462 114.003 111.153 134.02 102.557 136.675C109.819 143.593 137.714 168.428 118.98 192.574C106.909 206.081 94.4637 203.237 91.2249 229.037C89.7517 228.08 73.1519 215.98 73.1519 215.98Z" fill="white"/>
<path d="M73.1519 215.98C82.7502 208.513 99.6387 189.686 94.1788 160.976C88.718 132.265 84.5861 129.181 91.5145 118.524C98.4428 107.866 105.39 91.7921 110.927 102.898C116.462 114.003 111.153 134.02 102.557 136.675C109.819 143.593 137.714 168.428 118.98 192.574C106.909 206.081 95.6417 201.838 91.2249 229.037" stroke="#0A0F37" stroke-width="2"/>
<path fill-rule="evenodd" clip-rule="evenodd" d="M182.117 118.011C175.744 125.053 159.499 136.349 151.992 141.413C144.015 146.796 147.739 152.863 165.751 146.67C176.06 143.126 183.218 138.737 185.403 133.861C189.044 125.732 182.117 118.011 182.117 118.011Z" fill="white"/>
<path fill-rule="evenodd" clip-rule="evenodd" d="M182.117 118.011C175.744 125.053 159.499 136.349 151.992 141.413C144.015 146.796 147.739 152.863 165.751 146.67C176.06 143.126 183.218 138.737 185.403 133.861C189.044 125.732 182.117 118.011 182.117 118.011Z" stroke="#0A0F37" stroke-width="2"/>
<path fill-rule="evenodd" clip-rule="evenodd" d="M181.179 138.933C175.017 143.774 161.78 149.283 152.894 149.277C147.778 151.929 144.179 158.646 153.632 158.197C163.083 157.748 180.192 158.044 184.293 145.128C186.927 136.835 185.322 134.068 184.956 134.729C184.056 136.349 182.697 137.74 181.179 138.933Z" fill="white"/>
<path fill-rule="evenodd" clip-rule="evenodd" d="M181.179 138.933C175.017 143.774 161.78 149.283 152.894 149.277C147.778 151.929 144.179 158.646 153.632 158.197C163.083 157.748 180.192 158.044 184.293 145.128C186.927 136.835 185.322 134.068 184.956 134.729C184.056 136.349 182.697 137.74 181.179 138.933Z" stroke="#0A0F37" stroke-width="2"/>
<path fill-rule="evenodd" clip-rule="evenodd" d="M157.505 158.052C170.244 158.061 178.198 154.235 181.272 150.524C185.071 151.497 183.791 162.555 170.516 163.494C156.248 164.501 157.505 158.052 157.505 158.052Z" fill="white"/>
<path fill-rule="evenodd" clip-rule="evenodd" d="M157.505 158.052C170.244 158.061 178.198 154.235 181.272 150.524C185.071 151.497 183.791 162.555 170.516 163.494C156.248 164.501 157.505 158.052 157.505 158.052Z" stroke="#0A0F37" stroke-width="2"/>
<path fill-rule="evenodd" clip-rule="evenodd" d="M153.878 105.15C153.878 113.21 147.354 119.743 139.306 119.743C131.257 119.743 124.733 113.21 124.733 105.15C124.733 97.0908 131.257 90.5574 139.306 90.5574C147.354 90.5574 153.878 97.0908 153.878 105.15Z" fill="#00D8D8"/>
<path fill-rule="evenodd" clip-rule="evenodd" d="M149.953 105.15C149.953 113.21 147.354 119.743 139.306 119.743C131.257 119.743 124.733 113.21 124.733 105.15C124.733 97.0908 131.257 90.5574 139.306 90.5574C147.354 90.5574 149.953 97.0908 149.953 105.15Z" fill="#00D8D8"/>
<path d="M146.722 97.2439L148.915 99.1823L138.427 111.289L130 104.661L131.791 102.339L138.046 107.259L146.722 97.2439Z" fill="white"/>
<path fill-rule="evenodd" clip-rule="evenodd" d="M123.268 128.059C123.349 128.007 123.471 127.956 123.636 127.906C123.802 127.856 123.969 127.828 124.138 127.822C124.379 127.814 124.594 127.842 124.782 127.907C124.971 127.971 125.094 128.079 125.153 128.229C125.248 128.481 125.353 128.774 125.466 129.109C125.579 129.444 125.693 129.79 125.807 130.147C125.921 130.503 126.032 130.855 126.141 131.203C126.25 131.55 126.345 131.857 126.427 132.124C126.372 132.195 126.287 132.253 126.172 132.299C126.058 132.345 125.921 132.37 125.761 132.376C125.646 132.38 125.547 132.373 125.467 132.357C125.387 132.34 125.321 132.313 125.268 132.275C125.216 132.238 125.174 132.188 125.14 132.125C125.106 132.062 125.076 131.99 125.049 131.907L124.901 131.404L123.59 131.45C123.556 131.599 123.523 131.752 123.49 131.91C123.457 132.068 123.423 132.222 123.39 132.37C123.323 132.397 123.253 132.42 123.178 132.44C123.104 132.46 123.014 132.472 122.908 132.475C122.661 132.484 122.478 132.448 122.356 132.366C122.235 132.284 122.172 132.167 122.166 132.015C122.164 131.947 122.171 131.878 122.188 131.808C122.205 131.739 122.224 131.657 122.245 131.563C122.274 131.43 122.315 131.264 122.369 131.066C122.422 130.867 122.481 130.653 122.546 130.422C122.61 130.192 122.679 129.955 122.753 129.712C122.827 129.469 122.896 129.239 122.961 129.023C123.026 128.808 123.086 128.615 123.14 128.446C123.195 128.278 123.238 128.148 123.268 128.059ZM124.171 128.977C124.11 129.186 124.042 129.418 123.967 129.673C123.891 129.929 123.824 130.187 123.765 130.45L124.664 130.418C124.587 130.156 124.509 129.9 124.43 129.65C124.351 129.399 124.279 129.175 124.214 128.976L124.171 128.977ZM128.708 129.496C128.588 129.501 128.474 129.524 128.366 129.567C128.259 129.61 128.167 129.671 128.09 129.75C128.013 129.829 127.952 129.925 127.908 130.04C127.864 130.154 127.844 130.288 127.849 130.44C127.86 130.744 127.954 130.969 128.13 131.115C128.307 131.261 128.519 131.329 128.765 131.321C128.91 131.316 129.035 131.294 129.14 131.256C129.245 131.218 129.338 131.178 129.418 131.136C129.517 131.201 129.592 131.274 129.643 131.353C129.695 131.432 129.722 131.528 129.726 131.641C129.733 131.842 129.644 132.001 129.46 132.118C129.275 132.235 129.017 132.299 128.683 132.311C128.379 132.321 128.102 132.285 127.853 132.203C127.603 132.121 127.388 132.001 127.206 131.843C127.024 131.685 126.88 131.492 126.776 131.265C126.671 131.038 126.614 130.785 126.604 130.505C126.593 130.182 126.635 129.897 126.73 129.65C126.826 129.404 126.96 129.199 127.133 129.036C127.306 128.873 127.509 128.748 127.74 128.661C127.972 128.575 128.218 128.527 128.478 128.518C128.826 128.506 129.096 128.56 129.289 128.681C129.482 128.802 129.582 128.963 129.589 129.164C129.592 129.257 129.573 129.345 129.533 129.427C129.492 129.51 129.444 129.581 129.388 129.642C129.304 129.606 129.204 129.571 129.087 129.538C128.97 129.506 128.844 129.492 128.708 129.496ZM132.086 129.379C131.965 129.383 131.851 129.406 131.744 129.449C131.637 129.492 131.545 129.553 131.468 129.632C131.391 129.711 131.33 129.808 131.285 129.922C131.241 130.037 131.222 130.17 131.227 130.322C131.238 130.626 131.331 130.851 131.508 130.997C131.685 131.143 131.896 131.212 132.142 131.203C132.287 131.198 132.412 131.176 132.517 131.138C132.622 131.1 132.715 131.06 132.796 131.018C132.895 131.083 132.97 131.156 133.021 131.235C133.072 131.314 133.1 131.41 133.104 131.523C133.111 131.724 133.022 131.883 132.837 132C132.653 132.117 132.394 132.181 132.061 132.193C131.757 132.203 131.48 132.168 131.23 132.085C130.981 132.003 130.765 131.883 130.583 131.725C130.401 131.567 130.258 131.374 130.153 131.147C130.049 130.92 129.992 130.667 129.982 130.387C129.971 130.064 130.013 129.779 130.108 129.532C130.203 129.286 130.338 129.081 130.511 128.918C130.684 128.755 130.886 128.63 131.118 128.543C131.349 128.457 131.595 128.409 131.856 128.4C132.204 128.388 132.474 128.442 132.667 128.563C132.859 128.684 132.959 128.845 132.966 129.046C132.97 129.139 132.951 129.227 132.91 129.309C132.87 129.392 132.821 129.463 132.766 129.524C132.682 129.488 132.582 129.453 132.465 129.421C132.347 129.388 132.221 129.374 132.086 129.379ZM135.44 132.082C135.155 132.092 134.889 132.061 134.643 131.988C134.396 131.916 134.179 131.802 133.992 131.646C133.806 131.491 133.656 131.292 133.544 131.051C133.431 130.809 133.369 130.524 133.358 130.196C133.347 129.872 133.389 129.592 133.485 129.355C133.58 129.119 133.71 128.923 133.874 128.767C134.038 128.612 134.227 128.495 134.442 128.416C134.656 128.338 134.877 128.294 135.104 128.286C135.36 128.277 135.595 128.308 135.807 128.38C136.02 128.451 136.205 128.552 136.362 128.684C136.519 128.816 136.643 128.976 136.734 129.165C136.825 129.353 136.875 129.56 136.883 129.785C136.888 129.952 136.847 130.081 136.758 130.173C136.67 130.264 136.544 130.325 136.38 130.355L134.601 130.69C134.66 130.85 134.772 130.967 134.939 131.043C135.106 131.118 135.296 131.152 135.509 131.144C135.707 131.137 135.893 131.105 136.067 131.047C136.242 130.99 136.383 130.925 136.492 130.852C136.571 130.899 136.639 130.965 136.695 131.051C136.751 131.138 136.781 131.23 136.784 131.328C136.792 131.549 136.696 131.716 136.497 131.831C136.346 131.92 136.174 131.983 135.982 132.019C135.789 132.055 135.609 132.076 135.44 132.082ZM135.136 129.198C135.02 129.202 134.921 129.226 134.838 129.268C134.755 129.31 134.688 129.363 134.637 129.426C134.586 129.489 134.548 129.559 134.524 129.636C134.5 129.713 134.487 129.791 134.485 129.869L135.717 129.62C135.699 129.522 135.642 129.426 135.547 129.331C135.452 129.236 135.315 129.192 135.136 129.198ZM138.982 128.151C139.272 128.141 139.543 128.169 139.794 128.237C140.045 128.304 140.263 128.413 140.447 128.564C140.631 128.714 140.778 128.907 140.888 129.141C140.998 129.375 141.058 129.657 141.07 129.985C141.081 130.299 141.047 130.575 140.968 130.814C140.889 131.052 140.773 131.254 140.619 131.419C140.465 131.584 140.278 131.709 140.056 131.796C139.834 131.882 139.586 131.93 139.31 131.939C139.103 131.947 138.908 131.922 138.728 131.864L138.77 133.085C138.722 133.101 138.646 133.12 138.54 133.141C138.434 133.162 138.326 133.174 138.215 133.178C138.109 133.182 138.013 133.178 137.928 133.166C137.843 133.154 137.771 133.127 137.711 133.085C137.652 133.043 137.606 132.985 137.575 132.91C137.543 132.835 137.525 132.736 137.521 132.613L137.398 129.083C137.393 128.95 137.417 128.841 137.47 128.756C137.522 128.671 137.596 128.592 137.69 128.52C137.836 128.417 138.019 128.332 138.239 128.265C138.459 128.199 138.707 128.16 138.982 128.151ZM139.094 130.96C139.591 130.943 139.829 130.633 139.808 130.029C139.797 129.716 139.728 129.485 139.599 129.337C139.471 129.189 139.291 129.12 139.059 129.128C138.967 129.131 138.885 129.145 138.814 129.169C138.742 129.194 138.68 129.222 138.628 129.253L138.685 130.871C138.743 130.899 138.807 130.921 138.875 130.938C138.944 130.956 139.016 130.963 139.094 130.96ZM142.865 130.475C142.869 130.603 142.912 130.692 142.994 130.743C143.075 130.794 143.189 130.817 143.333 130.812C143.406 130.81 143.48 130.801 143.557 130.786C143.634 130.771 143.701 130.753 143.758 130.731C143.804 130.783 143.843 130.842 143.877 130.907C143.911 130.972 143.929 131.052 143.932 131.145C143.939 131.331 143.875 131.485 143.742 131.608C143.608 131.73 143.368 131.798 143.02 131.81C142.595 131.825 142.265 131.738 142.028 131.55C141.792 131.362 141.666 131.047 141.651 130.606L141.541 127.458C141.594 127.441 141.669 127.422 141.768 127.402C141.866 127.381 141.971 127.369 142.082 127.365C142.294 127.358 142.461 127.39 142.582 127.462C142.703 127.534 142.768 127.692 142.776 127.937L142.793 128.408L143.741 128.375C143.772 128.428 143.802 128.494 143.832 128.574C143.861 128.654 143.878 128.743 143.881 128.841C143.887 129.013 143.854 129.138 143.782 129.217C143.71 129.295 143.611 129.337 143.485 129.341L142.826 129.364L142.865 130.475ZM146.648 127.11C146.7 127.098 146.784 127.082 146.9 127.061C147.015 127.039 147.126 127.027 147.232 127.023C147.343 127.019 147.441 127.025 147.526 127.039C147.611 127.053 147.684 127.081 147.743 127.123C147.803 127.165 147.848 127.225 147.88 127.303C147.912 127.38 147.93 127.482 147.934 127.61L148.029 130.331C148.044 130.768 147.933 131.099 147.694 131.326C147.455 131.553 147.097 131.675 146.619 131.692C146.368 131.7 146.164 131.668 146.007 131.595C145.894 131.545 145.81 131.474 145.756 131.383C145.702 131.292 145.673 131.187 145.669 131.069C145.666 130.971 145.676 130.885 145.7 130.81C145.724 130.736 145.754 130.676 145.792 130.631C145.884 130.647 145.963 130.658 146.028 130.663C146.094 130.668 146.165 130.669 146.242 130.666C146.431 130.66 146.564 130.607 146.643 130.509C146.722 130.41 146.758 130.268 146.751 130.081L146.648 127.11ZM152.423 129.582C152.433 129.886 152.397 130.158 152.314 130.399C152.23 130.64 152.108 130.844 151.947 131.012C151.786 131.18 151.591 131.309 151.362 131.401C151.133 131.492 150.877 131.543 150.592 131.553C150.307 131.563 150.047 131.528 149.812 131.448C149.577 131.367 149.374 131.248 149.201 131.09C149.029 130.931 148.893 130.736 148.793 130.504C148.693 130.272 148.638 130.008 148.627 129.714C148.617 129.425 148.654 129.161 148.738 128.922C148.821 128.684 148.943 128.479 149.104 128.309C149.265 128.139 149.46 128.006 149.688 127.91C149.917 127.813 150.174 127.76 150.459 127.75C150.744 127.74 151.004 127.777 151.239 127.859C151.474 127.942 151.677 128.062 151.849 128.221C152.022 128.379 152.158 128.575 152.258 128.807C152.358 129.039 152.413 129.297 152.423 129.582ZM149.887 129.67C149.898 129.969 149.962 130.196 150.081 130.352C150.2 130.507 150.361 130.581 150.564 130.574C150.767 130.567 150.92 130.481 151.023 130.315C151.126 130.15 151.172 129.92 151.162 129.626C151.152 129.331 151.088 129.106 150.972 128.951C150.855 128.796 150.695 128.721 150.492 128.728C150.29 128.735 150.136 128.821 150.03 128.984C149.925 129.147 149.877 129.376 149.887 129.67ZM152.877 126.561C152.925 126.545 153.002 126.526 153.107 126.505C153.213 126.484 153.321 126.472 153.432 126.468C153.539 126.464 153.634 126.468 153.719 126.48C153.804 126.492 153.877 126.519 153.936 126.561C153.996 126.603 154.041 126.661 154.073 126.736C154.104 126.811 154.122 126.91 154.127 127.033L154.152 127.754C154.271 127.7 154.384 127.662 154.492 127.639C154.6 127.615 154.719 127.601 154.85 127.597C155.081 127.589 155.303 127.623 155.513 127.699C155.724 127.775 155.911 127.89 156.076 128.044C156.241 128.197 156.374 128.39 156.474 128.623C156.574 128.855 156.629 129.125 156.64 129.434C156.651 129.753 156.614 130.033 156.528 130.274C156.442 130.515 156.317 130.717 156.154 130.88C155.99 131.043 155.788 131.169 155.547 131.258C155.306 131.348 155.038 131.398 154.743 131.408C154.425 131.419 154.153 131.39 153.928 131.322C153.703 131.254 153.512 131.166 153.353 131.059C153.136 130.914 153.023 130.722 153.014 130.481L152.877 126.561ZM154.709 130.422C154.931 130.415 155.101 130.331 155.219 130.172C155.336 130.014 155.39 129.782 155.379 129.478C155.369 129.169 155.298 128.941 155.167 128.793C155.036 128.646 154.864 128.576 154.652 128.583C154.555 128.587 154.472 128.599 154.403 128.621C154.334 128.643 154.259 128.675 154.178 128.718L154.234 130.321C154.288 130.353 154.353 130.379 154.429 130.399C154.505 130.418 154.598 130.426 154.709 130.422ZM160.182 130.032C160.195 130.405 160.067 130.702 159.8 130.922C159.532 131.143 159.13 131.262 158.594 131.281C158.391 131.288 158.202 131.28 158.027 131.256C157.852 131.233 157.702 131.193 157.577 131.136C157.452 131.079 157.352 131.005 157.279 130.914C157.206 130.824 157.167 130.715 157.163 130.587C157.159 130.469 157.179 130.369 157.225 130.287C157.27 130.204 157.326 130.135 157.391 130.078C157.534 130.152 157.697 130.216 157.88 130.271C158.064 130.326 158.274 130.349 158.51 130.341C158.66 130.336 158.774 130.31 158.852 130.263C158.93 130.216 158.968 130.156 158.965 130.082C158.963 130.014 158.932 129.961 158.873 129.923C158.813 129.886 158.716 129.858 158.58 129.838L158.361 129.801C157.938 129.733 157.621 129.612 157.409 129.441C157.198 129.269 157.086 129.016 157.074 128.683C157.068 128.501 157.101 128.336 157.173 128.186C157.245 128.036 157.35 127.91 157.486 127.807C157.623 127.704 157.788 127.622 157.982 127.561C158.175 127.5 158.39 127.466 158.627 127.458C158.806 127.451 158.974 127.459 159.132 127.48C159.29 127.502 159.428 127.538 159.545 127.588C159.663 127.637 159.757 127.704 159.828 127.788C159.898 127.871 159.936 127.972 159.94 128.089C159.944 128.202 159.927 128.3 159.889 128.382C159.85 128.464 159.801 128.534 159.74 128.59C159.7 128.566 159.642 128.543 159.563 128.518C159.485 128.494 159.4 128.473 159.307 128.454C159.215 128.435 159.121 128.42 159.026 128.408C158.932 128.397 158.846 128.393 158.769 128.395C158.609 128.401 158.487 128.424 158.401 128.463C158.315 128.503 158.274 128.562 158.277 128.641C158.279 128.695 158.304 128.738 158.354 128.771C158.403 128.803 158.496 128.832 158.632 128.857L158.859 128.9C159.326 128.992 159.661 129.129 159.863 129.311C160.065 129.493 160.171 129.733 160.182 130.032Z" fill="black"/>
</g>
</svg>
