<svg width="18" height="31" viewBox="0 0 18 31" fill="none" xmlns="http://www.w3.org/2000/svg">
<path d="M7.93213 15.1875H9.50544V30.375H7.93213V15.1875Z" fill="#444444"/>
<path d="M8.71875 17.4375C13.534 17.4375 17.4375 13.534 17.4375 8.71875C17.4375 3.90352 13.534 0 8.71875 0C3.90352 0 0 3.90352 0 8.71875C0 13.534 3.90352 17.4375 8.71875 17.4375Z" fill="#E43C53"/>
<path d="M17.4375 8.71902C17.4372 8.40587 17.4203 8.09296 17.3866 7.78162H14.8129C14.5776 6.24718 13.7723 4.85791 12.5577 3.89108C11.3432 2.92426 9.80871 2.45098 8.26058 2.56571C6.71244 2.68043 5.2645 3.37472 4.20573 4.51002C3.14696 5.64531 2.55523 7.13811 2.54864 8.69047C2.54205 10.2428 3.12109 11.7406 4.17018 12.8848C5.21928 14.0291 6.66127 14.7356 8.20838 14.8635C9.75549 14.9914 11.2939 14.5311 12.5166 13.5746C13.7393 12.6182 14.5564 11.2358 14.8048 9.7034H17.3813C17.4184 9.37658 17.4372 9.04794 17.4375 8.71902Z" fill="#DEECF1"/>
<path d="M8.71869 24.3334C10.0275 24.3334 11.0885 23.2724 11.0885 21.9636C11.0885 20.6548 10.0275 19.5938 8.71869 19.5938C7.40988 19.5938 6.34888 20.6548 6.34888 21.9636C6.34888 23.2724 7.40988 24.3334 8.71869 24.3334Z" fill="#74D84B"/>
<path d="M17.4375 8.71875C17.4375 6.40639 16.5189 4.18875 14.8838 2.55366C13.2488 0.91858 11.0311 0 8.71875 0V17.4375C11.0311 17.4375 13.2488 16.5189 14.8838 14.8838C16.5189 13.2488 17.4375 11.0311 17.4375 8.71875Z" fill="#CA3046"/>
<path d="M14.8047 9.70309H17.3813C17.4549 9.06472 17.4569 8.42011 17.3872 7.7813H14.8129C14.5886 6.32583 13.8509 4.99866 12.7331 4.03984C11.6154 3.08102 10.1914 2.55386 8.71875 2.55371V14.8837C10.1831 14.8835 11.5996 14.3621 12.7147 13.4129C13.8298 12.4637 14.5707 11.1486 14.8047 9.70309Z" fill="#C7E2E7"/>
<path d="M11.0886 21.9636C11.0886 21.6524 11.0273 21.3442 10.9082 21.0567C10.7891 20.7692 10.6145 20.5079 10.3945 20.2879C10.1744 20.0678 9.91316 19.8932 9.62564 19.7741C9.33812 19.655 9.02996 19.5937 8.71875 19.5938V24.3337C9.02998 24.3337 9.33817 24.2723 9.6257 24.1532C9.91324 24.0341 10.1745 23.8595 10.3946 23.6395C10.6146 23.4194 10.7892 23.1581 10.9083 22.8705C11.0273 22.583 11.0886 22.2748 11.0886 21.9636Z" fill="#5AC033"/>
<path d="M6.08572 5.57358H7.23743C7.44103 5.55802 7.64272 5.62216 7.79993 5.75245C7.8649 5.81963 7.91512 5.89964 7.94738 5.98735C7.97963 6.07506 7.99321 6.16854 7.98725 6.2618C7.99277 6.35968 7.97742 6.45762 7.94222 6.54911C7.90702 6.64061 7.85277 6.72358 7.78306 6.79252C7.60722 6.93327 7.38433 7.00167 7.15981 6.98377H6.78181V7.8157H6.08572V5.57358ZM6.78153 6.52983H6.95028C7.0492 6.53934 7.14841 6.51484 7.23153 6.46036C7.2576 6.43867 7.27842 6.41136 7.29245 6.38048C7.30647 6.3496 7.31334 6.31595 7.31253 6.28205C7.31325 6.24906 7.3074 6.21626 7.29533 6.18555C7.28326 6.15484 7.26521 6.12684 7.24222 6.10317C7.16689 6.04524 7.07196 6.01891 6.97756 6.02977H6.78068L6.78153 6.52983ZM8.37847 5.57358H9.07287V7.8157H8.37847V5.57358ZM9.41234 5.57358H11.5183V6.12736H10.8118V7.81486H10.1191V6.12736H9.41234V5.57358ZM4.19543 9.71189L4.85469 9.67055C4.86182 9.75834 4.89188 9.84272 4.94187 9.91524C4.97834 9.96066 5.02514 9.99672 5.07837 10.0204C5.1316 10.0441 5.18971 10.0547 5.24787 10.0514C5.33001 10.0569 5.41133 10.0322 5.47653 9.98189C5.50117 9.96273 5.52119 9.93827 5.53512 9.91033C5.54904 9.88238 5.55651 9.85167 5.55697 9.82045C5.55637 9.79043 5.54921 9.7609 5.536 9.73394C5.52278 9.70697 5.50383 9.68323 5.48047 9.66436C5.37288 9.59601 5.25181 9.55169 5.12553 9.53442C4.89041 9.49627 4.66768 9.40297 4.47556 9.26217C4.41232 9.20947 4.36177 9.14318 4.32769 9.06824C4.2936 8.9933 4.27685 8.91164 4.27868 8.82933C4.27901 8.71297 4.31385 8.59933 4.37881 8.5028C4.45309 8.39423 4.55792 8.31015 4.68003 8.2612C4.85605 8.19532 5.04349 8.16538 5.23128 8.17317C5.4609 8.15831 5.68957 8.21405 5.88659 8.33292C5.96525 8.3934 6.02994 8.47014 6.07624 8.55789C6.12255 8.64565 6.14938 8.74236 6.1549 8.84142L5.50184 8.87967C5.49991 8.83791 5.48943 8.79698 5.47102 8.75943C5.45262 8.72189 5.4267 8.68853 5.39487 8.66142C5.36304 8.63431 5.32598 8.61403 5.28598 8.60183C5.24599 8.58964 5.20391 8.5858 5.16237 8.59055C5.0976 8.58582 5.03321 8.60393 4.9804 8.64174C4.96131 8.65641 4.94585 8.67528 4.93522 8.69688C4.92458 8.71849 4.91907 8.74225 4.91909 8.76633C4.91966 8.78517 4.92448 8.80363 4.9332 8.82034C4.94192 8.83704 4.95431 8.85156 4.96943 8.8628C5.03996 8.90708 5.11937 8.93531 5.20203 8.94549C5.42592 8.98544 5.64435 9.05152 5.85284 9.14236C5.9697 9.19664 6.06885 9.28282 6.13887 9.39099C6.19885 9.49119 6.22982 9.60609 6.22831 9.72286C6.22901 9.86434 6.18749 10.0028 6.10906 10.1205C6.02761 10.2436 5.91153 10.3397 5.7755 10.3967C5.60384 10.4647 5.42003 10.4967 5.2355 10.4907C4.9533 10.5214 4.67005 10.443 4.44378 10.2716C4.29582 10.1213 4.20755 9.92241 4.19543 9.71189ZM6.42068 8.21283H8.52668V8.76661H7.82018V10.4541H7.12747V8.76661H6.42068V8.21283ZM8.64622 9.33417C8.63079 9.17816 8.65012 9.02066 8.70281 8.873C8.7555 8.72534 8.84024 8.59119 8.95095 8.48019C9.06166 8.36918 9.19559 8.28408 9.3431 8.23099C9.49062 8.17791 9.64807 8.15816 9.80412 8.17317C9.96071 8.163 10.1177 8.18438 10.2659 8.23602C10.4141 8.28767 10.5504 8.36853 10.6667 8.47383C10.7715 8.58631 10.8524 8.71894 10.9043 8.86366C10.9562 9.00838 10.9782 9.16215 10.9688 9.31561C10.9773 9.538 10.932 9.75916 10.8366 9.96023C10.7506 10.1257 10.6175 10.2619 10.4541 10.3517C10.2618 10.4513 10.0472 10.4997 9.83084 10.4924C9.61516 10.4998 9.40058 10.4584 9.20309 10.3714C9.03346 10.2872 8.89305 10.1539 8.80006 9.98892C8.69085 9.78847 8.6377 9.56228 8.64622 9.33417ZM9.33893 9.33727C9.32362 9.50961 9.36822 9.68196 9.46522 9.82523C9.50962 9.8718 9.56296 9.90892 9.62205 9.93438C9.68113 9.95984 9.74475 9.97311 9.80909 9.97339C9.87343 9.97368 9.93716 9.96099 9.99647 9.93606C10.0558 9.91113 10.1095 9.87449 10.1543 9.82833C10.2516 9.67282 10.2946 9.48945 10.2766 9.30689C10.2905 9.14239 10.2452 8.97832 10.1489 8.84424C10.1057 8.79562 10.0522 8.75729 9.99221 8.73203C9.93226 8.70678 9.86742 8.69524 9.80243 8.69827C9.73861 8.69585 9.67507 8.70797 9.6166 8.73369C9.55814 8.75942 9.50628 8.79808 9.46493 8.84677C9.36754 8.99101 9.32302 9.16451 9.33893 9.33783V9.33727ZM11.3395 8.21283H12.4912C12.6948 8.19727 12.8965 8.26141 13.0537 8.3917C13.1187 8.45888 13.1689 8.53889 13.2011 8.6266C13.2334 8.71431 13.247 8.80779 13.241 8.90105C13.2465 8.99893 13.2312 9.09687 13.196 9.18836C13.1608 9.27986 13.1065 9.36283 13.0368 9.43177C12.861 9.57252 12.6381 9.64092 12.4136 9.62302H12.0356V10.455H11.3395V8.21283ZM12.0353 9.16908H12.204C12.3029 9.17859 12.4022 9.15409 12.4853 9.09961C12.5113 9.07791 12.5322 9.05061 12.5462 9.01973C12.5602 8.98885 12.5671 8.9552 12.5663 8.9213C12.567 8.88831 12.5612 8.85551 12.5491 8.8248C12.537 8.79409 12.519 8.76609 12.496 8.74242C12.4206 8.68449 12.3257 8.65816 12.2313 8.66902H12.0344L12.0353 9.16908Z" fill="#444444"/>
<path d="M7.82068 22.4556C7.69014 22.4556 7.56495 22.4038 7.47265 22.3115C7.38035 22.2192 7.32849 22.094 7.32849 21.9635C7.32886 21.5949 7.47545 21.2415 7.73609 20.9808C7.99672 20.7202 8.35012 20.5736 8.71871 20.5732C8.84925 20.5732 8.97444 20.6251 9.06674 20.7174C9.15904 20.8097 9.2109 20.9349 9.2109 21.0654C9.2109 21.196 9.15904 21.3212 9.06674 21.4135C8.97444 21.5058 8.84925 21.5576 8.71871 21.5576C8.61117 21.5578 8.50807 21.6005 8.432 21.6766C8.35593 21.7526 8.31309 21.8556 8.31287 21.9632C8.3129 22.0278 8.3002 22.0919 8.27548 22.1516C8.25076 22.2114 8.21452 22.2657 8.16881 22.3114C8.1231 22.3571 8.06883 22.3934 8.0091 22.4182C7.94936 22.4429 7.88534 22.4556 7.82068 22.4556Z" fill="#DEECF1"/>
</svg>
