<svg width="24" height="24" viewBox="0 0 24 24" fill="none" xmlns="http://www.w3.org/2000/svg">
<g clip-path="url(#clip0_19218_1078)">
<path d="M9.79059 23.2968C9.79059 23.6851 10.1054 23.9999 10.4937 23.9999H13.5063C13.8946 23.9999 14.2094 23.6851 14.2094 23.2968V20.8874H9.79059V23.2968ZM13.6945 11.9499C13.1664 11.9499 12.7031 12.6771 12.7031 13.5062C12.7031 14.3352 13.1664 15.0624 13.6945 15.0624C14.2226 15.0624 14.6859 14.3352 14.6859 13.5062C14.6859 12.6771 14.2227 11.9499 13.6945 11.9499ZM5.22187 4.4187H4.41876V6.02497H5.22187C6.28758 5.98067 6.28673 4.46253 5.22187 4.4187Z" fill="white"/>
<path d="M20.2844 0H3.71564C1.66003 0 0 1.66378 0 3.71564V15.7657C0 17.8212 1.66355 19.4813 3.71564 19.4813H20.2844C22.34 19.4813 24 17.8175 24 15.7656V3.71564C24 1.66003 22.3365 0 20.2844 0ZM8.28436 3.71564C8.32153 2.78273 9.65381 2.78344 9.69061 3.71564V8.23439C9.65344 9.1673 8.32116 9.16659 8.28436 8.23439V3.71564ZM4.97259 16.4687H3.71564C2.78273 16.4316 2.78344 15.0993 3.71564 15.0625H4.97259C5.05195 15.0624 5.12802 15.0308 5.18413 14.9747C5.24024 14.9186 5.2718 14.8425 5.27189 14.7632C5.27189 14.7341 5.26421 14.7056 5.24965 14.6804C5.23508 14.6553 5.21413 14.6344 5.18892 14.62L3.42736 13.6133C1.96448 12.7507 2.69264 10.5362 4.34147 10.5437H5.59842C6.53133 10.5809 6.53062 11.9131 5.59842 11.9499H4.34147C4.26212 11.95 4.18604 11.9816 4.12993 12.0377C4.07382 12.0938 4.04226 12.1699 4.04217 12.2492C4.04217 12.2783 4.04983 12.3068 4.06439 12.332C4.07895 12.3571 4.09989 12.3779 4.12509 12.3924L5.8867 13.3991C7.34963 14.2619 6.62142 16.4763 4.97259 16.4687ZM5.22188 7.43123H4.41877V8.23434C4.38159 9.16725 3.04931 9.16655 3.01252 8.23434V3.71559C3.01252 3.32728 3.32733 3.01247 3.71564 3.01247H5.22188C8.15363 3.1342 8.15137 7.31063 5.22188 7.43123ZM10.1172 11.95H9.69061V15.7656C9.65344 16.6985 8.32116 16.6978 8.28436 15.7656V11.95H7.8578C6.92489 11.9128 6.92559 10.5805 7.8578 10.5437H10.1171C11.0501 10.5809 11.0494 11.9132 10.1172 11.95ZM10.5438 3.71564C10.5438 3.32733 10.8586 3.01252 11.2469 3.01252H13.5063C14.4392 3.04969 14.4385 4.38197 13.5063 4.41877H13.0797V8.23439C13.0425 9.1673 11.7102 9.16659 11.6734 8.23439V4.41877H11.2469C10.8585 4.41877 10.5438 4.10395 10.5438 3.71564ZM13.6945 16.4687C12.3851 16.4687 11.2969 15.1786 11.2969 13.5062C11.4077 9.5783 15.9799 9.57478 16.0922 13.5063C16.0922 15.1744 15.0075 16.4687 13.6945 16.4687ZM19.1547 14.9625H18.3516V15.7656C18.3144 16.6985 16.9821 16.6978 16.9453 15.7656V11.2469C16.9453 10.8585 17.2601 10.5437 17.6484 10.5437H19.1547C22.0864 10.6654 22.0842 14.8419 19.1547 14.9625Z" fill="white"/>
<path d="M19.1547 11.95H18.3516V13.5562H19.1547C20.2204 13.512 20.2196 11.9938 19.1547 11.95Z" fill="white"/>
</g>
<defs>
<clipPath id="clip0_19218_1078">
<rect width="24" height="24" fill="white"/>
</clipPath>
</defs>
</svg>
