<svg width="24" height="24" viewBox="0 0 24 24" fill="none" xmlns="http://www.w3.org/2000/svg">
<path fill-rule="evenodd" clip-rule="evenodd" d="M16 6C16.5304 6 17.0391 5.78929 17.4142 5.41421C17.7893 5.03914 18 4.53043 18 4C18 3.46957 17.7893 2.96086 17.4142 2.58579C17.0391 2.21071 16.5304 2 16 2C15.4696 2 14.9609 2.21071 14.5858 2.58579C14.2107 2.96086 14 3.46957 14 4C14 4.53043 14.2107 5.03914 14.5858 5.41421C14.9609 5.78929 15.4696 6 16 6ZM13.243 5.53C13.4058 5.57079 13.5557 5.6519 13.6789 5.76584C13.8021 5.87978 13.8946 6.0229 13.948 6.182C14.13 6.725 14.384 7.2 14.697 7.6C15.559 8.7 16.95 9.328 18.836 9.014C18.9673 8.98807 19.1025 8.98877 19.2336 9.01605C19.3646 9.04334 19.4888 9.09665 19.5989 9.17284C19.709 9.24903 19.8026 9.34654 19.8743 9.45959C19.946 9.57265 19.9942 9.69894 20.0162 9.83098C20.0381 9.96303 20.0334 10.0981 20.0021 10.2283C19.9709 10.3585 19.9139 10.481 19.8344 10.5888C19.7549 10.6965 19.6547 10.7871 19.5395 10.8554C19.4243 10.9236 19.2966 10.968 19.164 10.986C17.028 11.342 15.179 10.799 13.844 9.605L11.129 11.987L12.752 13.841C12.9118 14.0233 13 14.2575 13 14.5V19C13 19.2652 12.8946 19.5196 12.7071 19.7071C12.5196 19.8946 12.2652 20 12 20C11.7348 20 11.4804 19.8946 11.2929 19.7071C11.1054 19.5196 11 19.2652 11 19V14.876L8.969 12.556L8.925 12.506C8.685 12.239 8.285 11.791 8.111 11.263C8.005 10.938 7.971 10.563 8.086 10.167C8.196 9.783 8.424 9.457 8.706 9.18L8.72 9.167L12.313 5.773C12.4351 5.65764 12.5843 5.5749 12.7469 5.53243C12.9094 5.48996 13.0801 5.48913 13.243 5.53ZM2 17C2 16.2044 2.31607 15.4413 2.87868 14.8787C3.44129 14.3161 4.20435 14 5 14C5.79565 14 6.55871 14.3161 7.12132 14.8787C7.68393 15.4413 8 16.2044 8 17C8 17.7956 7.68393 18.5587 7.12132 19.1213C6.55871 19.6839 5.79565 20 5 20C4.20435 20 3.44129 19.6839 2.87868 19.1213C2.31607 18.5587 2 17.7956 2 17ZM5 12C3.67392 12 2.40215 12.5268 1.46447 13.4645C0.526784 14.4021 0 15.6739 0 17C0 18.3261 0.526784 19.5979 1.46447 20.5355C2.40215 21.4732 3.67392 22 5 22C6.32608 22 7.59785 21.4732 8.53553 20.5355C9.47322 19.5979 10 18.3261 10 17C10 15.6739 9.47322 14.4021 8.53553 13.4645C7.59785 12.5268 6.32608 12 5 12ZM16 17C16 16.2044 16.3161 15.4413 16.8787 14.8787C17.4413 14.3161 18.2044 14 19 14C19.7956 14 20.5587 14.3161 21.1213 14.8787C21.6839 15.4413 22 16.2044 22 17C22 17.7956 21.6839 18.5587 21.1213 19.1213C20.5587 19.6839 19.7956 20 19 20C18.2044 20 17.4413 19.6839 16.8787 19.1213C16.3161 18.5587 16 17.7956 16 17ZM19 12C17.6739 12 16.4021 12.5268 15.4645 13.4645C14.5268 14.4021 14 15.6739 14 17C14 18.3261 14.5268 19.5979 15.4645 20.5355C16.4021 21.4732 17.6739 22 19 22C20.3261 22 21.5979 21.4732 22.5355 20.5355C23.4732 19.5979 24 18.3261 24 17C24 15.6739 23.4732 14.4021 22.5355 13.4645C21.5979 12.5268 20.3261 12 19 12Z" fill="#6C6C6C"/>
</svg>
