<svg width="24" height="24" viewBox="0 0 24 24" fill="none" xmlns="http://www.w3.org/2000/svg">
<g clip-path="url(#clip0_19199_475)">
<path d="M21.6 2.4H20.4V1.2C20.4 0.48 19.92 0 19.2 0C18.48 0 18 0.48 18 1.2V2.4H6V1.2C6 0.48 5.52 0 4.8 0C4.08 0 3.6 0.48 3.6 1.2V2.4H1.2C0.6 2.4 0 2.88 0 3.6V20.4C0 21.12 0.6 21.6 1.2 21.6H8.52C7.68 20.16 7.2 18.48 7.2 16.8C7.2 11.52 11.52 7.2 16.8 7.2C19.08 7.2 21.12 8.04 22.8 9.36V3.6C22.8 3 22.2 2.4 21.6 2.4Z" fill="#6C6C6C"/>
<path d="M16.8 9.6001C12.84 9.6001 9.59998 12.8401 9.59998 16.8001C9.59998 20.7601 12.84 24.0001 16.8 24.0001C20.76 24.0001 24 20.7601 24 16.8001C24 12.8401 20.76 9.6001 16.8 9.6001ZM19.2 18.0001H16.8C16.08 18.0001 15.6 17.5201 15.6 16.8001V13.2001C15.6 12.4801 16.08 12.0001 16.8 12.0001C17.52 12.0001 18 12.4801 18 13.2001V15.6001H19.2C19.92 15.6001 20.4 16.0801 20.4 16.8001C20.4 17.5201 19.92 18.0001 19.2 18.0001Z" fill="#6C6C6C"/>
</g>
<defs>
<clipPath id="clip0_19199_475">
<rect width="24" height="24" fill="white"/>
</clipPath>
</defs>
</svg>
