<svg width="39" height="40" viewBox="0 0 39 40" fill="none" xmlns="http://www.w3.org/2000/svg">
<ellipse cx="19.5442" cy="20" rx="19.0608" ry="20" fill="#FFCDD2"/>
<path d="M22.9233 17.8404L20.5709 15.372C20.3335 15.1229 20.5016 14.697 20.8373 14.697L22.9948 14.697C23.3106 14.697 23.5666 14.9656 23.5666 15.297L23.5666 17.5608C23.5666 17.9131 23.1607 18.0895 22.9233 17.8404Z" fill="#C2CCDE" fill-opacity="0.25"/>
<path d="M21.7471 16.6062L13.8625 24.8793M20.5709 15.372L22.9233 17.8404C23.1607 18.0895 23.5666 17.9131 23.5666 17.5608L23.5666 15.297C23.5666 14.9656 23.3106 14.697 22.9948 14.697L20.8373 14.697C20.5016 14.697 20.3335 15.1229 20.5709 15.372Z" stroke="#D32F2F" stroke-linecap="round" stroke-linejoin="round"/>
</svg>
