<svg width="202" height="170" viewBox="0 0 202 170" fill="none" xmlns="http://www.w3.org/2000/svg">
<path d="M191.913 61.1517C196.77 76.3904 190.919 94.2289 185.576 99.8016C192.032 88.5222 192.107 76.0695 191.121 68.3977C190.5 63.6021 188.954 59.8522 187.257 56.7743C184.433 51.6571 180.554 48.7512 176.773 47.0928C167.545 45.569 156.044 51.6197 154.146 52.7176C151.561 54.204 150.552 56.8709 150.432 59.9488C153.997 57.4018 160.124 58.1937 160.124 58.1937C167.656 59.8444 171.864 64.4687 173.784 71.214C175.824 78.3478 174.643 85.2201 171.34 91.7715C168.03 98.3673 163.008 103.126 155.91 105.374C147.623 108.011 139.567 104.329 135.748 96.5375C130.398 85.6016 135.472 71.4834 142.011 65.6265C143.901 69.7875 145.77 73.9034 147.66 78.0192C149.117 81.2163 149.125 81.2163 152.831 83.5771C151.21 84.3013 148.026 83.0469 147.219 81.3214C146.165 79.0283 145.157 76.7197 144.036 74.2249C141.435 78.3485 140.427 82.5244 141.316 87.0506C142.923 95.1554 151.307 98.0839 158.092 92.9441C163.509 88.8508 166.087 80.8948 164.444 74.6057C163.405 70.6541 160.753 68.0169 156.314 67.7031C156.314 67.7031 156.306 67.7031 156.299 67.7031C154.856 67.6206 152.779 67.9795 151.749 68.4654C153.377 73.9859 155.911 78.7667 155.955 78.9754C156.06 79.4387 150.963 78.6919 150.381 78.1983L139.845 54.967C139.202 53.5476 139.396 51.8968 140.36 50.672C141.81 48.8048 144.111 45.8165 146.331 44.6135C147.698 43.8816 147.115 45.1889 151.277 44.9647C153.766 44.83 155.948 44.4866 158.361 44.1728C157.435 44.5536 156.314 45.002 155.126 45.4576C151.121 47.011 145.628 47.2803 145.628 47.2803C145.628 47.2803 149.85 47.7133 153.765 46.8918C156.142 46.3912 161.372 45.069 164.555 44.2623C166.349 43.7991 168.202 43.5748 170.055 43.5826C171.939 43.5974 173.739 43.6348 174.486 43.7469C176.242 44.0155 177.603 44.6509 177.767 44.7327C177.588 44.5233 175.869 42.6638 174.434 42.2598C172.962 41.8487 171.116 41.5948 169.427 41.4453C170.421 40.7733 170.75 40.1155 170.638 38.9802C168.754 40.7205 164.181 40.3623 160.886 40.0033C153.137 39.1445 146.644 36.4029 143.221 36.8359C137.647 37.5459 122.612 54.4953 117.396 64.2734C110.715 76.8078 111.418 92.7784 111.418 92.7784C111.418 92.7784 106.255 82.2085 109.46 66.7907C110.229 68.471 111.493 69.2037 112.202 67.4105C113.645 63.7953 115.259 60.3662 116.94 57.1691C115.214 57.4681 112.142 58.1479 109.056 59.6047C109.228 59.4474 112.038 56.9527 116.305 55.6453C117.426 55.2942 118.367 54.5326 118.95 53.5165C119.54 52.4856 120.138 51.4843 120.728 50.5134C119.233 50.715 115.064 51.4173 110.872 53.4044C111.103 53.195 114.87 49.8639 120.422 48.5637C121.572 48.295 122.566 47.5779 123.224 46.5992C123.964 45.4709 124.697 44.4104 125.406 43.4098C124.308 43.5368 119.264 44.2243 114.205 46.6295C114.205 46.6295 118.703 42.5059 125.377 41.1767C126.58 40.9376 127.67 40.3101 128.418 39.3391C129.352 38.1143 130.204 37.0608 130.922 36.1872C132.386 34.4018 132.461 31.8619 131.078 30.0172C129.98 28.5534 128.926 27.0888 128.926 26.8653C128.926 26.402 133.507 24.1611 133.507 24.1611C133.507 24.1611 138.76 29.8677 142.907 32.445C145.411 33.9984 153.847 37.4275 160.588 38.182C163.405 38.488 169.958 39.0782 169.188 34.0661C168.867 34.3721 168.501 34.6563 168.09 34.9024C167.454 35.2761 166.633 35.0293 166.319 34.3644C165.422 32.3921 163.569 28.1416 162.822 24.7428C162.717 24.2048 162.62 22.9426 163.09 22.8975C163.531 22.8453 164.6 23.9284 164.727 24.0631C163.8 22.6584 162.462 21.0747 162.462 21.0747C160.116 18.2062 157.262 15.734 153.742 13.747C154.669 15.8384 155.318 18.4382 152.673 18.2217C146.359 17.7063 141.151 14.1355 140.628 13.7625C141.091 14.0311 147.263 17.0569 150.7 17.0265C153.114 17.004 153.129 15.1593 152.426 13.0827C152.299 13.7399 151.866 14.1658 150.999 14.1736C148.287 14.1813 144.67 11.1485 141.651 8.09318C136.786 3.15513 134.358 2.11717 134.358 2.11717C136.824 1.42262 142.331 1.85557 144.192 2.28923C144.961 2.46128 145.656 2.75955 146.292 3.13327C144.535 1.49736 142.757 0.735107 140.792 0.399463C135.651 -0.481955 125.802 -0.00387174 123.65 2.83429C125.525 3.92514 127.266 4.8665 128.948 5.91221C130.704 7.00305 132.423 8.13831 134.096 9.34127C136.353 10.9849 139.775 14.316 138.162 15.9745C136.689 17.4905 129.83 14.7341 127.364 15.3843L124.338 18.5517L124.323 18.5814C124.181 18.783 124.069 18.9699 123.971 19.1567L111.784 22.0175C111.381 22.1148 111.021 22.3009 110.715 22.5555C109.191 22.406 107.562 22.339 105.888 22.4363C97.3174 22.937 87.8195 26.1192 86.0864 26.8582C80.4822 29.2486 76.4467 33.7678 74.4364 38.048C73.8834 39.2284 73.2704 39.7509 71.6868 39.9681C69.8409 40.2219 67.2035 40.334 66.2018 40.9468C65.993 41.0737 65.7384 41.365 65.4845 41.7084C64.5357 42.9783 63.0333 43.6877 61.4645 43.5537L50.6744 42.6123C50.2257 42.575 49.89 42.2168 49.8448 41.776C49.8371 41.6639 49.8152 41.5518 49.7926 41.4545C49.6805 41.066 49.3744 40.8869 49.2693 40.8199C46.0633 38.7877 43.8738 35.0751 43.9415 31.3626C43.9493 30.6977 43.9042 29.3678 43.7476 29.0914C43.531 28.7402 42.9477 28.7106 42.0659 28.5237C39.4652 27.9561 33.9809 26.8956 33.6071 26.94C26.1943 27.8144 12.5269 29.4277 6.16791 30.2267C5.58527 30.3014 5.30876 30.9663 5.64452 31.4367C6.3767 32.445 7.04188 33.3941 7.16884 33.4759C13.9835 37.5248 62.742 65.6716 62.8915 65.8211C63.041 65.9706 62.7942 66.2766 62.4358 66.2766C62.361 66.2766 61.4871 66.015 60.2089 65.6117C60.1793 65.6039 60.1419 65.5969 60.1045 65.5821C58.3862 65.2309 49.6057 66.381 49.4788 66.4409C48.6118 66.8295 47.3344 68.7792 46.7362 69.5485C39.1965 64.5582 28.5707 64.1478 24.2587 65.2683C23.1456 65.7986 28.6447 65.5595 35.2287 67.9499C37.4105 68.7495 42.3876 71.6399 43.5233 73.9259C43.785 74.3815 42.9103 73.8286 42.7911 73.7391C35.3783 67.9274 25.3203 67.7405 17.6536 71.6625C5.64523 77.795 0.840198 91.6001 0.369712 102.387C0.0113805 110.828 1.55757 120.479 7.4912 127C-0.370223 106.622 7.79028 92.7354 11.3172 88.0519C11.4963 87.8206 15.9049 81.7177 23.475 79.8723C29.4827 78.4155 37.0225 79.9097 39.9294 85.3251L43.5684 84.9141L40.3103 86.1093L30.028 90.3598C29.1315 90.7258 28.1524 90.8083 27.2107 90.5911C25.8585 90.2773 23.6986 90.0009 21.8308 90.7258C17.3249 92.4816 14.8144 97.1199 15.0162 101.99C15.3223 109.393 20.8299 110.64 24.2594 109.707C28.407 108.571 31.0296 104.896 32.1949 101.056C32.6358 99.6217 33.3157 98.9343 34.7582 98.5986C35.0051 98.5387 35.2443 98.4794 35.4904 98.4265C35.1765 100.264 34.4147 102.939 32.5462 105.859C30.9393 108.377 26.7254 110.999 24.7221 111.237C24.7221 111.237 29.6316 111.888 33.6219 106.218C35.1758 103.999 36.26 101.37 36.9618 99.2403C37.2235 98.4484 37.8809 97.8512 38.6957 97.6488C42.2458 96.7864 51.9363 94.2902 58.1944 92.7269C58.1147 92.9871 58.0858 93.0781 57.999 93.327C54.0566 94.7415 48.633 96.6588 46.5938 97.3428C45.1901 97.8138 44.7929 98.2467 44.6885 99.6507C44.0382 107.957 40.2574 114.449 32.9567 118.61C31.7759 119.282 30.5732 119.827 29.3621 120.216C29.6612 120.164 29.9525 120.126 30.2368 120.081C30.289 120.066 30.3489 120.052 30.4089 120.044C33.5626 119.387 42.9773 116.414 45.8397 103.774C45.7727 104.41 44.3972 114.598 36.3348 119.117C43.4711 117.974 49.7031 116.958 55.4646 116.055C56.6158 113.874 57.5419 111.603 58.2818 109.227L68.4294 107.36C65.3956 103.707 64.267 100.966 64.2077 100.824C68.4597 106.411 75.6856 112.821 77.9647 112.537H77.9725C77.9725 112.537 112.854 106.777 126.215 104.522C121.978 90.7991 126.798 81.5146 127.007 81.1183C124.317 91.2927 127.015 100.137 128.928 104.051C132.336 111.14 138.358 117.677 147.154 119.925C178.686 128.022 204.922 88.8875 191.913 61.1517ZM160.244 87.8114C163.689 82.7542 164.653 72.4459 158.376 69.1889C165.169 72.02 164.452 83.0306 160.827 88.1922C158.825 91.158 155.656 93.5181 152.04 93.9518C148.536 94.415 144.492 92.6593 143.245 89.2161C144.702 92.4653 148.595 93.9891 151.972 93.4589C155.371 92.9061 158.383 90.6729 160.244 87.8114ZM139.799 21.6952C146.912 22.1656 156.313 29.4792 156.769 29.8374C156.537 29.5688 152.697 25.2505 149.737 23.5032C149.049 23.0921 148.384 22.7261 147.757 22.3898C150.358 22.8009 152.778 23.4503 154.146 24.4664C158.503 27.6931 161.275 31.7497 162.665 34.1472C163.173 35.0216 162.987 35.9622 161.977 35.8578C155.715 35.2303 152.315 33.7361 147.772 31.3013C141.697 28.0365 136.997 21.6579 136.997 21.6579C136.997 21.6579 138.118 21.6431 139.799 21.6952ZM22.8614 103.745C21.105 103.76 20.0145 102.61 19.9841 100.742C19.9319 98.2545 22.1214 95.6251 24.3032 95.5433C25.9848 95.4763 27.2544 96.7011 27.3222 98.4717C27.3969 101.041 25.1327 103.731 22.8614 103.745ZM111.508 23.4806C112.053 23.2642 112.704 23.6075 112.951 24.2429C113.205 24.8775 112.965 25.5798 112.412 25.7892C111.867 26.0057 111.217 25.6701 110.97 25.027C110.716 24.3917 110.955 23.6971 111.508 23.4806ZM67.2253 43.321C67.4045 42.8352 67.6436 42.2527 67.8757 42.0807C68.847 41.3784 71.4773 41.1696 73.4729 41.1245C74.9224 41.0794 75.5424 39.9215 76.1032 38.5924C76.9849 36.5009 78.8901 33.961 81.5134 31.7575C84.816 28.9863 87.895 27.6113 92.7522 26.3343C95.6443 25.5728 100.815 24.2725 106.255 24.0638C107.555 24.0116 108.729 24.049 109.79 24.1308C109.73 24.5045 109.753 24.8853 109.872 25.266C109.88 25.2886 109.887 25.3112 109.895 25.326C110.321 26.5811 111.696 27.246 112.974 26.9174L126.081 23.5413C127.328 23.2197 128.158 21.9202 127.837 20.6728C127.837 20.658 127.829 20.6354 127.822 20.6206C127.725 20.2546 127.538 19.9408 127.299 19.6792L127.307 19.6715C127.307 19.6715 129.339 21.0014 128.607 23.2493C128.323 24.1385 127.687 24.5419 126.477 24.9678L125.618 25.2146C125.289 25.3119 125.102 25.6553 125.207 25.9839C125.207 25.9839 125.207 25.9909 125.214 25.9909C125.297 26.2821 125.133 26.5889 124.848 26.6629C122.457 27.2905 113.296 29.6879 112.324 30.0468C111.756 30.2563 110.972 30.704 110.397 31.0474C109.896 31.3535 109.29 31.4211 108.737 31.2491C106.899 30.6667 104.643 30.0391 103.499 30.0461C99.6734 30.0609 88.9128 33.2432 88.2406 33.4449C88.958 33.3328 101.833 31.271 103.694 32.2497C104.284 32.5635 104.979 33.191 105.861 33.5048C108.342 34.3714 107.221 35.4249 106.653 36.4706C103.5 42.2675 99.7185 50.0586 95.2951 53.3156C94.4578 53.9354 90.5056 52.0759 87.6283 49.7377L85.5207 48.2513C85.1468 47.9897 84.7659 47.7436 84.3702 47.5046C84.1537 47.3699 80.1485 44.9421 76.8601 42.276C77.3609 43.2244 78.0853 44.3152 79.0199 45.3088C78.1008 45.0845 77.1591 44.9202 76.2027 44.8384L67.736 44.1065C67.3452 44.0677 67.0984 43.6792 67.2253 43.321ZM90.1959 61.5029C84.1431 58.2388 82.7683 54.6158 82.6935 54.3916C85.1892 56.7446 88.9855 58.7021 91.8924 59.9868C94.0967 60.9656 95.1653 62.3547 94.7019 65.7238C94.328 68.3681 94.0296 70.4073 93.6107 73.2462C92.4299 81.2389 88.1256 88.2909 81.438 91.8836C79.5997 92.8771 77.5824 93.602 75.3999 94.0124C85.2117 91.7115 90.6587 83.0687 91.6673 72.723C92.0109 69.2643 92.183 67.3372 92.2352 65.4248C92.2888 63.803 91.6236 62.2722 90.1959 61.5029ZM32.9264 29.1125C33.2403 29.0829 33.4568 28.8213 33.4794 28.5075C33.5245 27.8729 33.8532 27.6113 33.8532 27.6113C33.8532 27.6113 33.7714 28.7614 34.2045 28.8213C35.3557 28.9631 40.7808 29.994 42.2522 30.2781C42.4617 30.3233 42.6183 30.5024 42.626 30.7266C42.6486 31.309 42.6712 32.4224 42.7234 32.8702C43.172 36.6948 44.9954 38.9506 46.9754 40.4596C46.9754 40.4596 44.8755 39.5929 38.5391 38.7637C37.7399 38.6593 36.327 35.7979 35.2287 33.2362C34.4514 31.4056 32.6132 30.2556 30.6254 30.3451L10.4418 31.2491L32.9264 29.1125ZM64.9314 64.1246C64.3862 64.0273 18.0563 37.8752 14.4695 35.836C18.0789 37.7187 63.9453 61.6446 65.0062 61.6002C67.1957 60.1659 69.1313 59.6434 69.1313 59.6434C69.1313 59.6434 66.9566 61.1962 64.9314 64.1246ZM79.3014 110.894C75.6546 110.102 71.2756 105.247 71.0069 104.941C71.3433 105.194 77.0667 109.565 80.3778 109.079L120.341 102.827C122.456 103.484 124.1 103.611 124.1 103.611L79.3014 110.894ZM174.031 95.5884C170.496 101.684 164.697 106.741 157.696 108.212C151.067 109.893 142.773 108.959 138.357 103.245C143.079 108.526 151.008 109.146 157.472 107.338C164.213 105.68 169.63 100.951 173 94.9904C179.725 83.905 181.093 65.2302 167.426 58.9101C182.018 64.6104 180.86 84.1814 174.031 95.5884Z" fill="#00EDED"/>
<path d="M36.1169 126.75C37.6347 126.667 38.9126 126.742 39.9508 126.974C41.0041 127.189 41.8037 127.602 42.3498 128.213C42.9109 128.807 43.2207 129.64 43.279 130.71C43.3138 131.349 43.2417 131.938 43.0627 132.477C42.8838 133.015 42.6037 133.463 42.2226 133.82C41.8574 134.177 41.3979 134.418 40.8439 134.544L40.8505 134.664C41.4317 134.745 41.9618 134.916 42.4408 135.178C42.9198 135.441 43.3099 135.836 43.611 136.365C43.9122 136.893 44.0872 137.605 44.1359 138.499C44.1925 139.538 43.9856 140.446 43.5153 141.225C43.0601 141.987 42.372 142.593 41.4512 143.044C40.5295 143.479 39.4216 143.731 38.1275 143.802L31.729 144.15L30.7968 127.04L36.1169 126.75ZM36.8938 133.51C37.9482 133.452 38.666 133.245 39.0472 132.888C39.4443 132.53 39.6254 132.031 39.5906 131.392C39.5549 130.737 39.2896 130.279 38.7946 130.017C38.2997 129.756 37.533 129.653 36.4945 129.71L34.5774 129.814L34.7849 133.625L36.8938 133.51ZM34.9416 136.5L35.1844 140.958L37.5569 140.829C38.6433 140.769 39.3909 140.52 39.7996 140.081C40.2075 139.627 40.3922 139.048 40.3539 138.345C40.3304 137.913 40.2141 137.543 40.005 137.234C39.8119 136.924 39.4868 136.693 39.0299 136.542C38.573 136.391 37.9611 136.336 37.1943 136.378L34.9416 136.5ZM50.4004 130.01L51.1132 143.094L47.5425 143.289L46.8297 130.204L50.4004 130.01ZM48.3477 124.978C48.8749 124.949 49.3372 125.052 49.7345 125.287C50.131 125.506 50.3475 125.951 50.3841 126.622C50.4198 127.277 50.2529 127.743 49.8834 128.019C49.5139 128.296 49.0655 128.448 48.5383 128.477C47.9951 128.506 47.5248 128.404 47.1274 128.169C46.7461 127.934 46.5375 127.488 46.5018 126.833C46.4653 126.162 46.6242 125.697 46.9786 125.437C47.3481 125.161 47.8045 125.008 48.3477 124.978ZM57.8666 132.632C57.8936 133.127 57.8966 133.623 57.8756 134.121C57.8698 134.602 57.8564 135.092 57.8355 135.59L57.8834 135.587C58.031 135.355 58.1785 135.122 58.3261 134.89C58.4897 134.657 58.6532 134.423 58.8168 134.19C58.9803 133.957 59.1523 133.731 59.3327 133.513L62.7826 129.335L66.8086 129.116L61.9177 135.079L67.833 142.184L63.7111 142.408L59.6601 137.317L58.193 138.623L58.4149 142.697L54.8442 142.891L53.852 124.678L57.4227 124.484L57.8666 132.632ZM74.3711 128.464C75.5853 128.397 76.6364 128.573 77.5244 128.989C78.4283 129.404 79.1438 130.038 79.671 130.891C80.1982 131.743 80.4966 132.809 80.5662 134.087L80.6602 135.812L72.2247 136.272C72.3115 137.277 72.6501 138.051 73.2406 138.596C73.8471 139.14 74.6536 139.384 75.6601 139.33C76.5068 139.283 77.2694 139.162 77.9476 138.965C78.625 138.751 79.3216 138.449 80.0374 138.058L80.1875 140.813C79.5659 141.168 78.8995 141.436 78.1884 141.619C77.4942 141.817 76.6438 141.944 75.6373 141.999C74.3272 142.07 73.1559 141.894 72.1233 141.469C71.0898 141.029 70.2585 140.329 69.6294 139.37C69.0002 138.41 68.6448 137.18 68.563 135.678C68.4794 134.145 68.6658 132.86 69.1223 131.826C69.5938 130.775 70.2789 129.968 71.1777 129.407C72.0765 128.845 73.1409 128.531 74.3711 128.464ZM74.5335 131.003C73.8465 131.04 73.2835 131.295 72.8446 131.768C72.4216 132.239 72.1959 132.949 72.1673 133.896L77.1759 133.623C77.1472 133.095 77.0257 132.629 76.8113 132.224C76.6129 131.819 76.3235 131.506 75.943 131.286C75.5625 131.067 75.0926 130.972 74.5335 131.003ZM90.447 127.588C90.6227 127.578 90.8308 127.575 91.0713 127.578C91.3119 127.581 91.5049 127.594 91.6504 127.618L91.5696 130.988C91.456 130.962 91.2869 130.947 91.0624 130.943C90.853 130.923 90.6684 130.917 90.5086 130.925C90.0453 130.951 89.6014 131.039 89.177 131.19C88.7518 131.326 88.3704 131.531 88.0328 131.805C87.7112 132.079 87.4584 132.438 87.2742 132.88C87.1051 133.306 87.0375 133.831 87.0714 134.454L87.4344 141.116L83.8637 141.31L83.1509 128.226L85.8588 128.078L86.5062 130.254L86.6739 130.245C86.9052 129.784 87.2025 129.359 87.5659 128.971C87.9293 128.582 88.3526 128.263 88.8357 128.012C89.3347 127.761 89.8718 127.619 90.447 127.588ZM104.506 140.883C104.091 140.905 103.689 140.895 103.302 140.852C102.932 140.824 102.6 140.754 102.306 140.642C101.88 140.473 101.425 140.209 100.941 139.851C100.455 139.477 100.113 139.071 99.9128 138.633C99.7481 138.258 99.6575 137.918 99.6409 137.615C99.6105 137.055 99.7441 136.567 100.042 136.151C100.355 135.717 100.735 135.352 101.184 135.055C101.648 134.741 102.075 134.494 102.465 134.312C102.56 134.275 102.631 134.255 102.679 134.252C102.806 134.245 102.873 134.29 102.878 134.386C102.884 134.497 102.825 134.581 102.699 134.636C102.325 134.816 101.964 135.108 101.617 135.512C101.271 135.915 100.991 136.363 100.777 136.856C100.579 137.331 100.492 137.793 100.516 138.24C100.545 138.767 100.777 139.211 101.214 139.572C101.649 139.917 102.378 140.061 103.401 140.006C104.183 139.963 105.023 139.781 105.919 139.46C106.83 139.138 107.638 138.805 108.34 138.463C108.558 138.355 108.87 138.185 109.274 137.955C109.694 137.724 110.136 137.451 110.599 137.138C111.079 136.823 111.526 136.494 111.94 136.151C112.369 135.791 112.711 135.452 112.966 135.134C113.236 134.799 113.364 134.503 113.35 134.248C113.336 133.992 113.182 133.808 112.887 133.696C112.592 133.568 112.227 133.492 111.793 133.467C111.358 133.427 110.917 133.419 110.47 133.443C110.103 133.463 109.76 133.498 109.442 133.547C109.14 133.596 108.91 133.64 108.752 133.681C108.5 133.759 108.229 133.918 107.937 134.158C107.645 134.382 107.363 134.502 107.091 134.517C106.9 134.527 106.736 134.464 106.6 134.327C106.465 134.19 106.393 134.042 106.384 133.882C106.375 133.722 106.423 133.568 106.527 133.418C106.647 133.267 106.857 133.159 107.158 133.095C107.459 133.03 107.809 132.987 108.209 132.966C108.623 132.927 108.979 132.843 109.277 132.715C109.888 132.458 110.496 132.16 111.103 131.822C111.725 131.484 112.297 131.092 112.817 130.647C113.337 130.187 113.757 129.659 114.077 129.065C114.252 128.751 114.332 128.442 114.315 128.138C114.287 127.627 113.963 127.268 113.343 127.062C112.722 126.839 111.971 126.72 111.088 126.704C110.982 126.806 110.883 126.907 110.792 127.008C110.701 127.093 110.617 127.178 110.542 127.262C110.149 127.7 109.682 128.246 109.141 128.901C108.6 129.555 108.038 130.267 107.455 131.036C106.871 131.789 106.336 132.571 105.852 133.382C105.366 134.178 104.976 134.952 104.681 135.706C104.385 136.459 104.254 137.147 104.288 137.77C104.305 138.074 104.367 138.335 104.475 138.553C104.582 138.755 104.812 138.847 105.163 138.828L105.174 139.02C105.08 139.073 104.978 139.102 104.866 139.109C104.594 139.123 104.349 139.033 104.13 138.836C103.91 138.624 103.736 138.377 103.609 138.095C103.481 137.798 103.41 137.537 103.398 137.314C103.369 136.786 103.472 136.172 103.706 135.47C103.94 134.752 104.259 133.998 104.665 133.207C105.07 132.416 105.516 131.63 106.002 130.85C106.504 130.054 107.008 129.305 107.514 128.605C108.021 127.904 108.485 127.294 108.905 126.775C107.915 126.844 106.992 126.951 106.134 127.094C105.276 127.221 104.664 127.318 104.299 127.386C103.617 127.503 102.921 127.677 102.213 127.908C101.504 128.139 100.846 128.407 100.238 128.713C99.6444 129.002 99.1644 129.308 98.7975 129.633C98.4457 129.94 98.2776 130.238 98.2933 130.525C98.2977 130.605 98.3495 130.675 98.4488 130.733C98.5482 130.792 98.6538 130.818 98.7656 130.812C98.8161 130.857 98.8423 130.896 98.844 130.928C98.8484 131.008 98.7618 131.037 98.5843 131.014C98.4069 130.992 98.1775 130.9 97.8964 130.739C97.6303 130.561 97.3865 130.35 97.1648 130.106C96.9592 129.861 96.8512 129.642 96.8407 129.451C96.8233 129.131 96.9909 128.826 97.3436 128.534C97.7113 128.226 98.2007 127.943 98.8116 127.685C99.4376 127.41 100.138 127.172 100.912 126.97C101.685 126.751 102.476 126.572 103.286 126.432C103.857 126.32 104.509 126.229 105.242 126.157C105.974 126.069 106.732 126.004 107.515 125.961C108.234 125.922 108.938 125.907 109.627 125.918L109.695 125.842C109.594 125.752 109.54 125.642 109.533 125.514C109.522 125.307 109.615 125.101 109.812 124.898C110.025 124.679 110.254 124.482 110.501 124.308C110.747 124.118 110.939 123.964 111.077 123.844C111.221 123.836 111.422 123.865 111.682 123.931C111.942 123.981 112.17 124.065 112.369 124.182C112.584 124.299 112.696 124.453 112.707 124.645C112.711 124.724 112.7 124.813 112.673 124.911C112.617 125.058 112.498 125.233 112.317 125.435C112.152 125.636 111.955 125.847 111.727 126.068C112.146 126.125 112.536 126.208 112.894 126.317C113.268 126.409 113.595 126.535 113.876 126.696C114.272 126.899 114.507 127.094 114.581 127.283C114.671 127.47 114.712 127.628 114.703 127.757C114.694 127.885 114.73 127.955 114.811 127.967C115.107 128.4 115.266 128.832 115.29 129.263C115.318 129.774 115.159 130.239 114.813 130.659C114.482 131.061 114.053 131.405 113.523 131.691C113.01 131.975 112.478 132.204 111.926 132.378C111.375 132.553 110.9 132.667 110.503 132.72C110.439 132.724 110.408 132.75 110.411 132.798C110.413 132.845 110.487 132.866 110.63 132.858C111.03 132.836 111.479 132.852 111.979 132.904C112.479 132.957 112.918 133.086 113.298 133.289C113.693 133.476 113.909 133.777 113.948 134.191C113.935 134.256 113.98 134.334 114.081 134.424C114.197 134.498 114.306 134.596 114.409 134.719C114.528 134.841 114.593 134.997 114.603 135.189C114.61 135.317 114.57 135.471 114.484 135.652C114.077 136.411 113.468 137.15 112.658 137.867C111.847 138.568 110.862 139.166 109.703 139.662C109.312 139.828 108.824 139.999 108.241 140.175C107.658 140.351 107.041 140.504 106.391 140.636C105.757 140.766 105.129 140.849 104.506 140.883ZM117.663 139.781C117.216 139.806 116.905 139.678 116.729 139.4C116.569 139.104 116.504 138.803 116.536 138.497C116.577 138.078 116.693 137.695 116.882 137.348C117.087 137.001 117.294 136.669 117.501 136.353C117.649 136.137 117.751 135.955 117.807 135.808C117.88 135.66 117.851 135.581 117.723 135.572C117.646 135.64 117.522 135.711 117.35 135.785C117.177 135.858 117.003 135.9 116.828 135.909C116.684 135.917 116.546 135.892 116.415 135.835C116.284 135.778 116.19 135.671 116.133 135.514C115.987 135.779 115.848 136.027 115.717 136.258C115.584 136.474 115.459 136.681 115.342 136.879C115.121 137.228 114.915 137.56 114.723 137.874C114.531 138.173 114.278 138.524 113.963 138.925C113.859 139.059 113.758 139.129 113.662 139.134C113.566 139.139 113.515 139.086 113.509 138.974C113.506 138.91 113.526 138.845 113.571 138.779C113.914 138.311 114.197 137.911 114.419 137.579C114.64 137.23 114.898 136.823 115.194 136.359C115.487 135.862 115.737 135.312 115.945 134.707C116.152 134.103 116.315 133.566 116.434 133.094C116.552 132.607 116.616 132.315 116.627 132.219C117.051 132.356 117.348 132.516 117.518 132.699C117.704 132.881 117.803 133.084 117.815 133.308C117.832 133.611 117.705 133.93 117.435 134.266C117.181 134.6 116.877 134.913 116.525 135.205C116.68 135.404 116.853 135.499 117.045 135.489C117.253 135.477 117.456 135.378 117.654 135.191C117.868 135.003 118.028 134.85 118.133 134.732C118.372 134.399 118.643 134.224 118.946 134.207C119.122 134.198 119.277 134.245 119.411 134.35C119.56 134.438 119.638 134.562 119.647 134.722C119.652 134.802 119.632 134.883 119.588 134.966C119.366 135.298 119.116 135.704 118.837 136.184C118.559 136.664 118.305 137.143 118.074 137.62C117.859 138.08 117.704 138.473 117.61 138.799C117.597 138.864 117.584 138.92 117.571 138.969C117.573 139.001 117.575 139.033 117.576 139.065C117.583 139.193 117.643 139.254 117.755 139.248C117.834 139.243 117.929 139.206 118.037 139.136C118.145 139.066 118.23 138.997 118.29 138.93C118.564 138.659 118.901 138.24 119.303 137.673C119.705 137.106 120.076 136.565 120.417 136.05C120.623 135.718 120.766 135.55 120.846 135.546C120.926 135.542 120.931 135.645 120.863 135.858C120.81 136.069 120.703 136.315 120.542 136.596C120.321 136.945 120.064 137.367 119.77 137.864C119.492 138.344 119.171 138.778 118.808 139.166C118.46 139.554 118.079 139.759 117.663 139.781ZM122.023 139.592C121.496 139.621 121.047 139.461 120.675 139.113C120.32 138.763 120.125 138.285 120.092 137.678C120.064 137.167 120.156 136.649 120.368 136.125C120.579 135.585 120.818 135.115 121.085 134.716C121.486 134.133 121.955 133.635 122.493 133.221C123.048 132.806 123.572 132.585 124.068 132.558C124.243 132.549 124.409 132.644 124.564 132.844C124.734 133.027 124.948 133.127 125.205 133.145C125.27 133.158 125.335 133.178 125.401 133.207C125.482 133.218 125.565 133.286 125.652 133.409C125.879 133.75 126.003 134.119 126.025 134.519C126.057 135.11 125.901 135.759 125.555 136.467C125.224 137.174 124.771 137.816 124.193 138.392C123.904 138.68 123.574 138.947 123.203 139.191C122.832 139.436 122.439 139.569 122.023 139.592ZM122.045 139.11C122.429 139.089 122.828 138.915 123.242 138.588C123.656 138.245 124.035 137.832 124.377 137.349C124.734 136.848 125.011 136.345 125.208 135.837C125.42 135.313 125.515 134.859 125.494 134.476C125.478 134.172 125.393 133.952 125.242 133.816C125.089 133.664 124.901 133.594 124.678 133.607C124.278 133.628 123.882 133.85 123.488 134.272C123.094 134.694 122.712 135.172 122.34 135.705C122.013 136.171 121.727 136.652 121.481 137.146C121.252 137.639 121.147 138.061 121.166 138.413C121.18 138.668 121.278 138.855 121.461 138.974C121.643 139.076 121.837 139.121 122.045 139.11ZM128.058 138.903C127.659 138.924 127.295 138.856 126.966 138.698C126.636 138.523 126.46 138.237 126.438 137.837C126.43 137.693 126.446 137.54 126.485 137.378C126.537 137.151 126.617 137.002 126.725 136.932C126.849 136.845 126.905 136.858 126.895 136.971C126.872 137.133 126.912 137.275 127.015 137.397C127.118 137.52 127.251 137.617 127.415 137.688C127.611 137.757 127.773 137.788 127.901 137.782C128.221 137.764 128.502 137.629 128.744 137.375C129.002 137.105 129.123 136.826 129.107 136.538C129.097 136.346 129.032 136.19 128.913 136.068C128.707 135.807 128.48 135.611 128.232 135.48C128 135.333 127.812 135.118 127.669 134.838L127.647 134.887C127.533 135.15 127.403 135.397 127.255 135.629C127.123 135.845 126.998 136.052 126.88 136.251C126.659 136.599 126.445 136.931 126.238 137.247C126.046 137.546 125.792 137.896 125.478 138.298C125.373 138.432 125.272 138.502 125.176 138.507C125.081 138.512 125.03 138.459 125.024 138.347C125.02 138.283 125.041 138.218 125.085 138.151C125.428 137.684 125.711 137.284 125.933 136.951C126.17 136.602 126.429 136.195 126.708 135.731C126.855 135.499 127.002 135.243 127.147 134.962C127.307 134.665 127.42 134.387 127.486 134.127C127.442 133.616 127.586 133.168 127.917 132.781C128.248 132.379 128.663 132.068 129.164 131.848C129.665 131.628 130.14 131.522 130.589 131.53C130.701 131.524 130.817 131.606 130.939 131.775C131.076 131.944 131.19 132.122 131.28 132.31C131.386 132.48 131.447 132.581 131.465 132.612L131.468 132.66C131.47 132.708 131.449 132.749 131.402 132.784C131.372 132.817 131.315 132.804 131.232 132.745C131.183 132.731 131.103 132.728 130.991 132.734C130.751 132.747 130.466 132.811 130.136 132.925C129.805 133.023 129.476 133.161 129.149 133.339C128.838 133.516 128.584 133.706 128.387 133.909C128.19 134.112 128.113 134.325 128.157 134.547C128.201 134.753 128.297 134.908 128.447 135.012C128.597 135.116 128.78 135.234 128.995 135.366C129.21 135.483 129.445 135.67 129.699 135.929C130.022 136.264 130.193 136.615 130.213 136.983C130.23 137.302 130.143 137.603 129.95 137.886C129.756 138.153 129.52 138.374 129.241 138.55C128.916 138.76 128.522 138.877 128.058 138.903Z" fill="#00D8D8"/>
</svg>
