<svg width="24" height="25" viewBox="0 0 24 25" fill="none" xmlns="http://www.w3.org/2000/svg">
<path d="M0.431262 10.3391H1.12501V23.5859H0.431262V10.3391ZM22.875 23.5859H23.5734V10.3391H22.875V23.5859ZM22.4484 1.41406V9.76719H23.9953V1.41406H22.4484ZM21.8719 2.3V8.95625C15.2344 9.57031 8.77032 9.57031 2.12814 8.95625V2.3C8.77032 2.96094 15.2344 2.96094 21.8719 2.3ZM5.91095 4.30625C5.35314 4.26406 5.07657 4.24063 4.52345 4.19375C4.06407 4.15156 3.67032 4.47969 3.63282 4.92031L3.60001 5.27656C3.54845 5.7125 3.91407 6.125 4.35001 6.15312C4.70157 6.18594 4.87501 6.2 5.22657 6.22344C5.3672 6.23281 5.47501 6.34531 5.46564 6.47188L5.43751 6.82812C5.41876 6.97813 5.29689 7.04375 5.16095 7.03437C4.58907 6.99219 4.30314 6.96406 3.72657 6.9125C3.5672 6.89844 3.43126 7.01094 3.4172 7.17031C3.39845 7.32969 3.51564 7.47031 3.67501 7.48438C4.25157 7.54063 4.53751 7.56406 5.11876 7.60625C5.34376 7.625 5.56876 7.55469 5.7422 7.40469C6.01407 7.19844 6.02814 6.81406 6.03751 6.50469C6.07032 6.06406 5.72814 5.67969 5.27345 5.64219C4.92189 5.61406 4.74845 5.6 4.39689 5.57187C4.32657 5.5625 4.26095 5.52969 4.21876 5.47812C4.12032 5.37969 4.2047 5.08437 4.20001 4.9625C4.20939 4.83594 4.33126 4.74219 4.4672 4.75625C5.02501 4.80313 5.30626 4.82656 5.86407 4.86406C6.25314 4.90156 6.28595 4.33437 5.91095 4.30625ZM9.38439 4.49375C8.61564 4.47031 8.24064 4.45156 7.47189 4.41406C7.31251 4.40469 7.17657 4.53125 7.1672 4.68594C7.18126 5.14531 7.85626 4.9625 8.11407 5.02344L8.01095 7.49375C8.00626 7.65312 8.12814 7.78438 8.28751 7.79375C8.44689 7.79844 8.58282 7.67656 8.58751 7.51719L8.69064 5.04688C8.8922 5.05625 9.11251 5.06094 9.37501 5.07031C9.75001 5.06094 9.75939 4.5125 9.38439 4.49375ZM18.1219 4.89219C18.3844 4.87812 18.6141 4.85469 18.8156 4.84062L19.0219 7.30625C19.0359 7.46094 19.1766 7.5875 19.3313 7.56875C19.4906 7.55938 19.6078 7.41875 19.5984 7.25937L19.3922 4.79375C19.5891 4.775 19.8047 4.75625 20.0672 4.73281C20.4422 4.69063 20.3906 4.12812 20.0109 4.15625C19.2469 4.23125 18.8719 4.25938 18.1031 4.31563C17.7375 4.34375 17.7609 4.89219 18.1219 4.89219ZM14.4422 4.775L14.4844 6.10156L14.5266 7.43281C14.5266 7.5875 14.6672 7.72344 14.8219 7.70938C14.9813 7.70469 15.1031 7.57344 15.0984 7.41406L15.0656 6.37344C15.2813 6.36406 15.4688 6.35938 15.6516 6.35C15.9422 6.82344 16.1203 7.1 16.4484 7.61094C16.5375 7.74687 16.7156 7.78438 16.8469 7.69531C16.9781 7.61094 17.0156 7.43281 16.9313 7.29688C16.6734 6.89844 16.5094 6.63594 16.3078 6.31719C16.5328 6.3125 16.9172 6.32656 16.9031 5.99844L16.8328 4.67188C16.8281 4.59219 16.7953 4.52188 16.7391 4.475C16.6828 4.42344 16.6078 4.39531 16.5328 4.4C15.8063 4.44219 15.4453 4.45625 14.7188 4.47969C14.5641 4.48438 14.4422 4.62031 14.4422 4.775ZM12.8625 4.52656C12.0891 4.53594 11.7188 4.53594 10.95 4.52656C10.7906 4.52656 10.6641 4.65313 10.6594 4.80781C10.65 5.49688 10.6359 6.875 10.6266 7.55938C10.7719 7.56875 11.0578 7.57344 11.2031 7.56406L11.2172 6.48125C11.7328 6.49062 12.0891 6.48594 12.5953 6.48594L12.6047 7.57812C12.6094 7.7375 12.7406 7.86406 12.8953 7.86406C13.0547 7.85938 13.1813 7.73281 13.1813 7.57344L13.1531 4.8125C13.1531 4.65313 13.0219 4.52656 12.8625 4.52656ZM16.3219 5.74531L16.2797 4.99531C15.8156 5.01875 15.4922 5.03281 15.0281 5.05156L15.0563 5.80156C15.525 5.78281 15.8531 5.76875 16.3219 5.74531ZM11.2219 5.90938C11.7328 5.91406 12.0797 5.91406 12.5906 5.91406L12.5859 5.10781C12.0891 5.1125 11.7422 5.1125 11.2359 5.10781L11.2219 5.90938ZM0.00469971 9.76719H1.55157V1.41406H0.00469971V9.76719Z" fill="white"/>
</svg>
