<svg width="40" height="40" viewBox="0 0 40 40" fill="none" xmlns="http://www.w3.org/2000/svg">
<rect width="40" height="40" rx="20" fill="#00A8A8"/>
<g clip-path="url(#clip0_19348_1238)">
<path d="M11.8905 23.9536C14.2577 26.7833 17.1073 29.0112 20.3597 30.5877C21.598 31.1745 23.254 31.8707 25.099 31.9901C25.2134 31.995 25.3228 32 25.4372 32C26.6755 32 27.6701 31.5723 28.4807 30.6921C28.4856 30.6871 28.4956 30.6772 28.5006 30.6672C28.789 30.3191 29.1172 30.0058 29.4604 29.6726C29.6941 29.4488 29.9328 29.2151 30.1616 28.9764C31.2208 27.8724 31.2208 26.47 30.1516 25.4007L27.1628 22.4119C26.6556 21.8848 26.0488 21.6063 25.4123 21.6063C24.7757 21.6063 24.1641 21.8848 23.6419 22.407L21.8615 24.1873C21.6974 24.0928 21.5283 24.0083 21.3692 23.9287C21.1703 23.8293 20.9863 23.7348 20.8222 23.6303C19.2009 22.6009 17.7289 21.2582 16.3215 19.5325C15.6104 18.6324 15.133 17.8765 14.7998 17.1057C15.2672 16.683 15.7049 16.2404 16.1276 15.8077C16.2768 15.6535 16.4309 15.4994 16.5851 15.3452C17.1222 14.8081 17.4106 14.1865 17.4106 13.5549C17.4106 12.9233 17.1272 12.3017 16.5851 11.7646L15.1031 10.2826C14.9291 10.1086 14.765 9.93949 14.5959 9.76544C14.2677 9.42727 13.9245 9.07915 13.5863 8.76585C13.0741 8.26357 12.4724 8 11.8358 8C11.2043 8 10.5975 8.26357 10.0654 8.77082L8.2055 10.6308C7.52916 11.3071 7.14623 12.1276 7.06666 13.0775C6.97218 14.2661 7.19099 15.5292 7.75792 17.0559C8.62821 19.4182 9.94109 21.6113 11.8905 23.9536ZM8.28009 13.1819C8.33977 12.5205 8.59339 11.9685 9.07081 11.4911L10.9208 9.64111C11.2092 9.36262 11.5275 9.2184 11.8358 9.2184C12.1392 9.2184 12.4475 9.36262 12.731 9.65106C13.0642 9.95939 13.3775 10.2826 13.7157 10.6258C13.8847 10.7998 14.0588 10.9739 14.2328 11.1529L15.7148 12.6349C16.0232 12.9432 16.1823 13.2565 16.1823 13.5649C16.1823 13.8732 16.0232 14.1865 15.7148 14.4948C15.5607 14.649 15.4065 14.8081 15.2523 14.9623C14.7898 15.4298 14.3572 15.8724 13.8798 16.2951L13.8549 16.3199C13.4421 16.7327 13.5068 17.1256 13.6062 17.424C13.6112 17.4389 13.6162 17.4488 13.6212 17.4637C14.0041 18.3838 14.5362 19.259 15.3667 20.3034C16.8586 22.1434 18.4301 23.5707 20.1607 24.6697C20.3746 24.809 20.6033 24.9184 20.8172 25.0278C21.0161 25.1272 21.2001 25.2217 21.3642 25.3261C21.3841 25.3361 21.399 25.346 21.4189 25.356C21.583 25.4405 21.7422 25.4803 21.9013 25.4803C22.2992 25.4803 22.5578 25.2267 22.6423 25.1421L24.5022 23.2822C24.7907 22.9938 25.104 22.8396 25.4123 22.8396C25.7902 22.8396 26.0986 23.0734 26.2925 23.2822L29.2913 26.276C29.8881 26.8728 29.8831 27.5193 29.2764 28.1509C29.0675 28.3746 28.8487 28.5885 28.6149 28.8123C28.2668 29.1504 27.9038 29.4986 27.5756 29.8914C27.0037 30.5081 26.3224 30.7965 25.4421 30.7965C25.3576 30.7965 25.2681 30.7915 25.1835 30.7866C23.5524 30.6821 22.0356 30.0456 20.8968 29.5035C17.8035 28.0066 15.0882 25.8831 12.8354 23.1877C10.9805 20.9548 9.73223 18.8761 8.9067 16.6482C8.39447 15.2806 8.20052 14.1815 8.28009 13.1819Z" fill="white"/>
</g>
<defs>
<clipPath id="clip0_19348_1238">
<rect width="24" height="24" fill="white" transform="translate(7 8)"/>
</clipPath>
</defs>
</svg>
