<svg width="40" height="40" viewBox="0 0 40 40" fill="none" xmlns="http://www.w3.org/2000/svg">
<rect width="40" height="40" rx="20" fill="#00A8A8"/>
<path d="M11 14L17.1076 18.6123L17.1097 18.614C17.7878 19.1113 18.1271 19.3601 18.4988 19.4562C18.8272 19.5412 19.1725 19.5412 19.501 19.4562C19.8729 19.36 20.2132 19.1105 20.8926 18.6123C20.8926 18.6123 24.8101 15.6059 27 14M10 23.8002V16.2002C10 15.0801 10 14.5196 10.218 14.0918C10.4097 13.7155 10.7155 13.4097 11.0918 13.218C11.5196 13 12.0801 13 13.2002 13H24.8002C25.9203 13 26.4796 13 26.9074 13.218C27.2837 13.4097 27.5905 13.7155 27.7822 14.0918C28 14.5192 28 15.079 28 16.1969V23.8036C28 24.9215 28 25.4805 27.7822 25.9079C27.5905 26.2842 27.2837 26.5905 26.9074 26.7822C26.48 27 25.921 27 24.8031 27H13.1969C12.079 27 11.5192 27 11.0918 26.7822C10.7155 26.5905 10.4097 26.2842 10.218 25.9079C10 25.4801 10 24.9203 10 23.8002Z" stroke="white" stroke-width="2" stroke-linecap="round" stroke-linejoin="round"/>
</svg>
